<?xml version='1.0' encoding='utf-8'?>
<svg xmlns:dc="http://purl.org/dc/elements/1.1/" xmlns:cc="http://creativecommons.org/ns#" xmlns:rdf="http://www.w3.org/1999/02/22-rdf-syntax-ns#" xmlns="http://www.w3.org/2000/svg" id="svg2" viewBox="0 0 20 20" height="100%" width="100%" version="1.1">
  <metadata id="metadata8">
    <rdf:RDF>
      <cc:Work rdf:about="">
        <dc:format>image/svg+xml</dc:format>
        <dc:type rdf:resource="http://purl.org/dc/dcmitype/StillImage"/>
        <dc:title/>
      </cc:Work>
    </rdf:RDF>
  </metadata>
  <defs id="defs6"/>
  <rect style="fill:none;stroke:none;visibility:hidden" id="canvas" y="0" x="0" height="20" width="20"/><rect x="1" y="1" width="18" height="18" rx="2" ry="2" id="shield" style="fill:#000000;fill-opacity:0.0;stroke:#00cd27;stroke-width:2.0;"/>
  <g id="g3336">
    <path d="M 6.5,5.5707477 9.659,5.5 9.6586087,4.744301 6.5,4.744301 6.3916915,2.1853224 c 0,0 0.6371603,-0.1779725 0.6079837,-1.0186339 C 6.9527138,-0.18639978 4.8952004,-0.25967302 4.8445751,1.1312042 4.8163927,1.9054863 5.5,2.2320442 5.5,2.2320442 L 5.5,9 l 4.1,0 1.337149,4.102763 2.353244,-0.510603 -0.0988,-0.581572 -1.463208,0.308258 L 10.2,7.5 6.5,7.45 Z M 5.0670121,5.7986947 C 5.4420242,5.4315168 5.2079516,4.7775931 4.6561355,4.8872455 -1.8482605,8.3282113 4.3424925,17.282257 9.8651459,12.30191 10.028752,11.824223 9.6586087,11.345196 9.1344033,11.593893 4.739402,15.611735 0.03083761,7.8726521 5.0670121,5.7986947 Z" id="green-frame-white-wheelchair" style="fill:#ffffff;fill-opacity:1" transform="translate(3,3)"/>
  </g>
</svg>
