<?xml version='1.0' encoding='utf-8'?>
<svg xmlns:dc="http://purl.org/dc/elements/1.1/" xmlns:cc="http://creativecommons.org/ns#" xmlns:rdf="http://www.w3.org/1999/02/22-rdf-syntax-ns#" xmlns="http://www.w3.org/2000/svg" id="svg2" viewBox="0 0 18 18" height="100%" width="100%" version="1.1">
  <metadata id="metadata8">
    <rdf:RDF>
      <cc:Work rdf:about="">
        <dc:format>image/svg+xml</dc:format>
        <dc:type rdf:resource="http://purl.org/dc/dcmitype/StillImage"/>
        <dc:title/>
      </cc:Work>
    </rdf:RDF>
  </metadata>
  <defs id="defs6"/>
  <rect style="fill:none;stroke:none;visibility:hidden" id="canvas" y="0" x="0" height="18" width="18"/><rect x="1" y="1" width="16" height="16" id="shield" style="fill:#ffffff;fill-opacity:1;stroke:#000000;stroke-width:1.0;stroke-opacity:1;"/>
  <path style="fill:#000000;fill-opacity:1" id="white-black-ammonit" d="M 13,7 C 13.113459,4.2581618 9.7956463,1.3698498 7.0521572,1.3080658 4.2152278,1.2441776 1.8145313,4.3264891 0.6430085,6.9110169 c -0.7571836,1.670443 0.006886,5.5021191 0.006886,5.5021191 l 3.0916314,0.04449 c 0,0 -1.6276592,-3.7462003 -0.9976845,-5.499574 C 3.3887129,5.1632167 5.2084122,3.1996968 7.1144389,3.2656929 8.920252,3.3282191 10.975474,5.235267 11.003364,7.041947 11.02558,8.4810404 9.4375568,10.214168 8,10.144068 6.6626358,10.078854 5.2297326,8.311393 5.5,7 5.6434973,6.3037217 6.6804698,5.8606864 7.3792373,5.9915254 7.8525935,6.0801578 8.3352609,6.60768 8.3188559,7.0889831 8.3044162,7.5126249 7.4279517,7.9964069 7.4279517,7.9964069 l 0.073877,1.2010529 c 0,0 1.6066851,-0.9981945 1.675733,-1.8199367 C 9.2565578,6.4373854 8.5527724,5.2221246 7.6347308,5.0046417 6.3793945,4.7072541 4.5335478,5.6904775 4.2936291,6.958053 3.9519167,8.7634407 5.8802864,11.082921 7.7063709,11.286901 9.9629219,11.538965 12.906122,9.268644 13,7 Z" transform="translate(2,2)"/>
</svg>
