<?xml version='1.0' encoding='utf-8'?>
<svg xmlns:dc="http://purl.org/dc/elements/1.1/" xmlns:cc="http://creativecommons.org/ns#" xmlns:rdf="http://www.w3.org/1999/02/22-rdf-syntax-ns#" xmlns="http://www.w3.org/2000/svg" version="1.1" width="100%" height="100%" viewBox="0 0 18 18" id="svg2">
  <metadata id="metadata8">
    <rdf:RDF>
      <cc:Work rdf:about="">
        <dc:format>image/svg+xml</dc:format>
        <dc:type rdf:resource="http://purl.org/dc/dcmitype/StillImage"/>
        <dc:title/>
      </cc:Work>
    </rdf:RDF>
  </metadata>
  <defs id="defs6"/>
  <rect width="18" height="18" x="0" y="0" id="canvas" style="fill:none;stroke:none;visibility:hidden"/><rect x="1" y="1" width="16" height="16" id="shield" style="fill:#ffffff;fill-opacity:1;stroke:#000000;stroke-width:1.0;stroke-opacity:1;"/>
  <path id="white-red-wheel" d="M 7,2 C 4.2966102,2 2,4.3262712 2,7 2,9.6737288 4.3262712,12 7,12 9.6737288,12 12,9.6737288 12,7 12,4.3262712 9.7033898,2 7,2 Z M 7,4 C 7.8281296,4 8.5153324,4.2062705 8.7557147,4.4100413 5.6340829,7.9790708 6.5322403,7.8204481 9.4119925,5.1108106 9.6305942,5.321532 10.029661,6.1422093 10,7 9.970339,7.8577907 9.749238,8.5301629 9.4638994,8.7779606 6.4189618,6.1740441 5.9101862,6.3262187 8.674147,9.4564842 8.4411797,9.6305939 7.8281296,10.029661 7,10 6.1718703,9.970339 5.4846677,9.7344076 5.2294547,9.4638995 7.7119587,6.4332751 7.7971902,5.9809078 4.4990243,8.7260538 4.2655924,8.4263493 4.029661,7.7984686 4,7 3.970339,6.2015313 4.2804231,5.113905 4.6102531,4.9921666 7.5315543,7.9524842 7.7616939,7.7522367 5.266531,4.4767785 5.5143287,4.1766094 6.1718703,4 7,4 Z" style="fill:#ff0000;fill-opacity:1" transform="translate(2.0,2.0)"/>
</svg>
