<?xml version="1.0" encoding="UTF-8" standalone="no"?>
<svg
   xmlns:dc="http://purl.org/dc/elements/1.1/"
   xmlns:cc="http://creativecommons.org/ns#"
   xmlns:rdf="http://www.w3.org/1999/02/22-rdf-syntax-ns#"
   xmlns:svg="http://www.w3.org/2000/svg"
   xmlns="http://www.w3.org/2000/svg"
   id="svg2"
   viewBox="0 0 14 14"
   height="100%"
   width="100%"
   version="1.1">
  <metadata
     id="metadata8">
    <rdf:RDF>
      <cc:Work
         rdf:about="">
        <dc:format>image/svg+xml</dc:format>
        <dc:type
           rdf:resource="http://purl.org/dc/dcmitype/StillImage" />
        <dc:title></dc:title>
      </cc:Work>
    </rdf:RDF>
  </metadata>
  <defs
     id="defs6" />
  <rect
     style="fill:none;stroke:none;visibility:hidden"
     id="canvas"
     y="0"
     x="0"
     height="14"
     width="14" />
  <path
     id="atm"
     d="M 1,0 C 0.35857552,-0.01485206 -0.09519325,0.63406027 0,1.2375879 0.01252063,1.8925484 -0.02637916,2.551017 0.02199406,3.2035553 0.00268942,3.606089 0.93414631,4.3221283 1,3.8020101 1,3.2013401 1,2.60067 1,2 c 4,0 8,0 12,0 0,0.6666667 0,1.3333333 0,2 0.646882,-0.00573 1.096994,-0.6668783 1,-1.2771859 -0.01262,-0.6401247 0.02657,-1.2838805 -0.02211,-1.92150319 C 13.857906,0.2141059 13.237405,-0.07695194 12.683216,0 8.7888108,0 4.8944054,0 1,0 Z m 1,3 c 0.0031,2.7032949 -0.0062,5.4068514 0.00465,8.109983 0.011576,0.608823 0.6339878,0.974239 1.1933429,0.890017 2.6333354,-0.0035 5.2670344,0.0069 7.9001421,-0.0052 C 11.720074,11.943261 12.088039,11.302593 12,10.722814 12,8.1485428 12,5.5742714 12,3 11.666667,3 11.333333,3 11,3 11,5 11,7 11,9 9.9650525,9.028178 9.028178,9.9650525 9,11 7.6666667,11 6.3333333,11 5,11 4.971822,9.9650525 4.0349475,9.028178 3,9 3,7 3,5 3,3 2.6666667,3 2.3333333,3 2,3 Z M 7,4 C 5.8636769,4.0148985 4.5268545,4.4870374 4.0644791,5.6134023 3.7653268,6.521011 4.5984055,7.3144179 5.36049,7.6433042 6.7943806,8.3080538 8.7603033,8.0579003 9.7521432,6.7542867 10.256588,6.1028467 9.9140181,5.1814999 9.2871492,4.7516399 8.6423922,4.2467363 7.8130128,4.0035701 7,4 Z m -5,8.5 c -0.033852,0.63325 0.2289298,1.518305 1,1.5 2.6993305,-0.0035 5.3990367,0.007 8.098132,-0.0053 0.692339,0.05264 1.083449,-1.327831 0.791952,-1.395756 -0.461169,0.529323 -1.187036,0.331594 -1.80081,0.37688 -2.3919694,0.01385 -4.7845932,0.04705 -7.1761544,0.04882 C 2.5399334,13.00444 2.2445628,12.75979 2,12.5 Z"
     style="fill:#000000;fill-opacity:1;stroke:none" />
</svg>
