<?xml version="1.0" encoding="UTF-8" standalone="no"?>
<!-- Created with Inkscape (http://www.inkscape.org/) -->

<svg
   xmlns:dc="http://purl.org/dc/elements/1.1/"
   xmlns:cc="http://creativecommons.org/ns#"
   xmlns:rdf="http://www.w3.org/1999/02/22-rdf-syntax-ns#"
   xmlns:svg="http://www.w3.org/2000/svg"
   xmlns="http://www.w3.org/2000/svg"
   version="1.1"
   width="100%"
   height="100%"
   viewBox="0 0 14 14"
   id="svg2">
  <metadata
     id="metadata8">
    <rdf:RDF>
      <cc:Work
         rdf:about="">
        <dc:format>image/svg+xml</dc:format>
        <dc:type
           rdf:resource="http://purl.org/dc/dcmitype/StillImage" />
        <dc:title></dc:title>
      </cc:Work>
    </rdf:RDF>
  </metadata>
  <defs
     id="defs6" />
  <rect
     width="14"
     height="14"
     x="0"
     y="0"
     id="canvas"
     style="fill:none;stroke:none;visibility:hidden" />
  <path
     d="M 9.8437501,4 C 9.9375001,3.98437 10,4 10,4 l 2,0 c 0,0 1,0 1,1 0,1 -1,1 -1,1 l -2,0 c 0,0 -0.9999999,0 -0.9999999,-1 0,-0.75 0.5625,-0.953125 0.84375,-1 z M 7,1 8,2 6,2 z M 2,2 C 1,2 0,3 0,4 l 0,4 c 0,1 1.0000003,2.000743 2,2 4.8853134,-0.00363 5.3581331,0 10,0 1,0 2,-1 2,-2 C 14,7 14,5 14,4 14,3 12.975662,2 12,2 L 9.5,2 7,0 4.5,2 z M 1.84375,4 C 1.9375,3.984375 2,4 2,4 L 4,4 C 4,4 5,4 5,5 5,6 4,6 4,6 L 2,6 C 2,6 1,6 1,5 1,4.25 1.5625,4.046875 1.84375,4 z M 6.75,4 7.25,4 c 0,0 1,0 1,1 0,1 -1,1 -1,1 l -0.5,0 c 0,0 -1,0 -1,-1 0,-1 1,-1 1,-1 z"
     id="cable-car"
     style="fill:#000000;fill-opacity:1;stroke:none" />
</svg>
