<?xml version="1.0" encoding="UTF-8" standalone="no"?>
<svg
   xmlns:dc="http://purl.org/dc/elements/1.1/"
   xmlns:cc="http://creativecommons.org/ns#"
   xmlns:rdf="http://www.w3.org/1999/02/22-rdf-syntax-ns#"
   xmlns:svg="http://www.w3.org/2000/svg"
   xmlns="http://www.w3.org/2000/svg"
   id="svg2"
   viewBox="0 0 14 14"
   height="100%"
   width="100%"
   version="1.1">
  <metadata
     id="metadata8">
    <rdf:RDF>
      <cc:Work
         rdf:about="">
        <dc:format>image/svg+xml</dc:format>
        <dc:type
           rdf:resource="http://purl.org/dc/dcmitype/StillImage" />
        <dc:title></dc:title>
      </cc:Work>
    </rdf:RDF>
  </metadata>
  <defs
     id="defs6" />
  <rect
     style="fill:none;stroke:none;visibility:hidden"
     id="canvas"
     y="0"
     x="0"
     height="14"
     width="14" />
  <path
     id="cafe"
     d="m 1,1 c 0.00835,2.0914281 -0.0169132,4.183899 0.013029,6.2746582 0.082608,1.2103969 1.1429983,2.0818399 2.2405243,2.4023438 1.572416,0.46463 3.3194513,0.454252 4.8578453,-0.1347657 C 9.1286474,9.1620767 10.002976,8.2258846 9.9985409,7.0930176 10.056122,6.8952414 10.458901,7.0481218 10.663807,7 11.294207,6.9698017 11.942792,7.078917 12.555908,6.901123 13.463022,6.5823542 14.109444,5.6343022 14,4.6680964 14.01854,4.0367392 14.021361,3.3516345 13.57193,2.8482971 13.128035,2.2403853 12.373402,1.9254898 11.631218,2 11.087479,2 10.543739,2 10,2 10,1.6666667 10,1.3333333 10,1 7,1 4,1 1,1 Z m 9,2.25 c 0.661193,0.013692 1.326354,-0.029425 1.984697,0.025526 0.830614,0.2254298 0.943045,1.3722249 0.556175,2.0182641 C 12.251151,5.8401832 11.601867,5.7469854 11.086193,5.75 c -0.362064,0 -0.724129,0 -1.086193,0 0,-0.8333333 0,-1.6666667 0,-2.5 z M 0,11 c 0.02945204,1.146231 1.1548136,2.124624 2.2950254,2 2.2972691,-0.0075 4.5956883,0.01513 6.8922305,-0.01148 C 10.143507,12.850868 10.974662,11.976397 11,11 7.3333333,11 3.6666667,11 0,11 Z"
     style="fill:#000000;fill-opacity:1;stroke:none" />
</svg>
