<?xml version="1.0" encoding="UTF-8" standalone="no"?>
<svg
   xmlns:dc="http://purl.org/dc/elements/1.1/"
   xmlns:cc="http://creativecommons.org/ns#"
   xmlns:rdf="http://www.w3.org/1999/02/22-rdf-syntax-ns#"
   xmlns:svg="http://www.w3.org/2000/svg"
   xmlns="http://www.w3.org/2000/svg"
   version="1.1"
   width="100%"
   height="100%"
   viewBox="0 0 14 14"
   id="svg2">
  <metadata
     id="metadata8">
    <rdf:RDF>
      <cc:Work
         rdf:about="">
        <dc:format>image/svg+xml</dc:format>
        <dc:type
           rdf:resource="http://purl.org/dc/dcmitype/StillImage" />
        <dc:title></dc:title>
      </cc:Work>
    </rdf:RDF>
  </metadata>
  <defs
     id="defs6" />
  <rect
     width="14"
     height="14"
     x="0"
     y="0"
     id="canvas"
     style="fill:none;stroke:none;visibility:hidden" />
  <path
     d="m 14.005056,2.6199444 c 0,-0.375 -0.271336,-0.4804977 -0.75,-0.625 L 8,1.9949444 8,0 7,0 l 0,1.9949444 -6,0 0,1.25 1.0050556,0 0,8.4998056 -1.0050556,0 0,1.25 c 4.6147364,0.0193 7.4271601,0.0078 12.255056,0 0.5,0 0.75,-0.25 0.75,-0.625 0,-0.375 -0.25,-0.625 -0.75,-0.625 l -0.25,0 0,-8.4998056 0.25,0 c 0.5,0 0.75,-0.25 0.75,-0.625 z m -3,2.875 c 0,-0.828427 -0.671573,-1.5 -1.5,-1.5 -0.828427,0 -1.5,0.671573 -1.5,1.5 0,0.828427 0.671573,1.5 1.5,1.5 0.828427,0 1.5,-0.671573 1.5,-1.5 z m -1,2 -2,0 L 8,11 c 0.25,0 1.1800803,-0.0215 1.1800803,-0.0215 l 0.642363,2.668544 1.3150327,-0.0037 -1.102759,-3.322128 z m 2,-4.25 0,8.4998056 -9.0000004,0 0,-8.4998056 c 0,0.02355 9.0000004,0 9.0000004,0 z m -5.0000004,2.25 c 0,-0.828427 -0.671573,-1.5 -1.5,-1.5 -0.828427,0 -1.5,0.671573 -1.5,1.5 0,0.828427 0.671573,1.5 1.5,1.5 0.828427,0 1.5,-0.671573 1.5,-1.5 z m -1,2 -2,0 L 4,11 c 0.25322,0 1.0372089,0.03782 1.0372089,0.03782 l 0.9087082,2.609222 1.3120136,-0.0037 -1.2528751,-3.292467 z"
     id="chair-lift"
     style="fill:#000000;fill-opacity:1;stroke:none" />
</svg>
