<?xml version="1.0" encoding="UTF-8" standalone="no"?>
<svg
   xmlns:dc="http://purl.org/dc/elements/1.1/"
   xmlns:cc="http://creativecommons.org/ns#"
   xmlns:rdf="http://www.w3.org/1999/02/22-rdf-syntax-ns#"
   xmlns:svg="http://www.w3.org/2000/svg"
   xmlns="http://www.w3.org/2000/svg"
   version="1.1"
   width="100%"
   height="100%"
   viewBox="0 0 14 14"
   id="svg2">
  <metadata
     id="metadata8">
    <rdf:RDF>
      <cc:Work
         rdf:about="">
        <dc:format>image/svg+xml</dc:format>
        <dc:type
           rdf:resource="http://purl.org/dc/dcmitype/StillImage" />
        <dc:title></dc:title>
      </cc:Work>
    </rdf:RDF>
  </metadata>
  <defs
     id="defs6" />
  <rect
     width="14"
     height="14"
     x="0"
     y="0"
     id="canvas"
     style="fill:none;stroke:none;visibility:hidden" />
  <path
     id="chair-lift"
     d="M 7 0 L 7 1.9941406 L 1 1.9941406 L 1 3.2441406 L 2.0058594 3.2441406 L 2.0058594 11.744141 L 1 11.744141 L 1 12.994141 C 2.5721004 12.998853 4.1445109 12.988646 5.7167969 12.990234 L 5.9453125 13.646484 C 6.3826504 13.645284 6.8204746 13.643778 7.2578125 13.642578 C 7.1766401 13.424298 7.0949498 13.206183 7.0117188 12.988281 C 7.8958376 12.988288 8.7800061 12.988678 9.6640625 12.986328 L 9.8222656 13.646484 C 10.26061 13.645284 10.698375 13.643778 11.136719 13.642578 C 11.065455 13.423119 10.994886 13.203542 10.921875 12.984375 C 11.758359 12.980853 12.595296 12.988999 13.431641 12.982422 C 14.328408 12.933702 14.055488 11.550891 13.216797 11.744141 C 12.880741 11.846053 13.040848 11.453061 13.005859 11.253906 L 13.005859 3.2441406 C 13.439667 3.2756526 14.026666 3.1889746 14.005859 2.6191406 C 13.978969 2.1046355 13.344292 1.9662676 12.916016 1.9941406 L 8 1.9941406 L 8 0 L 7 0 z M 3.0058594 3.2441406 C 6.0056131 3.2683786 9.0059525 3.2462606 12.005859 3.2441406 L 12.005859 11.744141 L 10.513672 11.744141 C 10.351551 11.25752 10.185063 10.771864 10.035156 10.283203 C 10.025356 9.3536798 10.015619 8.4236643 10.005859 7.4941406 L 8.0058594 7.4941406 L 8 11 C 8.3857084 11.120131 9.1779496 10.702941 9.2421875 11.234375 L 9.3652344 11.744141 L 6.5449219 11.744141 C 6.362842 11.267283 6.1738772 10.791943 6.0058594 10.3125 L 6.0058594 7.4941406 L 4.0058594 7.4941406 L 4 11 C 4.3756796 11.101693 5.072204 10.791154 5.1367188 11.322266 L 5.2832031 11.744141 L 3.0058594 11.744141 L 3.0058594 3.2441406 z M 5.6464844 3.9980469 C 5.4039433 3.9697968 5.1548398 4.0039977 4.921875 4.1132812 C 3.9632066 4.4735657 3.6889134 5.8603395 4.4453125 6.5546875 C 5.177828 7.3584781 6.6608613 6.9900706 6.9375 5.9414062 C 6.9824147 5.7972632 7.005914 5.6450276 7.0058594 5.4941406 C 7.0394364 4.718141 6.3741077 4.082797 5.6464844 3.9980469 z M 9.6464844 3.9980469 C 9.4039433 3.9697968 9.1548398 4.0039977 8.921875 4.1132812 C 7.9632066 4.4735657 7.6889134 5.8603395 8.4453125 6.5546875 C 9.177828 7.3584781 10.660861 6.9900706 10.9375 5.9414062 C 10.98241 5.7972632 11.005909 5.6450276 11.005859 5.4941406 C 11.039436 4.718141 10.374108 4.082797 9.6464844 3.9980469 z "
     style="fill:#000000;fill-opacity:1;stroke:none" />
</svg>
