<?xml version="1.0" encoding="UTF-8" standalone="no"?>
<!-- Created with Inkscape (http://www.inkscape.org/) -->

<svg
   xmlns:dc="http://purl.org/dc/elements/1.1/"
   xmlns:cc="http://creativecommons.org/ns#"
   xmlns:rdf="http://www.w3.org/1999/02/22-rdf-syntax-ns#"
   xmlns:svg="http://www.w3.org/2000/svg"
   xmlns="http://www.w3.org/2000/svg"
   version="1.1"
   width="100%"
   height="100%"
   viewBox="0 0 14 14"
   id="svg2">
  <metadata
     id="metadata8">
    <rdf:RDF>
      <cc:Work
         rdf:about="">
        <dc:format>image/svg+xml</dc:format>
        <dc:type
           rdf:resource="http://purl.org/dc/dcmitype/StillImage" />
        <dc:title></dc:title>
      </cc:Work>
    </rdf:RDF>
  </metadata>
  <defs
     id="defs6" />
  <rect
     width="14"
     height="14"
     x="0"
     y="0"
     id="canvas"
     style="fill:none;stroke:none;visibility:hidden" />
  <path
     d="m 13.997,4.8402778 c -0.04687,-0.28125 -0.25,-0.84375 -1,-0.84375 l -12.997,0 0,2 c 0,0 9.6439644,0 12.997,0 1,0 1,-1 1,-1 0,0 0.01563,-0.0625 0,-0.15625 z m 0,4.0000002 c -0.04687,-0.28125 -0.25,-0.84375 -1,-0.84375 l -12.997,0 0,2 12.997,0 c 1,0 1,-1 1,-1 0,0 0.01563,-0.0625 0,-0.15625 z m -9.8183462,3.875 c 0.434201,0.127504 0.9440642,-0.128421 1.1269905,-0.5625 L 9.0590278,2.9965278 C 9.3334905,2.5134799 9.1313878,1.8205771 8.6438208,1.5902778 8.1562542,1.3599785 7.4985087,1.6467368 7.3388846,2.1840278 L 3.5855009,11.340278 c -0.042679,0.08841 -0.072773,0.183544 -0.088973,0.28125 -0.056509,0.471201 0.2479246,0.966246 0.6821259,1.09375 z"
     id="gate"
     style="fill:#000000;fill-opacity:1;stroke:none" />
</svg>
