<?xml version="1.0" encoding="UTF-8" standalone="no"?>
<svg
   xmlns:dc="http://purl.org/dc/elements/1.1/"
   xmlns:cc="http://creativecommons.org/ns#"
   xmlns:rdf="http://www.w3.org/1999/02/22-rdf-syntax-ns#"
   xmlns:svg="http://www.w3.org/2000/svg"
   xmlns="http://www.w3.org/2000/svg"
   version="1.1"
   width="100%"
   height="100%"
   viewBox="0 0 14 14"
   id="svg2">
  <metadata
     id="metadata8">
    <rdf:RDF>
      <cc:Work
         rdf:about="">
        <dc:format>image/svg+xml</dc:format>
        <dc:type
           rdf:resource="http://purl.org/dc/dcmitype/StillImage" />
        <dc:title></dc:title>
      </cc:Work>
    </rdf:RDF>
  </metadata>
  <defs
     id="defs6" />
  <rect
     width="14"
     height="14"
     x="0"
     y="0"
     id="canvas"
     style="fill:none;stroke:none;visibility:hidden" />
  <path
     d="m 7.5,3.5 3.5,0 0,3 -3.5,0 z M 4,2 C 3,2 2,3 2,4 l 0,4 c 0,1 1.0000003,2.000743 2,2 4.8853134,-0.00363 1.3581331,0 6,0 1,0 2,-1 2,-2 L 12,4 C 12,3 10.975662,2 10,2 l -2.5,0 0,-2 -1,0 0,2 z m -1,1.5 3.5,0 0,3 -3.5,0 z"
     id="gondola"
     style="fill:#000000;fill-opacity:1;stroke:none" />
</svg>
