<?xml version="1.0" encoding="UTF-8" standalone="no"?>
<svg
   xmlns:dc="http://purl.org/dc/elements/1.1/"
   xmlns:cc="http://creativecommons.org/ns#"
   xmlns:rdf="http://www.w3.org/1999/02/22-rdf-syntax-ns#"
   xmlns:svg="http://www.w3.org/2000/svg"
   xmlns="http://www.w3.org/2000/svg"
   id="svg2"
   viewBox="0 0 14 14"
   height="100%"
   width="100%"
   version="1.1">
  <metadata
     id="metadata8">
    <rdf:RDF>
      <cc:Work
         rdf:about="">
        <dc:format>image/svg+xml</dc:format>
        <dc:type
           rdf:resource="http://purl.org/dc/dcmitype/StillImage" />
        <dc:title></dc:title>
      </cc:Work>
    </rdf:RDF>
  </metadata>
  <defs
     id="defs6" />
  <rect
     style="fill:none;stroke:none;visibility:hidden"
     id="canvas"
     y="0"
     x="0"
     height="14"
     width="14" />
  <path
     id="hostel"
     d="M 0.625,0 C 0.0016137,-0.01621886 -0.02988147,0.68420213 0,1.1461228 0,5.4307486 0,9.7153743 0,14 c 0.41666667,0 0.83333333,0 1.25,0 0,-0.666667 0,-1.333333 0,-2 3.8333333,0 7.6666667,0 11.5,0 0,0.666667 0,1.333333 0,2 0.416667,0 0.833333,0 1.25,0 0.01639,-4.4749652 0.01748,-8.951542 -0.01148,-13.42578125 C 13.913845,-0.37623397 12.490965,0.00203863 12.75,0.86883685 12.75,2.2458912 12.75,3.6229456 12.75,5 8.9166667,5 5.0833333,5 1.25,5 1.2425014,3.5248933 1.2650968,2.0485308 1.2385254,0.57421875 1.2169401,0.25662248 0.95482351,-0.02185461 0.625,0 Z M 3.5,1 C 2.4074988,0.95014263 1.6167933,2.2779731 2.1810419,3.214989 2.6548745,4.189323 4.1785025,4.2630939 4.7438235,3.3386642 5.4273781,2.387463 4.6724157,0.96543908 3.5,1 Z m 2,1 c 0,0.6666667 0,1.3333333 0,2 C 7.6666667,4 9.8333333,4 12,4 11.960579,2.8521304 10.825719,1.8740137 9.6831017,2 8.2887345,2 6.8943672,2 5.5,2 Z M 1.25,6 c 3.8333333,0 7.6666667,0 11.5,0 0,1.6666667 0,3.3333333 0,5 -3.8333333,0 -7.6666667,0 -11.5,0 0.024405,-1.6661865 0.00205,-3.3335323 0,-5 z M 3.5,7 C 2.4074988,6.9501426 1.6167933,8.2779731 2.1810419,9.214989 2.6548745,10.189323 4.1785025,10.263094 4.7438235,9.3386642 5.4273781,8.387463 4.6724157,6.9654391 3.5,7 Z m 2,1 c 0,0.6666667 0,1.3333333 0,2 2.1666667,0.0043 4.3333333,0.0086 6.5,0.01288 C 11.964382,8.8429543 10.804099,7.8588033 9.6434894,8 8.2623263,8 6.8811631,8 5.5,8 Z"
     style="fill:#000000;fill-opacity:1;stroke:none" />
</svg>
