<?xml version="1.0" encoding="UTF-8" standalone="no"?>
<svg
   xmlns:dc="http://purl.org/dc/elements/1.1/"
   xmlns:cc="http://creativecommons.org/ns#"
   xmlns:rdf="http://www.w3.org/1999/02/22-rdf-syntax-ns#"
   xmlns:svg="http://www.w3.org/2000/svg"
   xmlns="http://www.w3.org/2000/svg"
   id="svg2"
   viewBox="0 0 14 14"
   height="100%"
   width="100%"
   version="1.1">
  <metadata
     id="metadata8">
    <rdf:RDF>
      <cc:Work
         rdf:about="">
        <dc:format>image/svg+xml</dc:format>
        <dc:type
           rdf:resource="http://purl.org/dc/dcmitype/StillImage" />
        <dc:title></dc:title>
      </cc:Work>
    </rdf:RDF>
  </metadata>
  <defs
     id="defs6" />
  <rect
     style="fill:none;stroke:none;visibility:hidden"
     id="canvas"
     y="0"
     x="0"
     height="14"
     width="14" />
  <path
     id="kindergarten"
     d="M 7.7578125,0.56054688 C 7.3682216,0.81529041 6.9975031,1.1298432 6.596259,1.3476562 c -1.3426332,0 -2.6852664,0 -4.0278996,0 -0.8320313,3.1503906 -1.66406252,6.3007812 -2.49609378,9.4511718 0.98958328,0 1.97916668,0 2.96874998,0 -0.6302083,1.05013 -1.2604167,2.100261 -1.890625,3.150391 0.3678385,0 0.7356771,0 1.1035156,0 0.6295573,-1.05013 1.2591146,-2.100261 1.8886719,-3.150391 1.5755208,0 3.1510417,0 4.7265625,0 0.3151042,1.05013 0.6302083,2.100261 0.9453125,3.150391 0.3151039,0 0.6302089,0 0.9453129,0 -0.315104,-1.05013 -0.630209,-2.100261 -0.9453129,-3.150391 0.4388019,0 0.8776039,0 1.3164059,0 0.07747,-0.292318 0.154948,-0.584635 0.232422,-0.876953 0.533854,1.342448 1.067709,2.684896 1.601563,4.027344 0.314453,0 0.628906,0 0.943359,0 -0.771484,-1.666016 -1.542969,-3.332031 -2.314453,-4.9980471 0.528646,-2.5345052 1.057292,-5.0690105 1.585938,-7.6035157 -1.604167,0 -3.2083337,0 -4.8125005,0 C 8.1640625,1.0852864 7.9609375,0.82291665 7.7578125,0.56054688 Z M 12.001953,2.3105469 C 11.438151,4.859375 10.874349,7.4082031 10.310547,9.9570312 7.2766928,9.9270833 4.2428386,9.8971354 1.2089844,9.8671875 1.8945313,7.3776042 2.5800781,4.8880208 3.265625,2.3984375 6.1777343,2.3691406 9.0898437,2.3398438 12.001953,2.3105469 Z M 6.015625,2.9023438 C 4.9990127,2.9464783 4.1056736,4.3177047 4.8326585,5.1737744 5.3472401,5.7767835 6.3440522,6.2413152 7.052582,5.6878374 7.7376181,5.1340024 8.031781,3.8917836 7.2216079,3.3105741 6.8816601,3.0454587 6.4486861,2.8884685 6.015625,2.9023438 Z m 4.550781,2.953125 C 9.236328,6.139974 7.9062499,6.4244792 6.5761719,6.7089844 7.4361979,7.5091146 8.296224,8.3092448 9.15625,9.109375 9.626302,8.0247396 10.096354,6.9401042 10.566406,5.8554688 Z M 3.3007812,6.2324219 C 2.859375,6.90625 2.4179687,7.5800781 1.9765625,8.2539062 2.8085937,8.7180989 3.640625,9.1822917 4.4726562,9.6464844 4.8033854,8.8971354 5.1341146,8.1477865 5.4648438,7.3984375 4.7434896,7.0097656 4.0221354,6.6210938 3.3007812,6.2324219 Z"
     style="fill:#000000;fill-opacity:1;stroke:none" />
</svg>
