<?xml version="1.0" encoding="UTF-8" standalone="no"?>
<svg
   xmlns:dc="http://purl.org/dc/elements/1.1/"
   xmlns:cc="http://creativecommons.org/ns#"
   xmlns:rdf="http://www.w3.org/1999/02/22-rdf-syntax-ns#"
   xmlns:svg="http://www.w3.org/2000/svg"
   xmlns="http://www.w3.org/2000/svg"
   id="svg2"
   viewBox="0 0 14 14"
   height="100%"
   width="100%"
   version="1.1">
  <metadata
     id="metadata8">
    <rdf:RDF>
      <cc:Work
         rdf:about="">
        <dc:format>image/svg+xml</dc:format>
        <dc:type
           rdf:resource="http://purl.org/dc/dcmitype/StillImage" />
        <dc:title></dc:title>
      </cc:Work>
    </rdf:RDF>
  </metadata>
  <defs
     id="defs6" />
  <rect
     style="fill:none;stroke:none;visibility:hidden"
     id="canvas"
     y="0"
     x="0"
     height="14"
     width="14" />
  <path
     id="mountain-rescue"
     d="m 0,0 c 0,4.6666667 0,9.3333333 0,14 4.6666667,0 9.3333333,0 14,0 C 14,9.3333333 14,4.6666667 14,0 9.3333333,0 4.6666667,0 0,0 Z M 1,1.0577778 C 5,1.0385185 9,1.0192593 13,1 13,5 13,9 13,13 9,13 5,13 1,13 1,9.0192593 1,5.0385185 1,1.0577778 Z m 3.991031,0.9644444 c 0,0.9955556 0,1.9911111 0,2.9866667 -1.004484,0 -2.008968,0 -3.013452,0 0,1.3274074 0,2.6548147 0,3.9822221 1.004484,0 2.008968,0 3.013452,0 0,0.9955557 0,1.991111 0,2.986667 1.3393127,0 2.6786253,0 4.017938,0 0,-0.995556 0,-1.9911113 0,-2.986667 1.004484,0 2.008969,0 3.013453,0 0,-1.3274074 0,-2.6548147 0,-3.9822221 -1.004484,0 -2.008969,0 -3.013453,0 0,-0.9955556 0,-1.9911111 0,-2.9866667 -1.3393127,0 -2.6786253,0 -4.017938,0 z"
     style="fill:#000000;fill-opacity:1;stroke:none" />
</svg>
