<?xml version="1.0" encoding="UTF-8" standalone="no"?>
<svg
   xmlns:dc="http://purl.org/dc/elements/1.1/"
   xmlns:cc="http://creativecommons.org/ns#"
   xmlns:rdf="http://www.w3.org/1999/02/22-rdf-syntax-ns#"
   xmlns:svg="http://www.w3.org/2000/svg"
   xmlns="http://www.w3.org/2000/svg"
   version="1.1"
   width="100%"
   height="100%"
   viewBox="0 0 14 14"
   id="svg2">
  <metadata
     id="metadata8">
    <rdf:RDF>
      <cc:Work
         rdf:about="">
        <dc:format>image/svg+xml</dc:format>
        <dc:type
           rdf:resource="http://purl.org/dc/dcmitype/StillImage" />
        <dc:title></dc:title>
      </cc:Work>
    </rdf:RDF>
  </metadata>
  <defs
     id="defs6" />
  <rect
     width="14"
     height="14"
     x="0"
     y="0"
     id="canvas"
     style="fill:none;stroke:none;visibility:hidden" />
  <path
     id="museum"
     d="M 7,1 C 5,1.6666667 3,2.3333333 1,3 1,3.3333333 1,3.6666667 1,4 5,4 9,4 13,4 13,3.6666667 13,3.3333333 13,3 11,2.3333333 9,1.6666667 7,1 Z M 1,5 c 0,0.3333333 0,0.6666667 0,1 0.3333333,0 0.6666667,0 1,0 0,1.6666667 0,3.3333333 0,5 -0.3333333,0 -0.6666667,0 -1,0 -0.33333333,0.666667 -0.66666667,1.333333 -1,2 4.6666667,0 9.3333333,0 14,0 -0.333333,-0.666667 -0.666667,-1.333333 -1,-2 -0.333333,0 -0.666667,0 -1,0 0,-1.6666667 0,-3.3333333 0,-5 0.333333,0 0.666667,0 1,0 C 13,5.6666667 13,5.3333333 13,5 9,5 5,5 1,5 Z M 5,6 C 5.758406,6.0265121 6.140058,6.8876873 6,7.5539939 6,8.7026626 6,9.8513313 6,11 5.3333333,11 4.6666667,11 4,11 4.0273015,9.5778965 3.9437946,8.1469937 4.0442955,6.7304815 4.1762617,6.3257876 4.5689311,6.0080535 5,6 Z M 9,6 C 9.7360089,5.9997544 10.141674,6.8295365 10,7.4797751 10,8.6531834 10,9.8265917 10,11 9.3333333,11 8.6666667,11 8,11 8.0269689,9.5778196 7.9447981,8.1470332 8.0440634,6.7303215 8.174907,6.3249217 8.568452,6.0063568 9,6 Z"
     style="fill:#000000;fill-opacity:1;stroke:none" />
</svg>
