<?xml version="1.0" encoding="UTF-8" standalone="no"?>
<svg
   xmlns:dc="http://purl.org/dc/elements/1.1/"
   xmlns:cc="http://creativecommons.org/ns#"
   xmlns:rdf="http://www.w3.org/1999/02/22-rdf-syntax-ns#"
   xmlns:svg="http://www.w3.org/2000/svg"
   xmlns="http://www.w3.org/2000/svg"
   version="1.1"
   width="100%"
   height="100%"
   viewBox="0 0 14 14"
   id="svg2">
  <metadata
     id="metadata8">
    <rdf:RDF>
      <cc:Work
         rdf:about="">
        <dc:format>image/svg+xml</dc:format>
        <dc:type
           rdf:resource="http://purl.org/dc/dcmitype/StillImage" />
        <dc:title></dc:title>
      </cc:Work>
    </rdf:RDF>
  </metadata>
  <defs
     id="defs6" />
  <rect
     width="14"
     height="14"
     x="0"
     y="0"
     id="canvas"
     style="fill:none;stroke:none;visibility:hidden" />
  <path
     id="post-office"
     d="M 0,2 C 0,2.3333333 0,2.6666667 0,3 2.3333333,4.3333333 4.6666667,5.6666667 7,7 9.3333333,5.6666667 11.666667,4.3333333 14,3 14,2.6666667 14,2.3333333 14,2 9.3333333,2 4.6666667,2 0,2 Z m 0,3 c 0,2.3333333 0,4.6666667 0,7 4.6666667,0 9.3333333,0 14,0 C 14,9.6666667 14,7.3333333 14,5 11.666667,6.3333333 9.3333333,7.6666667 7,9 4.6666667,7.6666667 2.3333333,6.3333333 0,5 Z"
     style="fill:#000000;fill-opacity:1;stroke:none" />
</svg>
