<?xml version="1.0" encoding="UTF-8" standalone="no"?>
<!-- Created with Inkscape (http://www.inkscape.org/) -->

<svg
   xmlns:dc="http://purl.org/dc/elements/1.1/"
   xmlns:cc="http://creativecommons.org/ns#"
   xmlns:rdf="http://www.w3.org/1999/02/22-rdf-syntax-ns#"
   xmlns:svg="http://www.w3.org/2000/svg"
   xmlns="http://www.w3.org/2000/svg"
   version="1.1"
   width="100%"
   height="100%"
   viewBox="0 0 14 14"
   id="svg2">
  <metadata
     id="metadata8">
    <rdf:RDF>
      <cc:Work
         rdf:about="">
        <dc:format>image/svg+xml</dc:format>
        <dc:type
           rdf:resource="http://purl.org/dc/dcmitype/StillImage" />
        <dc:title></dc:title>
      </cc:Work>
    </rdf:RDF>
  </metadata>
  <defs
     id="defs6" />
  <rect
     width="14"
     height="14"
     x="0"
     y="0"
     id="canvas"
     style="fill:none;stroke:none;visibility:hidden" />
  <path
     d="m 13,2.9994484 0,1.6 -3.572,0 L 9.5,6.5 C 12.352262,6.49361 12.934087,7.9676811 12.945274,8.9994484 12.963721,10.700714 11.699261,11.967156 10,11.999448 8.5459337,12.027081 7.3602845,10.994309 7.5,8.9994484 l 1.5,0 c 0,0 -0.1829331,1.5754216 1,1.4999996 1.125227,-0.07174 1.310377,-0.8830369 1.298084,-1.4999996 C 11.274506,7.8161164 9.7258514,7.6643816 7.5,7.654301 7.457615,6.791172 7.5,2.9994484 7.5,2.9994484 M 3,12 3,5 1,5 1,3 7,3 7,5 5,5 5,12 z"
     id="sac-tv"
     style="fill:#000000;fill-opacity:1;stroke:none" />
</svg>
