<?xml version="1.0" encoding="UTF-8" standalone="no"?>
<!-- Created with Inkscape (http://www.inkscape.org/) -->

<svg
   xmlns:dc="http://purl.org/dc/elements/1.1/"
   xmlns:cc="http://creativecommons.org/ns#"
   xmlns:rdf="http://www.w3.org/1999/02/22-rdf-syntax-ns#"
   xmlns:svg="http://www.w3.org/2000/svg"
   xmlns="http://www.w3.org/2000/svg"
   version="1.1"
   width="100%"
   height="100%"
   viewBox="0 0 14 14"
   id="svg2">
  <metadata
     id="metadata8">
    <rdf:RDF>
      <cc:Work
         rdf:about="">
        <dc:format>image/svg+xml</dc:format>
        <dc:type
           rdf:resource="http://purl.org/dc/dcmitype/StillImage" />
        <dc:title></dc:title>
      </cc:Work>
    </rdf:RDF>
  </metadata>
  <defs
     id="defs6" />
  <rect
     width="14"
     height="14"
     x="0"
     y="0"
     id="canvas"
     style="fill:none;stroke:none;visibility:hidden" />
  <path
     d="m 9.3737113,8 c 0,0 2.0173567,0.01221 2.0444417,1.1292791 0.01526,0.6292781 -0.35139,1.2624559 -1.4275718,1.2361439 C 8.8690811,10.338003 9,9 9,9 L 7,9 c 0,0 0.1829509,3.000815 3.005155,3.005643 2.045177,0.0035 3.092758,-1.195594 3.094154,-2.2822174 0.0026,-2.0247652 -1.434195,-2.3363402 -1.434195,-2.3363402 0,0 1.380811,-0.4851216 1.352325,-1.892268 C 12.984179,3.8518501 11.754651,3.0285458 10,3 8.5859735,2.9769957 6.8602845,3.9830427 7,6 L 9,6 C 9,6 8.6814753,4.5457872 10,4.5 11.201775,4.4582671 11.414835,5.1955611 11.38829,5.8376289 11.339659,7.0139083 9.3835899,7 9.3835899,7 M 1,3 1,5 3,5 3,12 5,12 5,5 7,5 7,3 z"
     id="sac-tiii"
     style="fill:#000000;fill-opacity:1;stroke:none" />
</svg>
