<?xml version="1.0" encoding="UTF-8" standalone="no"?>
<svg
   xmlns:dc="http://purl.org/dc/elements/1.1/"
   xmlns:cc="http://creativecommons.org/ns#"
   xmlns:rdf="http://www.w3.org/1999/02/22-rdf-syntax-ns#"
   xmlns:svg="http://www.w3.org/2000/svg"
   xmlns="http://www.w3.org/2000/svg"
   id="svg2"
   viewBox="0 0 14 14"
   height="100%"
   width="100%"
   version="1.1">
  <metadata
     id="metadata8">
    <rdf:RDF>
      <cc:Work
         rdf:about="">
        <dc:format>image/svg+xml</dc:format>
        <dc:type
           rdf:resource="http://purl.org/dc/dcmitype/StillImage" />
        <dc:title></dc:title>
      </cc:Work>
    </rdf:RDF>
  </metadata>
  <defs
     id="defs6" />
  <rect
     style="fill:none;stroke:none;visibility:hidden"
     id="canvas"
     y="0"
     x="0"
     height="14"
     width="14" />
  <path
     id="sac-tv"
     d="M13.0 3.0C13.0 3.93339867081 13.0 4.4666993854 13.0 5.0C11.809333 5.0 10.618667 5.0 9.428 5.0C9.452 5.2333803186 9.476 5.86685869342 9.5 6.50033706823C10.590881 6.49724615767 11.854929 6.70562078662 12.535141 7.65217207354C13.410757 8.96052438608 12.826013 10.9271697526 11.439792 11.6320225529C10.381653 12.2072882955 8.8635177 12.1536685818 8.0683163 11.1604574546C7.5803369 10.5617948793 7.4438325 9.75275706436 7.5 9.0C8.0 9.0 8.5 9.0 9.0 9.0C8.9479008 9.5514240705 9.061128 10.3315092599 9.7020379 10.4798841662C10.351208 10.6054444708 11.123626 10.2391529204 11.24508 9.54550093352C11.380499 9.02786075911 11.295818 8.37327657785 10.767581 8.10892037995C9.8603412 7.64294843885 8.7998661 7.69777857837 7.8084591 7.65701017702C7.2179208 7.74488399133 7.5957346 6.85325543826 7.4817846 6.47288805055C7.479073 5.31523650173 7.4882532 4.157583453 7.5 3.0M3.0 12.0C3.0 9.66638070271 3.0 7.33319030136 3.0 5.0C2.3333333 5.0 1.6666667 5.0 1.0 5.0C1.0 4.33325158649 1.0 3.66662584324 1.0 3.0C3.0 3.0 5.0 3.0 7.0 3.0C7.0 3.66674841351 7.0 4.33337415676 7.0 5.0C6.3333333 5.0 5.6666667 5.0 5.0 5.0C5.0 7.33361929729 5.0 9.66680969864 5.0 12.0C4.3333333 12.0 3.6666667 12.0 3.0 12.0Z"
     style="fill:#000000;fill-opacity:1;stroke:none"
     transform="matrix(1.000000,0.000000,0.000000,1.000000,0.000000,0.000000)" />
</svg>
