<?xml version="1.0" encoding="UTF-8" standalone="no"?>
<svg
   xmlns:dc="http://purl.org/dc/elements/1.1/"
   xmlns:cc="http://creativecommons.org/ns#"
   xmlns:rdf="http://www.w3.org/1999/02/22-rdf-syntax-ns#"
   xmlns:svg="http://www.w3.org/2000/svg"
   xmlns="http://www.w3.org/2000/svg"
   version="1.1"
   width="100%"
   height="100%"
   viewBox="0 0 14 14"
   id="svg2">
  <metadata
     id="metadata8">
    <rdf:RDF>
      <cc:Work
         rdf:about="">
        <dc:format>image/svg+xml</dc:format>
        <dc:type
           rdf:resource="http://purl.org/dc/dcmitype/StillImage" />
        <dc:title></dc:title>
      </cc:Work>
    </rdf:RDF>
  </metadata>
  <defs
     id="defs6" />
  <rect
     width="14"
     height="14"
     x="0"
     y="0"
     id="canvas"
     style="fill:none;stroke:none;visibility:hidden" />
  <path
     id="trail-visibility-good"
     d="M 1,7 C 2.4411494,8.0915931 3.9658135,9.1272534 5.6773277,9.7442217 6.4244885,10.02103 7.2548933,10.090193 8.0192675,9.838707 9.6672121,9.3315082 11.125157,8.363679 12.515062,7.3678589 12.793909,7.1732828 13.200799,6.9638151 12.693297,6.764595 11.286137,5.7369588 9.8074754,4.7458112 8.1398744,4.1968384 7.383648,3.9331893 6.5521923,3.9471357 5.7994295,4.2157526 4.1019904,4.7931127 2.5960677,5.8109743 1.1660988,6.8710938 1.1104529,6.9136996 1.0549382,6.9564831 1,7 Z M 7,5 C 7.9390355,5.0493502 8.7590959,5.8370784 8.9730902,6.7327844 9.1258321,7.6481787 8.4132074,8.4967013 7.622875,8.8604988 6.8007131,9.2594411 5.8667866,8.7275292 5.3842203,8.0471329 4.9719381,7.5310766 4.8638803,6.7769021 5.224812,6.2034259 5.586628,5.5707005 6.2447392,5.0226979 7,5 Z"
     style="fill:#000000;fill-opacity:1;stroke:none" />
</svg>
