<?xml version="1.0" encoding="UTF-8" standalone="no"?>
<svg
   xmlns:dc="http://purl.org/dc/elements/1.1/"
   xmlns:cc="http://creativecommons.org/ns#"
   xmlns:rdf="http://www.w3.org/1999/02/22-rdf-syntax-ns#"
   xmlns:svg="http://www.w3.org/2000/svg"
   xmlns="http://www.w3.org/2000/svg"
   id="svg2"
   viewBox="0 0 14 14"
   height="100%"
   width="100%"
   version="1.1">
  <metadata
     id="metadata8">
    <rdf:RDF>
      <cc:Work
         rdf:about="">
        <dc:format>image/svg+xml</dc:format>
        <dc:type
           rdf:resource="http://purl.org/dc/dcmitype/StillImage" />
        <dc:title></dc:title>
      </cc:Work>
    </rdf:RDF>
  </metadata>
  <defs
     id="defs6" />
  <rect
     style="fill:none;stroke:none;visibility:hidden"
     id="canvas"
     y="0"
     x="0"
     height="14"
     width="14" />
  <path
     id="waterfall"
     d="M 0,1 C 0,1.4166667 0,1.8333333 0,2.25 0.8998813,2.2763465 1.9803231,2.2339128 2.6261708,2.9733233 3.1590241,3.7052672 2.9602272,4.6438037 3,5.4884265 2.9983579,6.4326247 2.924815,7.449985 3.4883499,8.2687988 3.9249991,8.9482434 4.6740228,9.4790797 5.5,9.5 4.6456359,8.5289839 4.4496427,7.1837091 4.5,5.9338622 4.4732452,5.1240385 4.5690213,4.3030714 4.414709,3.5033899 4.4266783,3.0489205 3.7532542,2.4159817 3.8354769,2.2515456 4.7185627,2.2298792 5.7142474,2.6919309 5.9149053,3.6259149 6.0683053,4.4127064 5.9738056,5.221521 6,6.0191807 5.9521408,6.9519015 6.1140345,7.9519103 6.7827759,8.6533203 7.1569424,9.1121446 8.030337,9.5773444 8.4570312,9.453125 7.6295757,8.4705439 7.4502505,7.1404772 7.5,5.8984786 7.4662106,4.9561913 7.6027612,3.990993 7.3348485,3.0728165 7.3173275,2.6992442 6.5636866,2.0661567 7.3102417,2.2764844 8.1482916,2.3443467 8.9054186,3.0079119 8.9743795,3.8657396 9.0533169,4.948107 8.9330265,6.0406586 9.0512161,7.1203613 9.2309006,8.3253849 10.239925,9.4527149 11.5,9.5 10.645636,8.5289839 10.449643,7.1837091 10.5,5.9338622 10.465249,4.9328048 10.613082,3.9034758 10.298752,2.934145 9.9514059,1.8115424 8.8136484,1.1504918 7.6943359,1.0428467 6.5222632,0.9588996 5.3441539,1.0174213 4.1693109,1 2.7795406,1 1.3897703,1 0,1 Z m 3,9.5 c -0.7595766,0.117787 -1.2460376,0.868574 -2,1 0,0.5 0,1 0,1.5 0.7603189,-0.115187 1.2529913,-0.852687 2,-1 0.7532466,0.133058 1.2404019,0.882351 2,1 0.7479365,-0.144875 1.2452134,-0.871763 2,-1 0.7541081,0.129896 1.2514244,0.856634 2,1 0.7541341,-0.129752 1.252175,-0.854909 2,-1 0.747825,0.145091 1.245866,0.870248 2,1 0,-0.5 0,-1 0,-1.5 -0.733889,-0.177138 -1.232711,-0.909785 -2,-1 -0.747847,0.145378 -1.2401452,0.883622 -2,1 -0.741753,-0.159043 -1.2457317,-0.871251 -2,-1 -0.754266,0.128778 -1.2580435,0.841424 -2,1 -0.7445992,-0.144693 -1.2430574,-0.885369 -2,-1 z"
     style="color:#000000;display:inline;overflow:visible;visibility:visible;fill:#000000;fill-opacity:1;fill-rule:nonzero;stroke:none;stroke-width:2;marker:none;enable-background:accumulate" />
</svg>
