<?xml version="1.0" encoding="UTF-8" standalone="no"?>
<!-- Created with Inkscape (http://www.inkscape.org/) -->

<svg
   xmlns:dc="http://purl.org/dc/elements/1.1/"
   xmlns:cc="http://creativecommons.org/ns#"
   xmlns:rdf="http://www.w3.org/1999/02/22-rdf-syntax-ns#"
   xmlns:svg="http://www.w3.org/2000/svg"
   xmlns="http://www.w3.org/2000/svg"
   version="1.1"
   width="100%"
   height="100%"
   viewBox="0 0 32 32"
   id="svg2">
  <metadata
     id="metadata8">
    <rdf:RDF>
      <cc:Work
         rdf:about="">
        <dc:format>image/svg+xml</dc:format>
        <dc:type
           rdf:resource="http://purl.org/dc/dcmitype/StillImage" />
        <dc:title></dc:title>
      </cc:Work>
    </rdf:RDF>
  </metadata>
  <defs
     id="defs6" />
  <rect
     width="32"
     height="32"
     x="0"
     y="0"
     id="canvas"
     style="fill:none;stroke:none;visibility:hidden" />
  <path
     d="M 7,0 C 5.999999,0 6,1 6,1 L 6,4 2,4 2,6 6,6 6,14 8,14 8,6 12,6 12,4 8,4 8,1 c 0,0 10e-7,-1 -1,-1 z m 16.125,16.125 c -1.000001,0 -1,1 -1,1 l 0,3 -4,0 0,2 4,0 0,8 2,0 0,-8 4,0 0,-2 -4,0 0,-3 c 0,0 1e-6,-1 -1,-1 z"
     id="cemetery-christian"
     style="fill:#000000;fill-opacity:1;stroke:none" />
</svg>
