<?xml version="1.0" encoding="UTF-8" standalone="no"?>
<svg
   xmlns:dc="http://purl.org/dc/elements/1.1/"
   xmlns:cc="http://creativecommons.org/ns#"
   xmlns:rdf="http://www.w3.org/1999/02/22-rdf-syntax-ns#"
   xmlns:svg="http://www.w3.org/2000/svg"
   xmlns="http://www.w3.org/2000/svg"
   id="svg2"
   viewBox="0 0 14 14"
   height="100%"
   width="100%"
   version="1.1">
  <metadata
     id="metadata8">
    <rdf:RDF>
      <cc:Work
         rdf:about="">
        <dc:format>image/svg+xml</dc:format>
        <dc:type
           rdf:resource="http://purl.org/dc/dcmitype/StillImage" />
        <dc:title></dc:title>
      </cc:Work>
    </rdf:RDF>
  </metadata>
  <defs
     id="defs6" />
  <rect
     style="fill:none;stroke:none;visibility:hidden"
     id="canvas"
     y="0"
     x="0"
     height="14"
     width="14" />
  <path
     id="dog-park"
     d="M 4.939089,0.12499997 C 4.0492984,0.08963904 3.5458621,1.0213318 3.5161761,1.8037385 3.4119601,2.6712031 3.744882,3.7277096 4.6565854,4.0142458 5.4389502,4.2592182 6.081676,3.4838365 6.2567567,2.8013172 6.4874978,1.9015748 6.272099,0.74622499 5.4212979,0.24412448 5.2730013,0.16708593 5.1064595,0.12447187 4.939089,0.12499997 Z m 3.96875,0 C 7.9892656,0.16299729 7.5449382,1.1705545 7.5053816,1.9751466 7.4454703,2.7966544 7.8308286,3.7694671 8.6678656,4.0381581 9.5920602,4.1967487 10.301803,3.2491018 10.327601,2.400702 10.409721,1.5662032 10.184462,0.45652705 9.2760064,0.17352372 9.1563916,0.13993721 9.0319418,0.12494587 8.907839,0.12499997 Z M 0.87500002,3.21875 C 0.30489787,3.9175525 0.47918173,5.0066572 0.99689314,5.6869766 1.4152316,6.3746725 2.4690785,6.3019988 2.8619376,5.6292131 3.4573502,4.7629767 3.2628349,3.3057358 2.205571,2.8969689 1.7430774,2.6641856 1.2045199,2.8487949 0.87500002,3.21875 Z M 11.4375,3.09375 C 10.886077,3.5541492 10.791142,4.3785888 10.897092,5.051688 11.008175,5.8165442 11.887761,6.4577441 12.625,6.0625 13.485722,5.4799016 13.778913,4.135664 13.176742,3.275292 12.732879,2.805337 11.974629,2.7589376 11.4375,3.09375 Z M 7,4.5 C 6.0834332,4.5012006 5.6313139,5.4286147 5.1607384,6.0680327 4.6794556,6.8654389 3.8344613,7.2869597 3.1198029,7.8334227 2.5758225,8.2144745 2.3969519,8.911091 2.5361543,9.5384214 c 0.068678,0.8344236 0.7110123,1.5361246 1.5189304,1.7240286 1.3264895,0.341875 2.7141254,0.214951 4.0695353,0.227104 1.0150894,-0.04779 2.226459,-0.07501 2.931631,-0.924239 C 11.454539,10.02047 11.59916,9.2679899 11.426299,8.6183662 10.894453,7.5725797 9.5098595,7.4198143 8.8834261,6.4483533 8.3940707,5.8491046 8.2274805,4.9383179 7.4780474,4.5856109 7.3267771,4.524266 7.1626116,4.4997909 7,4.5 Z"
     style="fill:#1a1a1a;fill-opacity:1;stroke:none" />
</svg>
