<?xml version="1.0" encoding="UTF-8" standalone="no"?>
<!-- Created with Inkscape (http://www.inkscape.org/) -->

<svg
   xmlns:dc="http://purl.org/dc/elements/1.1/"
   xmlns:cc="http://creativecommons.org/ns#"
   xmlns:rdf="http://www.w3.org/1999/02/22-rdf-syntax-ns#"
   xmlns:svg="http://www.w3.org/2000/svg"
   xmlns="http://www.w3.org/2000/svg"
   version="1.1"
   width="100%"
   height="100%"
   viewBox="0 0 32 32"
   id="svg2">
  <metadata
     id="metadata8">
    <rdf:RDF>
      <cc:Work
         rdf:about="">
        <dc:format>image/svg+xml</dc:format>
        <dc:type
           rdf:resource="http://purl.org/dc/dcmitype/StillImage" />
        <dc:title></dc:title>
      </cc:Work>
    </rdf:RDF>
  </metadata>
  <defs
     id="defs6" />
  <rect
     width="32"
     height="32"
     x="0"
     y="0"
     id="canvas"
     style="fill:none;stroke:none;visibility:hidden" />
  <path
     d="m 20.480343,26.332068 c -0.503088,0.697988 -0.189723,2.457745 0.864407,2.457745 1.05413,0 2.85902,-1.217384 2.355932,-1.915372 -0.503088,-0.697988 -2.717251,-1.240361 -3.220339,-0.542373 z M 31,23.658704 c -0.520788,0.916455 1,3.041237 1,3.041237 l 0,-3 c 0,0 -0.846334,-0.311651 -1,-0.04124 z m -31,0.04124 0,3 c 0,0 1.1214934,2.679867 0.99999997,-2.628866 C 0.99237344,23.737829 0,23.699941 0,23.699944 z M 17.369387,4.2324349 c -0.71803,0.9962024 -0.0619,3.4416762 1.164948,3.4949634 1.268275,0.055087 2.209908,-2.4338795 1.513018,-3.4949634 -0.490033,-0.746124 -2.156018,-0.724157 -2.677966,0 z M 30.546392,1.8463328 C 29.087998,8.997646 32,5.299941 32,5.299941 l 0,-3 c 0,0 -1.352183,-0.9509516 -1.453608,-0.4536082 z M 0,2.299941 l 0,3 c 0,0 1.3532559,-1.2720124 1.2061856,-2.0515464 C 1.1113615,2.7457877 0,2.299941 0,2.299941 z m 11.004193,11.089247 c -0.498941,0.733093 -0.277393,2.424815 0.59322,2.593338 1.195587,0.231428 2.728648,-1.966495 2.084746,-3.000118 -0.477406,-0.766356 -2.169954,-0.33964 -2.677966,0.40678 z m 19.95457,0.02312 C 28.818738,17.606849 32,15.999941 32,15.999941 l 0,-3 c 0,0 -0.871583,0.07984 -1.041237,0.412371 z M 2e-8,12.999941 l 0,3 c 0,0 3.46665268,-0.562993 1.08247418,-3 -0.25233069,-0.257922 -1.08247418,0 -1.08247418,0 z"
     id="scree"
     style="fill:#000000;fill-opacity:1;stroke:none" />
</svg>
