<?xml version="1.0" encoding="UTF-8" standalone="no"?>
<svg
   xmlns:dc="http://purl.org/dc/elements/1.1/"
   xmlns:cc="http://creativecommons.org/ns#"
   xmlns:rdf="http://www.w3.org/1999/02/22-rdf-syntax-ns#"
   xmlns:svg="http://www.w3.org/2000/svg"
   xmlns="http://www.w3.org/2000/svg"
   id="svg2"
   viewBox="0 0 32 32"
   height="100%"
   width="100%"
   version="1.1">
  <metadata
     id="metadata8">
    <rdf:RDF>
      <cc:Work
         rdf:about="">
        <dc:format>image/svg+xml</dc:format>
        <dc:type
           rdf:resource="http://purl.org/dc/dcmitype/StillImage" />
        <dc:title></dc:title>
      </cc:Work>
    </rdf:RDF>
  </metadata>
  <defs
     id="defs6" />
  <rect
     style="fill:none;stroke:none;visibility:hidden"
     id="canvas"
     y="0"
     x="0"
     height="32"
     width="32" />
  <path
     style="fill:#000000;fill-opacity:1;stroke:none"
     id="scrub"
     d="m 7.3807932,1.5833885 0,7.9999999 -3.7714844,-3.7988281 -0.7285156,0.7988281 4,4.0000006 -4,0 0,1 10.0000008,0 0,-1 -4.0000008,0 4.0000008,-4.0000006 -0.761719,-0.7988281 -3.7382818,3.7988281 0,-7.9999999 z m 11.2058378,17.4791775 0,8 -3.771484,-3.800781 -0.728516,0.800781 4,4 -4,0 0,1 10,0 0,-1 -4,0 4,-4 -0.761718,-0.800781 -3.738282,3.800781 0,-8 z" />
</svg>
