<?xml version="1.0" encoding="UTF-8" standalone="no"?>
<!-- Created with Inkscape (http://www.inkscape.org/) -->

<svg
   xmlns:dc="http://purl.org/dc/elements/1.1/"
   xmlns:cc="http://creativecommons.org/ns#"
   xmlns:rdf="http://www.w3.org/1999/02/22-rdf-syntax-ns#"
   xmlns:svg="http://www.w3.org/2000/svg"
   xmlns="http://www.w3.org/2000/svg"
   xmlns:sodipodi="http://sodipodi.sourceforge.net/DTD/sodipodi-0.dtd"
   xmlns:inkscape="http://www.inkscape.org/namespaces/inkscape"
   width="210mm"
   height="297mm"
   viewBox="0 0 744.09448819 1052.3622047"
   id="svg2"
   version="1.1"
   inkscape:version="0.91 r13725"
   sodipodi:docname="paw.svg">
  <defs
     id="defs4" />
  <sodipodi:namedview
     id="base"
     pagecolor="#ffffff"
     bordercolor="#666666"
     borderopacity="1.0"
     inkscape:pageopacity="0.0"
     inkscape:pageshadow="2"
     inkscape:zoom="1.4"
     inkscape:cx="219.06385"
     inkscape:cy="510.7097"
     inkscape:document-units="px"
     inkscape:current-layer="layer1"
     showgrid="false"
     inkscape:window-width="1920"
     inkscape:window-height="1136"
     inkscape:window-x="0"
     inkscape:window-y="27"
     inkscape:window-maximized="1" />
  <metadata
     id="metadata7">
    <rdf:RDF>
      <cc:Work
         rdf:about="">
        <dc:format>image/svg+xml</dc:format>
        <dc:type
           rdf:resource="http://purl.org/dc/dcmitype/StillImage" />
        <dc:title></dc:title>
      </cc:Work>
    </rdf:RDF>
  </metadata>
  <g
     inkscape:label="Vrstva 1"
     inkscape:groupmode="layer"
     id="layer1">
    <path
       style="fill:#000000;fill-rule:evenodd;stroke:#000000;stroke-width:1px;stroke-linecap:butt;stroke-linejoin:miter;stroke-opacity:1"
       d="m 320.90055,333.94814 c -7.13716,19.08691 -2.9434,48.89788 14.53102,59.38092 17.70195,10.61955 46.74695,0.49752 60.00227,-15.32747 21.90289,-26.14899 37.23816,-85.25907 7.54796,-102.05187 -29.16036,-16.49312 -70.34755,26.61896 -82.08125,57.99842 z"
       id="path3336"
       inkscape:connector-curvature="0"
       sodipodi:nodetypes="aaaaa"
       inkscape:export-xdpi="15.124231"
       inkscape:export-ydpi="15.124231" />
    <path
       style="fill:#000000;fill-rule:evenodd;stroke:#000000;stroke-width:1px;stroke-linecap:butt;stroke-linejoin:miter;stroke-opacity:1"
       d="m 420.34574,382.62607 c -12.95345,15.73079 -18.67682,45.28623 -5.55849,60.87978 13.28914,15.7966 44.04708,15.66464 61.72626,5.00724 29.21284,-17.61012 62.92797,-68.52636 40.30797,-94.05755 -22.21632,-25.07558 -75.17989,2.30865 -96.47574,28.17053 z"
       id="path3336-3"
       inkscape:connector-curvature="0"
       sodipodi:nodetypes="aaaaa"
       inkscape:export-xdpi="15.124231"
       inkscape:export-ydpi="15.124231" />
    <path
       style="fill:#000000;fill-rule:evenodd;stroke:#000000;stroke-width:1px;stroke-linecap:butt;stroke-linejoin:miter;stroke-opacity:1"
       d="m 446.13106,489.64766 c -17.36377,10.66531 -32.38443,36.7548 -25.04794,55.76599 7.43201,19.25874 36.56218,29.13302 56.74569,24.80181 33.35096,-7.15683 81.78711,-44.34703 68.69569,-75.84496 -12.8578,-30.93586 -71.84689,-22.25694 -100.39344,-4.72284 z"
       id="path3336-3-6"
       inkscape:connector-curvature="0"
       sodipodi:nodetypes="aaaaa"
       inkscape:export-xdpi="15.124231"
       inkscape:export-ydpi="15.124231" />
    <path
       style="fill:#000000;fill-rule:evenodd;stroke:#000000;stroke-width:1px;stroke-linecap:butt;stroke-linejoin:miter;stroke-opacity:1"
       d="m 202.29406,377.26858 c -1.23153,20.34042 11.5127,47.61434 31.29172,52.51737 20.03656,4.96689 44.84117,-13.221 52.87808,-32.23526 13.28009,-31.41888 10.62329,-92.42801 -22.68414,-99.7847 -32.71304,-7.22542 -59.46097,46.06233 -61.48566,79.50259 z"
       id="path3336-7"
       inkscape:connector-curvature="0"
       sodipodi:nodetypes="aaaaa"
       inkscape:export-xdpi="15.124231"
       inkscape:export-ydpi="15.124231" />
    <path
       style="fill:#000000;fill-rule:evenodd;stroke:#000000;stroke-width:1px;stroke-linecap:butt;stroke-linejoin:miter;stroke-opacity:1"
       d="m 192.14286,480.93364 c 42.44136,-49.28274 133.36824,-61.99145 168.57143,-35 35.20319,26.99145 51.57205,132.8216 13.57143,187.14285 -41.0022,58.61196 -59.85869,-33.24611 -105,-68.57142 -45.1413,-35.32532 -140.04385,-10.53103 -77.14286,-83.57143 z"
       id="path3383"
       inkscape:connector-curvature="0"
       sodipodi:nodetypes="szszs"
       inkscape:export-xdpi="15.124231"
       inkscape:export-ydpi="15.124231" />
  </g>
</svg>
