<?xml version='1.0' encoding='utf-8'?>
<svg xmlns:dc="http://purl.org/dc/elements/1.1/" xmlns:cc="http://creativecommons.org/ns#" xmlns:rdf="http://www.w3.org/1999/02/22-rdf-syntax-ns#" xmlns="http://www.w3.org/2000/svg" version="1.1" width="100%" height="100%" viewBox="0 0 16 16" id="svg2">
  <metadata id="metadata8">
    <rdf:RDF>
      <cc:Work rdf:about="">
        <dc:format>image/svg+xml</dc:format>
        <dc:type rdf:resource="http://purl.org/dc/dcmitype/StillImage"/>
        <dc:title/>
      </cc:Work>
    </rdf:RDF>
  </metadata>
  <defs id="defs6"/>
  <rect width="16" height="16" x="0" y="0" id="canvas" style="fill:none;stroke:none;visibility:hidden"/>
  <path id="adit" d="M 14,7 C 14.034327,4.4140409 12.48209,1.9034441 10.167606,0.75740813 7.8129245,-0.47123061 4.7726111,-0.17791865 2.6966939,1.4790756 1.0084855,2.7775042 -0.01718096,4.8689069 0,7 M 1,7 C 0.96998471,4.6897074 2.4390063,2.4586029 4.5651912,1.560007 6.7805681,0.57205126 9.5741261,1.0668193 11.271028,2.8151336 12.370866,3.9111685 13.007341,5.4466336 13,7 M 0,8 C 0,8.3333333 0,8.6666667 0,9 4.6666667,9 9.3333333,9 14,9 14,8.6666667 14,8.3333333 14,8 9.3333333,8 4.6666667,8 0,8 Z" style="fill:#734a08;fill-opacity:1" transform="translate(1,1)"/>
</svg>
