<?xml version='1.0' encoding='utf-8'?>
<svg xmlns:dc="http://purl.org/dc/elements/1.1/" xmlns:cc="http://creativecommons.org/ns#" xmlns:rdf="http://www.w3.org/1999/02/22-rdf-syntax-ns#" xmlns="http://www.w3.org/2000/svg" id="svg2" viewBox="0 0 16 16" height="100%" width="100%" version="1.1">
  <metadata id="metadata8">
    <rdf:RDF>
      <cc:Work rdf:about="">
        <dc:format>image/svg+xml</dc:format>
        <dc:type rdf:resource="http://purl.org/dc/dcmitype/StillImage"/>
        <dc:title/>
      </cc:Work>
    </rdf:RDF>
  </metadata>
  <defs id="defs6"/>
  <rect style="fill:none;stroke:none;visibility:hidden" id="canvas" y="0" x="0" height="16" width="16"/>
  <path style="fill:#734a08;fill-opacity:1" id="artwork" d="M 7,0 C 5.895431,0 5,0.895431 5,2 5,3.104569 5.895431,4 7,4 8.104569,4 9,3.104569 9,2 9,0.895431 8.104569,0 7,0 Z M 3,5 c 0.00708,1.0274091 1.8802356,1.0771657 2,2 l 1,5 -1,0 0,1 -2,0 0,1 8,0 0,-1 -2,0 0,-1 -1,0 1,-5 C 9.1672025,6.2307904 11,6.0036924 11,5 11,3.9963076 2.992918,3.9725909 3,5 Z" transform="translate(1.0,1.0)"/>
</svg>
