<?xml version='1.0' encoding='utf-8'?>
<svg xmlns:dc="http://purl.org/dc/elements/1.1/" xmlns:cc="http://creativecommons.org/ns#" xmlns:rdf="http://www.w3.org/1999/02/22-rdf-syntax-ns#" xmlns="http://www.w3.org/2000/svg" id="svg2" viewBox="0 0 18 18" height="100%" width="100%" version="1.1">
  <metadata id="metadata8">
    <rdf:RDF>
      <cc:Work rdf:about="">
        <dc:format>image/svg+xml</dc:format>
        <dc:type rdf:resource="http://purl.org/dc/dcmitype/StillImage"/>
        <dc:title/>
      </cc:Work>
    </rdf:RDF>
  </metadata>
  <defs id="defs6"/>
  <rect style="fill:none;stroke:none;visibility:hidden" id="canvas" y="0" x="0" height="18" width="18"/>
  <path id="halo" d="M 6.9570312,2.9140625 C 6.310423,2.9766566 5.8255187,3.7344238 5.9737207,4.3522285 6.2886782,4.9104032 7.1118736,4.9709769 7.6397549,4.6961087 8.1700834,4.4423436 7.9816969,3.7309853 7.6863446,3.3609926 7.5116672,3.1305085 7.2593958,2.9211544 6.9570312,2.9140625 Z M 5.0136719,4.5371094 C 4.3265206,4.4998083 3.8501397,5.0605932 3.2799924,5.347573 2.4988313,5.8503256 1.61986,6.2694621 1.0210681,6.9993747 0.76633206,7.5759403 1.3478182,8.1528139 1.665893,8.5906435 2.0173224,8.9924098 2.6969109,9.552861 3.1991584,9.0604776 4.184563,8.1924306 5.0632138,7.1712123 5.6690816,6.0009932 5.958123,5.5277055 6.0218404,4.7365369 5.3280174,4.5944695 5.2266296,4.5606191 5.1203944,4.5418262 5.0136719,4.5371094 Z m 3.8105469,0.044922 C 8.2203374,4.635334 8.004478,5.3002903 8.3383178,5.7621237 8.9748859,6.9801083 9.9378605,7.9839737 10.847656,9 11.355129,9.3261417 11.903762,8.7992372 12.263833,8.4747785 12.627084,8.0363995 13.23346,7.5805095 13.142874,6.9507844 12.853933,6.2416115 12.093653,5.8969208 11.464749,5.5436109 10.71666,5.175422 9.9434697,4.8466173 9.1541655,4.5830724 9.0452964,4.5642958 8.9331537,4.5629406 8.8242188,4.5820314 Z M 4.9101562,4.8242188 C 5.632611,4.7919241 5.8348766,5.6074765 5.4196561,6.0990303 4.7927231,7.1644368 3.8584557,7.9961321 3.0292969,8.8984375 2.4802014,9.1592872 1.9494424,8.6471382 1.6513855,8.2332713 1.3797356,7.8273641 0.96877752,7.1747761 1.4885535,6.783659 2.3246185,6.0220515 3.3942669,5.592133 4.3109033,4.9451395 4.4934797,4.8437424 4.7045005,4.8179865 4.9101562,4.8242188 Z m 4.0262513,0.025391 C 9.446503,4.7300961 9.8969394,5.0942921 10.36121,5.2470855 11.2,5.6453757 12.121503,6.0364039 12.686117,6.8081015 13.076211,7.3407965 12.585483,7.9152989 12.214495,8.288833 11.873271,8.6358547 11.272645,8.9808561 10.826172,8.6132821 10.020394,7.7114792 9.1293346,6.8476407 8.5715701,5.7613364 8.3299149,5.3871904 8.5532956,4.9863355 8.9364075,4.8496098 Z M 7,5.1914062 C 6.3275749,5.2844306 5.9652215,5.9631306 5.6541176,6.4947247 5.1087497,7.5894106 4.7114743,8.8402908 4.898634,10.073377 5.1181931,11.04178 5.7315888,12.06118 6.734701,12.35381 7.6806427,12.560718 8.4932005,11.775117 8.9136372,11.010748 9.5717332,9.9322539 9.3141254,8.6001899 8.8871188,7.4901127 8.5533143,6.6863229 8.1488708,5.8361065 7.4142097,5.3248496 7.2895014,5.2492811 7.1479855,5.1915926 7,5.1914062 Z M 7.1342547,9.6607571 C 7.7530835,9.6866512 8.4372326,9.5588706 8.9978809,9.8773756 9.3250798,10.538487 8.2695141,10.41309 7.8801416,10.41518 7.0767335,10.384216 6.2667216,10.498827 5.4682106,10.394888 4.7701211,10.17728 5.4425499,9.6445118 5.8911083,9.7347254 6.3039421,9.6884418 6.7197925,9.6829731 7.1342547,9.6607571 Z M 5.9765625,10.970703 c 0.7398435,-0.0012 1.4821564,-0.0045 2.22183,0.01034 0.5682363,0.188188 -0.1183721,0.797243 -0.5105804,0.565415 -0.5933048,-0.04829 -1.1887925,0.02386 -1.7800343,0.007 -0.2678729,-0.08167 -0.2847095,-0.613416 0.068785,-0.582714 z" style="fill:#ffff00;stroke:#ffff00;stroke-width:2.0;opacity:0.7;" transform="translate(2.0,2.0)"/>
<path id="bee" d="M 6.9570312,2.9140625 C 6.310423,2.9766566 5.8255187,3.7344238 5.9737207,4.3522285 6.2886782,4.9104032 7.1118736,4.9709769 7.6397549,4.6961087 8.1700834,4.4423436 7.9816969,3.7309853 7.6863446,3.3609926 7.5116672,3.1305085 7.2593958,2.9211544 6.9570312,2.9140625 Z M 5.0136719,4.5371094 C 4.3265206,4.4998083 3.8501397,5.0605932 3.2799924,5.347573 2.4988313,5.8503256 1.61986,6.2694621 1.0210681,6.9993747 0.76633206,7.5759403 1.3478182,8.1528139 1.665893,8.5906435 2.0173224,8.9924098 2.6969109,9.552861 3.1991584,9.0604776 4.184563,8.1924306 5.0632138,7.1712123 5.6690816,6.0009932 5.958123,5.5277055 6.0218404,4.7365369 5.3280174,4.5944695 5.2266296,4.5606191 5.1203944,4.5418262 5.0136719,4.5371094 Z m 3.8105469,0.044922 C 8.2203374,4.635334 8.004478,5.3002903 8.3383178,5.7621237 8.9748859,6.9801083 9.9378605,7.9839737 10.847656,9 11.355129,9.3261417 11.903762,8.7992372 12.263833,8.4747785 12.627084,8.0363995 13.23346,7.5805095 13.142874,6.9507844 12.853933,6.2416115 12.093653,5.8969208 11.464749,5.5436109 10.71666,5.175422 9.9434697,4.8466173 9.1541655,4.5830724 9.0452964,4.5642958 8.9331537,4.5629406 8.8242188,4.5820314 Z M 4.9101562,4.8242188 C 5.632611,4.7919241 5.8348766,5.6074765 5.4196561,6.0990303 4.7927231,7.1644368 3.8584557,7.9961321 3.0292969,8.8984375 2.4802014,9.1592872 1.9494424,8.6471382 1.6513855,8.2332713 1.3797356,7.8273641 0.96877752,7.1747761 1.4885535,6.783659 2.3246185,6.0220515 3.3942669,5.592133 4.3109033,4.9451395 4.4934797,4.8437424 4.7045005,4.8179865 4.9101562,4.8242188 Z m 4.0262513,0.025391 C 9.446503,4.7300961 9.8969394,5.0942921 10.36121,5.2470855 11.2,5.6453757 12.121503,6.0364039 12.686117,6.8081015 13.076211,7.3407965 12.585483,7.9152989 12.214495,8.288833 11.873271,8.6358547 11.272645,8.9808561 10.826172,8.6132821 10.020394,7.7114792 9.1293346,6.8476407 8.5715701,5.7613364 8.3299149,5.3871904 8.5532956,4.9863355 8.9364075,4.8496098 Z M 7,5.1914062 C 6.3275749,5.2844306 5.9652215,5.9631306 5.6541176,6.4947247 5.1087497,7.5894106 4.7114743,8.8402908 4.898634,10.073377 5.1181931,11.04178 5.7315888,12.06118 6.734701,12.35381 7.6806427,12.560718 8.4932005,11.775117 8.9136372,11.010748 9.5717332,9.9322539 9.3141254,8.6001899 8.8871188,7.4901127 8.5533143,6.6863229 8.1488708,5.8361065 7.4142097,5.3248496 7.2895014,5.2492811 7.1479855,5.1915926 7,5.1914062 Z M 7.1342547,9.6607571 C 7.7530835,9.6866512 8.4372326,9.5588706 8.9978809,9.8773756 9.3250798,10.538487 8.2695141,10.41309 7.8801416,10.41518 7.0767335,10.384216 6.2667216,10.498827 5.4682106,10.394888 4.7701211,10.17728 5.4425499,9.6445118 5.8911083,9.7347254 6.3039421,9.6884418 6.7197925,9.6829731 7.1342547,9.6607571 Z M 5.9765625,10.970703 c 0.7398435,-0.0012 1.4821564,-0.0045 2.22183,0.01034 0.5682363,0.188188 -0.1183721,0.797243 -0.5105804,0.565415 -0.5933048,-0.04829 -1.1887925,0.02386 -1.7800343,0.007 -0.2678729,-0.08167 -0.2847095,-0.613416 0.068785,-0.582714 z" style="fill:#000000;fill-opacity:1" transform="translate(2.0,2.0)"/>
</svg>
