<?xml version='1.0' encoding='utf-8'?>
<svg xmlns:dc="http://purl.org/dc/elements/1.1/" xmlns:cc="http://creativecommons.org/ns#" xmlns:rdf="http://www.w3.org/1999/02/22-rdf-syntax-ns#" xmlns="http://www.w3.org/2000/svg" version="1.1" width="100%" height="100%" viewBox="0 0 18 18" id="svg2">
  <metadata id="metadata8">
    <rdf:RDF>
      <cc:Work rdf:about="">
        <dc:format>image/svg+xml</dc:format>
        <dc:type rdf:resource="http://purl.org/dc/dcmitype/StillImage"/>
        <dc:title/>
      </cc:Work>
    </rdf:RDF>
  </metadata>
  <defs id="defs6"/>
  <rect width="18" height="18" x="0" y="0" id="canvas" style="fill:none;stroke:none;visibility:hidden"/><rect x="1" y="1" width="16" height="16" rx="8" ry="8" id="shield" style="fill:#000000;fill-opacity:0.6;stroke:#ffff00;stroke-width:2.0;stroke-opacity:1;"/>
  <path style="fill:#ffff00;fill-opacity:1" d="M 6.9573029,2.9144763 C 6.3917689,2.9093573 5.8345378,3.7292943 5.9533421,4.2822322 6.0350292,4.6624196 6.580179,4.8511768 6.9690116,4.8561248 7.3422292,4.8608741 7.8712608,4.6933904 7.9575948,4.3302645 8.0912507,3.7680995 7.5351143,2.9197064 6.9573029,2.9144763 Z M 8.2517123,4.9169866 C 7.6816099,5.6157891 10.288821,8.3827735 10.848479,9.000173 11.45558,9.4991074 12.656241,8.1680231 13.0491,7.4952411 13.833273,6.335372 10.555653,5.1088399 9.4983887,4.700073 9.035895,4.4672897 8.5812323,4.5470315 8.2517123,4.9169866 Z M 4.1610029,4.7786467 C 3.60958,5.2390459 0.83003623,6.6087971 0.93598623,7.2818962 1.0470692,8.0467522 2.2832047,9.589813 3.0204437,9.194569 3.8811657,8.61197 6.3975484,5.7576402 5.7953774,4.8972682 5.3515144,4.4273132 4.6981319,4.4438343 4.1610029,4.7786467 Z M 7,5.1921257 C 5.9372672,5.1921451 4.6124215,8.2506481 4.8815774,9.9727203 5.0482381,11.039023 5.9548045,12.380485 7.0339977,12.391415 8.1387056,12.402603 9.1217589,11.053007 9.2870014,9.9606706 9.5506784,8.2176316 8.0627328,5.1921063 7,5.1921257 Z" id="bee" transform="translate(2,2)"/>
</svg>
