<?xml version='1.0' encoding='utf-8'?>
<svg xmlns:dc="http://purl.org/dc/elements/1.1/" xmlns:cc="http://creativecommons.org/ns#" xmlns:rdf="http://www.w3.org/1999/02/22-rdf-syntax-ns#" xmlns="http://www.w3.org/2000/svg" id="svg2" viewBox="0 0 16 16" height="100%" width="100%" version="1.1">
  <metadata id="metadata8">
    <rdf:RDF>
      <cc:Work rdf:about="">
        <dc:format>image/svg+xml</dc:format>
        <dc:type rdf:resource="http://purl.org/dc/dcmitype/StillImage"/>
        <dc:title/>
      </cc:Work>
    </rdf:RDF>
  </metadata>
  <defs id="defs6"/>
  <rect width="16" height="16" x="0" y="0" id="canvas" style="fill:none;stroke:none;visibility:hidden"/>
  <path style="fill:#0092da;fill-opacity:1" d="M5.0 0.0C5.3333333 1.0 5.6666667 2.0 6.0 3.0C4.0 6.6666667 2.0 10.333333 0.0 14.0C4.6666667 14.0 9.3333333 14.0 14.0 14.0C12.0 10.333333 10.0 6.6666667 8.0 3.0C8.3333333 2.0 8.6666667 1.0 9.0 0.0C8.6666667 0.0 8.3333333 0.0 8.0 0.0C7.6666667 0.66666667 7.3333333 1.3333333 7.0 2.0C6.6666667 1.3333333 6.3333333 0.66666667 6.0 0.0C5.6666667 0.0 5.3333333 0.0 5.0 0.0ZM7.0 7.0C8.0 9.0 9.0 11.0 10.0 13.0C8.0 13.0 6.0 13.0 4.0 13.0C5.0 11.0 6.0 9.0 7.0 7.0Z" id="camping" transform="translate(1,1)"/>
</svg>
