<?xml version='1.0' encoding='utf-8'?>
<svg xmlns:dc="http://purl.org/dc/elements/1.1/" xmlns:cc="http://creativecommons.org/ns#" xmlns:rdf="http://www.w3.org/1999/02/22-rdf-syntax-ns#" xmlns="http://www.w3.org/2000/svg" version="1.1" width="100%" height="100%" viewBox="0 0 18 18" id="svg2">
  <metadata id="metadata8">
    <rdf:RDF>
      <cc:Work rdf:about="">
        <dc:format>image/svg+xml</dc:format>
        <dc:type rdf:resource="http://purl.org/dc/dcmitype/StillImage"/>
        <dc:title/>
      </cc:Work>
    </rdf:RDF>
  </metadata>
  <defs id="defs6"/>
  <rect width="18" height="18" x="0" y="0" id="canvas" style="fill:none;stroke:none;visibility:hidden"/>
  <path d="M 7,9.6779661 C 5.7478707,9.6953411 5,10.492585 5,11.5 5,12.339627 5.7571226,13.350407 7,13.325089 8.2428774,13.299772 8.9895132,12.433371 9,11.5 9.011193,10.503771 8.2521293,9.6605911 7,9.6779661 z M 8.000001,1 l 0,3 L 12,4 l 0,2 -3.999999,0 1e-6,3 C 9.0734083,9.2831423 10.0222,10.247935 10,11.5 9.9778005,12.752065 8.719117,14.170646 7,14 5.2703962,14.196391 3.9841102,12.772246 4,11.5 4.0158898,10.227754 4.9685397,9.1468145 6,9 L 6,6 2,6 2,4 l 4,0 1e-6,-3 c 0,0 -2e-6,-1 0.999999,-1 1.000001,0 1.000001,1 1.000001,1 z" id="halo" style="fill:#ffffff;stroke:#ffffff;stroke-width:2.0;opacity:1.0;" transform="translate(2.0,2.0)"/>
<path d="M 7,9.6779661 C 5.7478707,9.6953411 5,10.492585 5,11.5 5,12.339627 5.7571226,13.350407 7,13.325089 8.2428774,13.299772 8.9895132,12.433371 9,11.5 9.011193,10.503771 8.2521293,9.6605911 7,9.6779661 z M 8.000001,1 l 0,3 L 12,4 l 0,2 -3.999999,0 1e-6,3 C 9.0734083,9.2831423 10.0222,10.247935 10,11.5 9.9778005,12.752065 8.719117,14.170646 7,14 5.2703962,14.196391 3.9841102,12.772246 4,11.5 4.0158898,10.227754 4.9685397,9.1468145 6,9 L 6,6 2,6 2,4 l 4,0 1e-6,-3 c 0,0 -2e-6,-1 0.999999,-1 1.000001,0 1.000001,1 1.000001,1 z" id="church" style="fill:#000000;fill-opacity:1" transform="translate(2.0,2.0)"/>
</svg>
