<?xml version='1.0' encoding='utf-8'?>
<svg xmlns:dc="http://purl.org/dc/elements/1.1/" xmlns:cc="http://creativecommons.org/ns#" xmlns:rdf="http://www.w3.org/1999/02/22-rdf-syntax-ns#" xmlns="http://www.w3.org/2000/svg" version="1.1" width="100%" height="100%" viewBox="0 0 18 18" id="svg2">
  <metadata id="metadata8">
    <rdf:RDF>
      <cc:Work rdf:about="">
        <dc:format>image/svg+xml</dc:format>
        <dc:type rdf:resource="http://purl.org/dc/dcmitype/StillImage"/>
        <dc:title/>
      </cc:Work>
    </rdf:RDF>
  </metadata>
  <defs id="defs6"/>
  <rect width="18" height="18" x="0" y="0" id="canvas" style="fill:none;stroke:none;visibility:hidden"/>
  <path d="M 7,5 C 7.942809,5 9,6.057191 9,7 9,7.942809 7.942809,9 7,9 6.057191,9 5,7.942809 5,7 5,6.057191 6.057191,5 7,5 Z m 0,4.5 c 0.942809,0 2,1.057191 2,2 0,0.942809 -1.057191,2 -2,2 -0.942809,0 -2,-1.057191 -2,-2 0,-0.942809 1.057191,-2 2,-2 z m 0,-9 c 0.942809,0 2,1.057191 2,2 0,0.942809 -1.057191,2 -2,2 -0.942809,0 -2,-1.057191 -2,-2 0,-0.942809 1.057191,-2 2,-2 z" id="halo" style="fill:#ffffff;stroke:#ffffff;stroke-width:2.0;opacity:1.0;" transform="translate(2.0,2.0)"/>
<path d="M 7,5 C 7.942809,5 9,6.057191 9,7 9,7.942809 7.942809,9 7,9 6.057191,9 5,7.942809 5,7 5,6.057191 6.057191,5 7,5 Z m 0,4.5 c 0.942809,0 2,1.057191 2,2 0,0.942809 -1.057191,2 -2,2 -0.942809,0 -2,-1.057191 -2,-2 0,-0.942809 1.057191,-2 2,-2 z m 0,-9 c 0.942809,0 2,1.057191 2,2 0,0.942809 -1.057191,2 -2,2 -0.942809,0 -2,-1.057191 -2,-2 0,-0.942809 1.057191,-2 2,-2 z" id="continue" style="fill:#000000;fill-opacity:1" transform="translate(2.0,2.0)"/>
</svg>
