<?xml version='1.0' encoding='utf-8'?>
<svg xmlns:dc="http://purl.org/dc/elements/1.1/" xmlns:cc="http://creativecommons.org/ns#" xmlns:rdf="http://www.w3.org/1999/02/22-rdf-syntax-ns#" xmlns="http://www.w3.org/2000/svg" id="svg2" viewBox="0 0 18 18" height="100%" width="100%" version="1.1">
  <metadata id="metadata8">
    <rdf:RDF>
      <cc:Work rdf:about="">
        <dc:format>image/svg+xml</dc:format>
        <dc:type rdf:resource="http://purl.org/dc/dcmitype/StillImage"/>
        <dc:title/>
      </cc:Work>
    </rdf:RDF>
  </metadata>
  <defs id="defs6"/>
  <rect style="fill:none;stroke:none;visibility:hidden" id="canvas" y="0" x="0" height="18" width="18"/>
  <path id="halo" d="M 2,8 C 1.1756083,8.8109616 0.61944697,10.202808 1.3078983,11.262524 1.5023217,11.540167 1.7661346,11.757222 2,12 3,11 4,10 5,9 5,8.5 5,8 5,7.5 5.8333333,6.6666667 6.6666667,5.8333333 7.5,5 8,5 8.5,5 9,5 10,4 11,3 12,2 11.530737,1.5440817 11.038514,1.0117564 10.330816,1.0042244 9.244667,0.93167566 8.3172535,1.617494 7.6195455,2.3804545 5.7463636,4.2536364 3.8731818,6.1268182 2,8 Z m 0.5451482,4.537558 c 0.1861942,0.171377 0.3252794,0.463905 0.6309218,0.35412 0.5144906,0.01165 0.9596055,-0.264172 1.2843059,-0.640545 C 4.848718,11.858757 5.2581567,11.48565 5.6329373,11.080888 5.8159788,10.6985 6.0671064,10.062072 5.7341381,9.7116764 5.5908895,9.4508421 5.445353,9.5366889 5.2990159,9.7438246 4.38106,10.675069 3.4631041,11.606314 2.5451482,12.537558 Z M 9.5530473,5.5203307 c 0.1871026,0.1755252 0.3283757,0.4543103 0.6347857,0.3822399 0.451718,0.050049 0.90028,-0.1183305 1.183991,-0.472783 0.413607,-0.4151928 0.843736,-0.8149454 1.246752,-1.2400368 0.195348,-0.4120505 0.450592,-1.091847 0.113721,-1.4740199 -0.143145,-0.2607314 -0.288903,-0.1751019 -0.435574,0.031703 -0.914559,0.924299 -1.829117,1.8485981 -2.7436757,2.7728971 z" style="fill:#ffffff;stroke:#ffffff;stroke-width:2.0;opacity:1.0;" transform="translate(2.0,2.0)"/>
<path id="emergency-phone" d="M 2,8 C 1.1756083,8.8109616 0.61944697,10.202808 1.3078983,11.262524 1.5023217,11.540167 1.7661346,11.757222 2,12 3,11 4,10 5,9 5,8.5 5,8 5,7.5 5.8333333,6.6666667 6.6666667,5.8333333 7.5,5 8,5 8.5,5 9,5 10,4 11,3 12,2 11.530737,1.5440817 11.038514,1.0117564 10.330816,1.0042244 9.244667,0.93167566 8.3172535,1.617494 7.6195455,2.3804545 5.7463636,4.2536364 3.8731818,6.1268182 2,8 Z m 0.5451482,4.537558 c 0.1861942,0.171377 0.3252794,0.463905 0.6309218,0.35412 0.5144906,0.01165 0.9596055,-0.264172 1.2843059,-0.640545 C 4.848718,11.858757 5.2581567,11.48565 5.6329373,11.080888 5.8159788,10.6985 6.0671064,10.062072 5.7341381,9.7116764 5.5908895,9.4508421 5.445353,9.5366889 5.2990159,9.7438246 4.38106,10.675069 3.4631041,11.606314 2.5451482,12.537558 Z M 9.5530473,5.5203307 c 0.1871026,0.1755252 0.3283757,0.4543103 0.6347857,0.3822399 0.451718,0.050049 0.90028,-0.1183305 1.183991,-0.472783 0.413607,-0.4151928 0.843736,-0.8149454 1.246752,-1.2400368 0.195348,-0.4120505 0.450592,-1.091847 0.113721,-1.4740199 -0.143145,-0.2607314 -0.288903,-0.1751019 -0.435574,0.031703 -0.914559,0.924299 -1.829117,1.8485981 -2.7436757,2.7728971 z" style="color:#000000;display:inline;overflow:visible;visibility:visible;fill:#ff0000;fill-opacity:1;stroke-width:1;marker:none;enable-background:accumulate" transform="translate(2.0,2.0)"/>
</svg>
