<?xml version='1.0' encoding='utf-8'?>
<svg xmlns:dc="http://purl.org/dc/elements/1.1/" xmlns:cc="http://creativecommons.org/ns#" xmlns:rdf="http://www.w3.org/1999/02/22-rdf-syntax-ns#" xmlns="http://www.w3.org/2000/svg" version="1.1" width="100%" height="100%" viewBox="0 0 16 16" id="svg2">
  <metadata id="metadata8">
    <rdf:RDF>
      <cc:Work rdf:about="">
        <dc:format>image/svg+xml</dc:format>
        <dc:type rdf:resource="http://purl.org/dc/dcmitype/StillImage"/>
        <dc:title/>
      </cc:Work>
    </rdf:RDF>
  </metadata>
  <defs id="defs6"/>
  <rect width="16" height="16" x="0" y="0" id="canvas" style="fill:none;stroke:none;visibility:hidden"/>
  <path d="M 2,3.25 C 0.82230833,3.8506797 1.3228408,5.1017226 2.5,4.5 L 6.9995257,2.2 11.5,4.5 C 12.692398,5.1093835 13.192837,3.8582892 12,3.25 L 6.9995257,0.7 z M 3,5 5,9 5,10 3,13 4.5,13 6,10.5 8,10.5 9.5,13 11,13 9,10 9,9 11,5 10.2,4.5 8,9 6,9 3.8,4.5 z" id="game-feeding" style="fill:#734a08;fill-opacity:1" transform="translate(1,1)"/>
</svg>
