<?xml version='1.0' encoding='utf-8'?>
<svg xmlns:dc="http://purl.org/dc/elements/1.1/" xmlns:cc="http://creativecommons.org/ns#" xmlns:rdf="http://www.w3.org/1999/02/22-rdf-syntax-ns#" xmlns="http://www.w3.org/2000/svg" version="1.1" width="100%" height="100%" viewBox="0 0 16 16" id="svg2">
  <metadata id="metadata8">
    <rdf:RDF>
      <cc:Work rdf:about="">
        <dc:format>image/svg+xml</dc:format>
        <dc:type rdf:resource="http://purl.org/dc/dcmitype/StillImage"/>
        <dc:title/>
      </cc:Work>
    </rdf:RDF>
  </metadata>
  <defs id="defs6"/>
  <rect width="16" height="16" x="0" y="0" id="canvas" style="fill:none;stroke:none;visibility:hidden"/>
  <path id="gate" d="M 8.2558594,1.5097656 C 7.7489841,1.5049661 7.3776452,1.922763 7.2581968,2.3829842 7.0380166,2.9206874 6.8178364,3.4583906 6.5976562,3.9960938 c -2.1992187,0 -4.3984375,0 -6.5976562,0 0,0.6666667 0,1.3333333 0,2 1.9257813,0 3.8515625,0 5.7773438,0 -0.2734375,0.6666667 -0.5468751,1.3333333 -0.8203126,2 -1.6523437,0 -3.3046875,0 -4.9570312,0 0,0.6666667 0,1.3333333 0,2 1.3789063,0 2.7578125,0 4.1367188,0 C 3.9274876,10.539148 3.6691294,11.066463 3.4960935,11.621094 3.3892426,12.28724 4.09873,12.983813 4.7573406,12.679211 5.3482874,12.448108 5.4209092,11.758604 5.6727462,11.255353 5.8449817,10.8356 6.0172173,10.415847 6.1894528,9.9960938 c 2.3274072,-0.0074 4.6560162,0.014854 6.9826662,-0.01123 0.929208,-0.076086 1.128979,-1.5372653 0.29004,-1.8964843 -0.555016,-0.1671275 -1.148921,-0.063277 -1.722912,-0.092285 -1.577145,0 -3.1542899,0 -4.7314348,0 0.2734375,-0.6666667 0.546875,-1.3333333 0.8203125,-2 1.781187,-0.0073 3.5635623,0.014721 5.3439943,-0.01123 0.929208,-0.076086 1.128979,-1.5372653 0.29004,-1.8964844 -0.555016,-0.1671274 -1.148921,-0.063277 -1.722912,-0.092285 -1.03027,0 -2.0605399,0 -3.0908098,0 C 8.8209714,3.5309713 9.063264,3.0859185 9.1782494,2.6049672 9.2364041,2.0687659 8.8344672,1.4795664 8.2558594,1.5097656 Z" style="fill:#734a08;fill-opacity:1" transform="translate(1.0,1.0)"/>
</svg>
