<?xml version='1.0' encoding='utf-8'?>
<svg xmlns:dc="http://purl.org/dc/elements/1.1/" xmlns:cc="http://creativecommons.org/ns#" xmlns:rdf="http://www.w3.org/1999/02/22-rdf-syntax-ns#" xmlns="http://www.w3.org/2000/svg" xmlns:sodipodi="http://sodipodi.sourceforge.net/DTD/sodipodi-0.dtd" xmlns:inkscape="http://www.inkscape.org/namespaces/inkscape" id="svg2" viewBox="0 0 18 18" height="100%" width="100%" version="1.1" inkscape:version="0.91 r13725" sodipodi:docname="gondola-14.svg">
  <sodipodi:namedview pagecolor="#ffffff" bordercolor="#666666" borderopacity="1" objecttolerance="10" gridtolerance="10" guidetolerance="10" inkscape:pageopacity="0" inkscape:pageshadow="2" inkscape:window-width="1680" inkscape:window-height="929" id="namedview7" showgrid="false" inkscape:zoom="47.6792" inkscape:cx="8.5320798" inkscape:cy="7.8437554" inkscape:window-x="0" inkscape:window-y="27" inkscape:window-maximized="0" inkscape:current-layer="svg2"/>
  <metadata id="metadata8">
    <rdf:RDF>
      <cc:Work rdf:about="">
        <dc:format>image/svg+xml</dc:format>
        <dc:type rdf:resource="http://purl.org/dc/dcmitype/StillImage"/>
        <dc:title/>
      </cc:Work>
    </rdf:RDF>
  </metadata>
  <defs id="defs6"/>
  <rect style="fill:none;stroke:none;visibility:hidden" id="canvas" y="0" x="0" height="18" width="18"/>
  <path style="fill:#ffffff;stroke:#ffffff;stroke-width:2.0;opacity:1.0;" id="halo" d="m 7.5,3.5 3.5,0 0,3 -3.5,0 z M 4,2 C 3,2 2,3 2,4 l 0,4 c 0,1 1.0000003,2.000743 2,2 4.8853134,-0.00363 1.3581331,0 6,0 1,0 2,-1 2,-2 L 12,4 C 12,3 10.975662,2 10,2 l -2.5,0 0,-2 -1,0 0,2 z m -1,1.5 3.5,0 0,3 -3.5,0 z" inkscape:connector-curvature="0" sodipodi:nodetypes="cccccssssssssccccsccccc" transform="translate(2.0,2.0)"/>
<path style="fill:#000000;fill-opacity:1" id="gondola" d="m 7.5,3.5 3.5,0 0,3 -3.5,0 z M 4,2 C 3,2 2,3 2,4 l 0,4 c 0,1 1.0000003,2.000743 2,2 4.8853134,-0.00363 1.3581331,0 6,0 1,0 2,-1 2,-2 L 12,4 C 12,3 10.975662,2 10,2 l -2.5,0 0,-2 -1,0 0,2 z m -1,1.5 3.5,0 0,3 -3.5,0 z" inkscape:connector-curvature="0" sodipodi:nodetypes="cccccssssssssccccsccccc" transform="translate(2.0,2.0)"/>
</svg>
