<?xml version='1.0' encoding='utf-8'?>
<svg xmlns:dc="http://purl.org/dc/elements/1.1/" xmlns:cc="http://creativecommons.org/ns#" xmlns:rdf="http://www.w3.org/1999/02/22-rdf-syntax-ns#" xmlns="http://www.w3.org/2000/svg" id="svg2" viewBox="0 0 18 18" height="100%" width="100%" version="1.1">
  <metadata id="metadata8">
    <rdf:RDF>
      <cc:Work rdf:about="">
        <dc:format>image/svg+xml</dc:format>
        <dc:type rdf:resource="http://purl.org/dc/dcmitype/StillImage"/>
        <dc:title/>
      </cc:Work>
    </rdf:RDF>
  </metadata>
  <defs id="defs6"/>
  <rect style="fill:none;stroke:none;visibility:hidden" id="canvas" y="0" x="0" height="18" width="18"/>
  <path id="halo" d="m 7.5,3.5 c 1.1666667,0 2.3333333,0 3.5,0 0,1 0,2 0,3 -1.1666667,0 -2.3333333,0 -3.5,0 0,-1 0,-2 0,-3 z M 4,2 c -1.1290348,0.02934 -2.1077302,1.1276598 -2,2.2545585 0.0073,1.3107686 -0.014832,2.6226609 0.011475,3.9327055 0.1503319,1.0777296 1.2257583,1.947166 2.3183741,1.8124926 1.9523429,-0.010037 3.9057804,0.015285 5.8574073,-0.011231 C 11.236672,9.8414363 12.100914,8.8126424 12,7.7454415 11.992525,6.4346818 12.015178,5.1227459 11.988258,3.8127441 11.832604,2.7569574 10.791148,1.8933617 9.7171573,2 8.9781048,2 8.2390524,2 7.5,2 c 0,-0.6666667 0,-1.33333333 0,-2 -0.3333333,0 -0.6666667,0 -1,0 0,0.66666667 0,1.3333333 0,2 C 5.6666667,2 4.8333333,2 4,2 Z M 3,3.5 c 1.1666667,0 2.3333333,0 3.5,0 0,1 0,2 0,3 -1.1666667,0 -2.3333333,0 -3.5,0 0,-1 0,-2 0,-3 z" style="fill:#ffffff;stroke:#ffffff;stroke-width:2.0;opacity:1.0;" transform="translate(2.0,2.0)"/>
<path id="gondola" d="m 7.5,3.5 c 1.1666667,0 2.3333333,0 3.5,0 0,1 0,2 0,3 -1.1666667,0 -2.3333333,0 -3.5,0 0,-1 0,-2 0,-3 z M 4,2 c -1.1290348,0.02934 -2.1077302,1.1276598 -2,2.2545585 0.0073,1.3107686 -0.014832,2.6226609 0.011475,3.9327055 0.1503319,1.0777296 1.2257583,1.947166 2.3183741,1.8124926 1.9523429,-0.010037 3.9057804,0.015285 5.8574073,-0.011231 C 11.236672,9.8414363 12.100914,8.8126424 12,7.7454415 11.992525,6.4346818 12.015178,5.1227459 11.988258,3.8127441 11.832604,2.7569574 10.791148,1.8933617 9.7171573,2 8.9781048,2 8.2390524,2 7.5,2 c 0,-0.6666667 0,-1.33333333 0,-2 -0.3333333,0 -0.6666667,0 -1,0 0,0.66666667 0,1.3333333 0,2 C 5.6666667,2 4.8333333,2 4,2 Z M 3,3.5 c 1.1666667,0 2.3333333,0 3.5,0 0,1 0,2 0,3 -1.1666667,0 -2.3333333,0 -3.5,0 0,-1 0,-2 0,-3 z" style="fill:#000000;fill-opacity:1" transform="translate(2.0,2.0)"/>
</svg>
