<?xml version='1.0' encoding='utf-8'?>
<svg xmlns:dc="http://purl.org/dc/elements/1.1/" xmlns:cc="http://creativecommons.org/ns#" xmlns:rdf="http://www.w3.org/1999/02/22-rdf-syntax-ns#" xmlns="http://www.w3.org/2000/svg" id="svg2" viewBox="0 0 16 16" height="100%" width="100%" version="1.1">
  <metadata id="metadata8">
    <rdf:RDF>
      <cc:Work rdf:about="">
        <dc:format>image/svg+xml</dc:format>
        <dc:type rdf:resource="http://purl.org/dc/dcmitype/StillImage"/>
        <dc:title/>
      </cc:Work>
    </rdf:RDF>
  </metadata>
  <defs id="defs6"/>
  <rect style="fill:none;stroke:none;visibility:hidden" id="canvas" y="0" x="0" height="16" width="16"/>
  <path id="guest-house" d="M 0.625,6 C 0.00168496,5.9837693 -0.02989317,6.6840904 0,7.1459798 L 0,12.5 l 1.25,0 0,-1.5 c 3.8333219,0.003 7.6667134,0.01882 11.5,0 l 0,1.5 1.25,0 C 13.9955,10.874423 14.009,9.2483666 13.9931,7.6231015 13.991719,6.6627949 12.493797,6.9335304 12.75,7.829196 l 0,1.920804 -11.5,0 C 1.2427574,8.69155 1.2647472,7.6318778 1.2385254,6.5742187 1.2169401,6.2566225 0.95482351,5.9781454 0.625,6 Z M 3.5,6 C 2.4074988,5.9501426 1.6167933,7.2779731 2.1810419,8.214989 2.6548745,9.189323 4.1785025,9.2630939 4.7438235,8.3386642 5.4273781,7.387463 4.6724157,5.9654391 3.5,6 Z m 2,1 0,2 6.5,0 C 11.96058,7.8521806 10.825796,6.8740582 9.6832161,7 Z M 7,1 1,3 1,5 7,3 13,5 13,3 Z" style="fill:#0092da" transform="translate(1.0,1.0)"/>
</svg>
