<?xml version='1.0' encoding='utf-8'?>
<svg xmlns:dc="http://purl.org/dc/elements/1.1/" xmlns:cc="http://creativecommons.org/ns#" xmlns:rdf="http://www.w3.org/1999/02/22-rdf-syntax-ns#" xmlns="http://www.w3.org/2000/svg" version="1.1" width="100%" height="100%" viewBox="0 0 18 18" id="svg2">
  <metadata id="metadata8">
    <rdf:RDF>
      <cc:Work rdf:about="">
        <dc:format>image/svg+xml</dc:format>
        <dc:type rdf:resource="http://purl.org/dc/dcmitype/StillImage"/>
        <dc:title/>
      </cc:Work>
    </rdf:RDF>
  </metadata>
  <defs id="defs6"/>
  <rect width="18" height="18" x="0" y="0" id="canvas" style="fill:none;stroke:none;visibility:hidden"/>
  <path id="halo" d="M 7 0.25 C 6.625 0.25 6.25 0.5 6.25 1 L 2 1 L 0 2.5 L 2 4 L 6.25 4 L 6.25 5.0078125 L 4 5.0078125 L 4 8.0078125 L 6.25 8.0078125 L 6.25 14 L 7.75 14 L 7.75 8.0078125 L 12 8.0078125 L 14 6.5078125 L 12 5.0078125 L 7.75 5.0078125 L 7.75 4 L 10 4 L 10 1 L 7.75 1 C 7.75 0.5 7.375 0.25 7 0.25 z " style="fill:#ffffff;stroke:#ffffff;stroke-width:2.0;opacity:1.0;" transform="translate(2.0,2.0)"/>
<path id="guidepost" d="M 7 0.25 C 6.625 0.25 6.25 0.5 6.25 1 L 2 1 L 0 2.5 L 2 4 L 6.25 4 L 6.25 5.0078125 L 4 5.0078125 L 4 8.0078125 L 6.25 8.0078125 L 6.25 14 L 7.75 14 L 7.75 8.0078125 L 12 8.0078125 L 14 6.5078125 L 12 5.0078125 L 7.75 5.0078125 L 7.75 4 L 10 4 L 10 1 L 7.75 1 C 7.75 0.5 7.375 0.25 7 0.25 z " style="fill:#000000;fill-opacity:1" transform="translate(2.0,2.0)"/>
</svg>
