<?xml version='1.0' encoding='utf-8'?>
<svg xmlns:dc="http://purl.org/dc/elements/1.1/" xmlns:cc="http://creativecommons.org/ns#" xmlns:rdf="http://www.w3.org/1999/02/22-rdf-syntax-ns#" xmlns="http://www.w3.org/2000/svg" version="1.1" width="100%" height="100%" viewBox="0 0 16 16" id="svg2">
  <metadata id="metadata8">
    <rdf:RDF>
      <cc:Work rdf:about="">
        <dc:format>image/svg+xml</dc:format>
        <dc:type rdf:resource="http://purl.org/dc/dcmitype/StillImage"/>
        <dc:title/>
      </cc:Work>
    </rdf:RDF>
  </metadata>
  <defs id="defs6"/>
  <rect width="16" height="16" x="0" y="0" id="canvas" style="fill:none;stroke:none;visibility:hidden"/>
  <path id="hut" d="M 0,4 C 0,4.3333333 0,4.6666667 0,5 0.66666667,4.6666667 1.3333333,4.3333333 2,4 c 0,3.3333333 0,6.666667 0,10 3.3333333,0 6.6666667,0 10,0 0,-3.333333 0,-6.6666667 0,-10 0.666667,0.3333333 1.333333,0.6666667 2,1 C 14,4.6666667 14,4.3333333 14,4 11.666667,2.6666667 9.3333333,1.3333333 7,0 4.6666667,1.3333333 2.3333333,2.6666667 0,4 Z m 4,1 c 2,0 4,0 6,0 0,2.3333333 0,4.6666667 0,7 C 8,12 6,12 4,12 4,9.6666667 4,7.3333333 4,5 Z" style="fill:#734a08;fill-opacity:1" transform="translate(1,1)"/>
</svg>
