<?xml version='1.0' encoding='utf-8'?>
<svg xmlns:dc="http://purl.org/dc/elements/1.1/" xmlns:cc="http://creativecommons.org/ns#" xmlns:rdf="http://www.w3.org/1999/02/22-rdf-syntax-ns#" xmlns="http://www.w3.org/2000/svg" version="1.1" width="100%" height="100%" viewBox="0 0 16 16" id="svg2">
  <metadata id="metadata8">
    <rdf:RDF>
      <cc:Work rdf:about="">
        <dc:format>image/svg+xml</dc:format>
        <dc:type rdf:resource="http://purl.org/dc/dcmitype/StillImage"/>
        <dc:title/>
      </cc:Work>
    </rdf:RDF>
  </metadata>
  <defs id="defs6"/>
  <rect width="16" height="16" x="0" y="-14" transform="matrix(0,1,-1,0,0,0)" id="canvas" style="fill:none;stroke:none;visibility:hidden"/>
  <path d="m 14,0 c -0.666667,0 -1.333333,0 -2,0 -1.333333,2.3333333 -2.6666667,4.6666667 -4,7 1.3333333,2.3333333 2.666667,4.666667 4,7 0.666667,0 1.333333,0 2,0 C 12.666667,11.666667 11.333333,9.3333333 10,7 11.333333,4.6666667 12.666667,2.3333333 14,0 z M 6,0 C 5.3333333,0 4.6666667,0 4,0 2.6666667,2.3333333 1.3333333,4.6666667 0,7 c 1.3333333,2.3333333 2.6666667,4.666667 4,7 0.6666667,0 1.3333333,0 2,0 C 4.6666667,11.666667 3.3333333,9.3333333 2,7 3.3333333,4.6666667 4.6666667,2.3333333 6,0 z" id="incline-up" style="fill:#734a08;fill-opacity:1" transform="translate(1.0,1.0)"/>
</svg>
