<?xml version='1.0' encoding='utf-8'?>
<svg xmlns:dc="http://purl.org/dc/elements/1.1/" xmlns:cc="http://creativecommons.org/ns#" xmlns:rdf="http://www.w3.org/1999/02/22-rdf-syntax-ns#" xmlns="http://www.w3.org/2000/svg" version="1.1" width="100%" height="100%" viewBox="0 0 20 20" id="svg2">
  <metadata id="metadata8">
    <rdf:RDF>
      <cc:Work rdf:about="">
        <dc:format>image/svg+xml</dc:format>
        <dc:type rdf:resource="http://purl.org/dc/dcmitype/StillImage"/>
        <dc:title/>
      </cc:Work>
    </rdf:RDF>
  </metadata>
  <defs id="defs6"/>
  <rect width="20" height="20" x="0" y="0" id="canvas" style="fill:none;stroke:none;visibility:hidden"/><rect x="1" y="1" width="18" height="18" rx="3" ry="3" id="shield" style="fill:#55aa55;fill-opacity:None;stroke:#1a1a1a;stroke-width:1.0;stroke-opacity:None;"/>
  <path d="M 7,0 1,2 1,3 7,1 13,3 13,2 z M 7,2 C 6.0498834,2 5.279661,2.7278495 5.279661,3.6779661 5.279661,4.6280827 6.0498834,5.3983051 7,5.3983051 7.9501166,5.3983051 8.720339,4.6281166 8.720339,3.678 8.720339,2.7278834 7.9501166,2 7,2 z m -4,4 0,1.9788136 2,0 L 5,12 l -2,0 0,2 8,0 0,-2 -2,0 0,-6 z" id="information-office" style="fill:#ffffff;fill-opacity:1" transform="translate(3,3)"/>
</svg>
