<?xml version='1.0' encoding='utf-8'?>
<svg xmlns:dc="http://purl.org/dc/elements/1.1/" xmlns:cc="http://creativecommons.org/ns#" xmlns:rdf="http://www.w3.org/1999/02/22-rdf-syntax-ns#" xmlns="http://www.w3.org/2000/svg" id="svg2" viewBox="0 0 16 16" height="100%" width="100%" version="1.1">
  <metadata id="metadata8">
    <rdf:RDF>
      <cc:Work rdf:about="">
        <dc:format>image/svg+xml</dc:format>
        <dc:type rdf:resource="http://purl.org/dc/dcmitype/StillImage"/>
        <dc:title/>
      </cc:Work>
    </rdf:RDF>
  </metadata>
  <defs id="defs6"/>
  <rect style="fill:none;stroke:none;visibility:hidden" id="canvas" y="0" x="0" height="16" width="16"/>
  <path id="jewish" d="M 7.03125,0 C 6.3541667,1.15625 5.6770833,2.3125 5,3.46875 c -1.3333333,0 -2.6666667,0 -4,0 0.6666667,1.1666667 1.3333333,2.3333333 2,3.5 -0.6666667,1.1666667 -1.3333333,2.3333333 -2,3.5 1.3333333,0 2.6666667,0 4,0 0.6770833,1.177083 1.3541667,2.354167 2.03125,3.53125 0.6666667,-1.177083 1.3333333,-2.354167 2,-3.53125 1.322917,0 2.645833,0 3.96875,0 -0.65625,-1.1666667 -1.3125,-2.3333333 -1.96875,-3.5 0.65625,-1.1666667 1.3125,-2.3333333 1.96875,-3.5 -1.322917,0 -2.645833,0 -3.96875,0 C 8.3645833,2.3125 7.6979167,1.15625 7.03125,0 Z m 0,2.4375 C 7.2291667,2.78125 7.4270833,3.125 7.625,3.46875 c -0.3958333,0 -0.7916667,0 -1.1875,0 C 6.6354167,3.125 6.8333333,2.78125 7.03125,2.4375 Z M 3.125,4.625 c 0.40625,0 0.8125,0 1.21875,0 C 4.1354167,4.9791667 3.9270833,5.3333333 3.71875,5.6875 3.5208333,5.3333333 3.3229167,4.9791667 3.125,4.625 Z m 2.65625,0 c 0.8333333,0 1.6666667,0 2.5,0 0.4375,0.78125 0.875,1.5625 1.3125,2.34375 -0.4375,0.78125 -0.875,1.5625 -1.3125,2.34375 -0.8333333,0 -1.6666667,0 -2.5,0 C 5.34375,8.53125 4.90625,7.75 4.46875,6.96875 4.90625,6.1875 5.34375,5.40625 5.78125,4.625 Z m 3.90625,0 c 0.416667,0 0.833333,0 1.25,0 -0.208333,0.3645833 -0.416667,0.7291667 -0.625,1.09375 C 10.104167,5.3541667 9.8958333,4.9895833 9.6875,4.625 Z m 0.625,3.59375 c 0.208333,0.3645833 0.416667,0.7291667 0.625,1.09375 -0.416667,0 -0.833333,0 -1.25,0 0.2083333,-0.3645833 0.416667,-0.7291667 0.625,-1.09375 z M 3.71875,8.25 c 0.2083333,0.3541667 0.4166667,0.7083333 0.625,1.0625 -0.40625,0 -0.8125,0 -1.21875,0 C 3.3229167,8.9583333 3.5208333,8.6041667 3.71875,8.25 Z m 2.71875,2.21875 c 0.3958333,0 0.7916667,0 1.1875,0 C 7.4270833,10.8125 7.2291667,11.15625 7.03125,11.5 6.8333333,11.15625 6.6354167,10.8125 6.4375,10.46875 Z" style="fill:#000000;fill-opacity:1" transform="translate(1.0,1.0)"/>
</svg>
