<?xml version='1.0' encoding='utf-8'?>
<svg xmlns:dc="http://purl.org/dc/elements/1.1/" xmlns:cc="http://creativecommons.org/ns#" xmlns:rdf="http://www.w3.org/1999/02/22-rdf-syntax-ns#" xmlns="http://www.w3.org/2000/svg" version="1.1" width="100%" height="100%" viewBox="0 0 16 16" id="svg2">
  <metadata id="metadata8">
    <rdf:RDF>
      <cc:Work rdf:about="">
        <dc:format>image/svg+xml</dc:format>
        <dc:type rdf:resource="http://purl.org/dc/dcmitype/StillImage"/>
        <dc:title/>
      </cc:Work>
    </rdf:RDF>
  </metadata>
  <defs id="defs6"/>
  <rect width="16" height="16" x="0" y="0" id="canvas" style="fill:none;stroke:none;visibility:hidden"/>
  <path d="M 4.5906465,4.7117108 C 4.7668581,5.4414199 5.9309108,6.1202475 6.667273,5.8956819 7.4036351,5.6711162 7.888822,4.5893661 7.6578811,3.8993146 7.4269403,3.2092632 6.4307241,2.7574258 5.7467407,2.9422348 5.0627574,3.1270439 4.4144349,3.9820018 4.5906465,4.7117108 z M 1.9771626,8.2535891 4.4732591,9.6472952 5.4638673,7.3992459 3.3010448,6.232431 z M 7.7578125,0.56054688 6.6347656,1.3476562 l -4.0664062,0 -2.49609378,9.4511718 2.96874998,0 -1.890625,3.150391 1.1035156,0 1.8886719,-3.150391 4.7265625,0 0.9453125,3.150391 0.9453129,0 -0.9453129,-3.150391 1.3164059,0 0.232422,-0.876953 1.601563,4.027344 0.943359,0 -2.314453,-4.9980471 1.585938,-7.6035157 -4.8125005,0 z M 3.2654263,2.3987685 12.001854,2.3097854 10.310845,9.9561706 1.2081898,9.8671879 z m 3.3109906,4.311133 2.5799906,2.4004344 1.4100785,-3.2547776 z" id="kindergarten" style="fill:#734a08;fill-opacity:1" transform="translate(1,1)"/>
</svg>
