<?xml version='1.0' encoding='utf-8'?>
<svg xmlns:dc="http://purl.org/dc/elements/1.1/" xmlns:cc="http://creativecommons.org/ns#" xmlns:rdf="http://www.w3.org/1999/02/22-rdf-syntax-ns#" xmlns="http://www.w3.org/2000/svg" id="svg2" viewBox="0 0 20 20" height="100%" width="100%" version="1.1">
  <metadata id="metadata8">
    <rdf:RDF>
      <cc:Work rdf:about="">
        <dc:format>image/svg+xml</dc:format>
        <dc:type rdf:resource="http://purl.org/dc/dcmitype/StillImage"/>
        <dc:title/>
      </cc:Work>
    </rdf:RDF>
  </metadata>
  <defs id="defs6"/>
  <rect style="fill:none;stroke:none;visibility:hidden" id="canvas" y="0" x="0" height="20" width="20"/><rect x="1" y="1" width="18" height="18" rx="3" ry="3" id="shield" style="fill:#55aa55;fill-opacity:1;stroke:#1a1a1a;stroke-width:1.0;stroke-opacity:1;"/>
  <path style="fill:#ffffff;fill-opacity:1" id="map" d="M 7,0 C 3.177512,0 0,3.0888888 0,7 c 0,3.911112 3.177512,7 7,7 3.822489,0 7,-3.088889 7,-7 C 14,3.0888888 10.822489,0 7,0 Z m 0,1.0577778 c 3.389409,0 6.058296,2.7055413 6.058296,5.9422222 0,3.236682 -2.668887,5.942222 -6.058296,5.942222 C 3.610591,12.942222 0.941704,10.236682 0.941704,7 0.941704,3.7633191 3.610591,1.0577778 7,1.0577778 Z m 0.6012005,0.311902 c 0,0 -1.1321043,4.1041793 -2.3728814,4.8256498 C 3.9875421,6.9168 1.7627119,5.6440678 1.7627119,5.6440678 L 1.5254237,6.8813559 c 0,0 2.3340871,-0.2982488 3.2283192,0.6267043 0.894232,0.924953 1.0084745,4.7663278 1.0084745,4.7663278 l 1.1111584,0.05932 c 0,0 -1.2836291,-3.9225422 -0.5338983,-4.5883617 C 7.0892083,7.0795288 12,8 12,8 L 12,7 C 12,7 6.9420297,7.169414 6.4581215,6.4919397 5.9742133,5.8144655 9.068291,1.725612 9.068291,1.725612 Z" transform="translate(3,3)"/>
</svg>
