<?xml version='1.0' encoding='utf-8'?>
<svg xmlns:dc="http://purl.org/dc/elements/1.1/" xmlns:cc="http://creativecommons.org/ns#" xmlns:rdf="http://www.w3.org/1999/02/22-rdf-syntax-ns#" xmlns="http://www.w3.org/2000/svg" id="svg2" viewBox="0 0 18 18" height="100%" width="100%" version="1.1">
  <metadata id="metadata8">
    <rdf:RDF>
      <cc:Work rdf:about="">
        <dc:format>image/svg+xml</dc:format>
        <dc:type rdf:resource="http://purl.org/dc/dcmitype/StillImage"/>
        <dc:title/>
      </cc:Work>
    </rdf:RDF>
  </metadata>
  <defs id="defs6"/>
  <rect style="fill:none;stroke:none;visibility:hidden" id="canvas" y="0" x="0" height="18" width="18"/>
  <path id="halo" d="M 2.5,2 C 1.6276717,1.983314 0.89896184,2.8297655 1,3.687446 c 0.00511,2.3186398 -0.0102405,4.6379641 0.0077,6.956175 0.078609,0.823987 0.8944557,1.456961 1.7109843,1.356379 2.9504748,-0.0014 5.9010303,0.0027 8.851455,-0.0021 C 12.423131,11.940168 13.106826,11.096276 13,10.250072 12.994429,7.9522754 13.011159,5.6536668 12.991606,3.356379 12.891647,2.5342786 12.070535,1.899606 11.250072,2 8.3333813,2 5.4166907,2 2.5,2 Z m 0,1 C 3.3563461,2.998613 2.9329928,4.3956104 2.2204452,3.9146079 1.8120722,3.6618449 2.0197403,2.9812997 2.5,3 Z m 9,0 c 0.856346,-0.00139 0.432993,1.3956101 -0.279555,0.9146079 C 10.812072,3.6618449 11.01974,2.9812999 11.5,3 Z M 5,4 C 5.3333333,4 5.6666667,4 6,4 6,4.3333333 6,4.6666667 6,5 5.6666667,5 5.3333333,5 5,5 5,4.6666667 5,4.3333333 5,4 Z M 7,4 C 7.6666667,4 8.3333333,4 9,4 9,4.3333333 9,4.6666667 9,5 8.3333333,5 7.6666667,5 7,5 7,4.6666667 7,4.3333333 7,4 Z M 3,6 c 2.6666667,0 5.3333333,0 8,0 0,0.3333333 0,0.6666667 0,1 C 8.3333333,7 5.6666667,7 3,7 3,6.6666667 3,6.3333333 3,6 Z M 5,8 C 6.3333333,8 7.6666667,8 9,8 9,8.3333333 9,8.6666667 9,9 7.6666667,9 6.3333333,9 5,9 5,8.6666667 5,8.3333333 5,8 Z M 2.5,10 C 3.3563461,9.9986131 2.9329927,11.39561 2.2204452,10.914608 1.8120721,10.661845 2.0197404,9.9812999 2.5,10 Z m 9,0 c 0.856346,-0.00139 0.432993,1.39561 -0.279555,0.914608 C 10.812072,10.661845 11.01974,9.9813001 11.5,10 Z" style="fill:#ffffff;stroke:#ffffff;stroke-width:2.0;opacity:1.0;" transform="translate(2.0,2.0)"/>
<path id="memorial" d="M 2.5,2 C 1.6276717,1.983314 0.89896184,2.8297655 1,3.687446 c 0.00511,2.3186398 -0.0102405,4.6379641 0.0077,6.956175 0.078609,0.823987 0.8944557,1.456961 1.7109843,1.356379 2.9504748,-0.0014 5.9010303,0.0027 8.851455,-0.0021 C 12.423131,11.940168 13.106826,11.096276 13,10.250072 12.994429,7.9522754 13.011159,5.6536668 12.991606,3.356379 12.891647,2.5342786 12.070535,1.899606 11.250072,2 8.3333813,2 5.4166907,2 2.5,2 Z m 0,1 C 3.3563461,2.998613 2.9329928,4.3956104 2.2204452,3.9146079 1.8120722,3.6618449 2.0197403,2.9812997 2.5,3 Z m 9,0 c 0.856346,-0.00139 0.432993,1.3956101 -0.279555,0.9146079 C 10.812072,3.6618449 11.01974,2.9812999 11.5,3 Z M 5,4 C 5.3333333,4 5.6666667,4 6,4 6,4.3333333 6,4.6666667 6,5 5.6666667,5 5.3333333,5 5,5 5,4.6666667 5,4.3333333 5,4 Z M 7,4 C 7.6666667,4 8.3333333,4 9,4 9,4.3333333 9,4.6666667 9,5 8.3333333,5 7.6666667,5 7,5 7,4.6666667 7,4.3333333 7,4 Z M 3,6 c 2.6666667,0 5.3333333,0 8,0 0,0.3333333 0,0.6666667 0,1 C 8.3333333,7 5.6666667,7 3,7 3,6.6666667 3,6.3333333 3,6 Z M 5,8 C 6.3333333,8 7.6666667,8 9,8 9,8.3333333 9,8.6666667 9,9 7.6666667,9 6.3333333,9 5,9 5,8.6666667 5,8.3333333 5,8 Z M 2.5,10 C 3.3563461,9.9986131 2.9329927,11.39561 2.2204452,10.914608 1.8120721,10.661845 2.0197404,9.9812999 2.5,10 Z m 9,0 c 0.856346,-0.00139 0.432993,1.39561 -0.279555,0.914608 C 10.812072,10.661845 11.01974,9.9813001 11.5,10 Z" style="fill:#734a08;fill-opacity:1" transform="translate(2.0,2.0)"/>
</svg>
