<?xml version='1.0' encoding='utf-8'?>
<svg xmlns:dc="http://purl.org/dc/elements/1.1/" xmlns:cc="http://creativecommons.org/ns#" xmlns:rdf="http://www.w3.org/1999/02/22-rdf-syntax-ns#" xmlns="http://www.w3.org/2000/svg" id="svg2" viewBox="0 0 16 16" height="100%" width="100%" version="1.1">
  <metadata id="metadata8">
    <rdf:RDF>
      <cc:Work rdf:about="">
        <dc:format>image/svg+xml</dc:format>
        <dc:type rdf:resource="http://purl.org/dc/dcmitype/StillImage"/>
        <dc:title/>
      </cc:Work>
    </rdf:RDF>
  </metadata>
  <defs id="defs6"/>
  <rect style="fill:none;stroke:none;visibility:hidden" id="canvas" y="0" x="0" height="16" width="16"/>
  <path id="observation-tower" d="m 10,3 c 0,0.6666667 0,1.3333333 0,2 C 8,5 6,5 4,5 4,4.3333333 4,3.6666667 4,3 M 3,1.8389831 C 3,3.2259887 3,4.6129944 3,6 c 0.4306144,7.062e-4 0.8612288,0.00141 1.2918432,0.00212 C 3.8612288,8.6680791 3.4306144,11.33404 3,14 3.5,14 4,14 4.5,14 4.5625,13.510417 4.625,13.020833 4.6875,12.53125 5.4583333,12.020833 6.2291667,11.510417 7,11 7.7708333,11.520833 8.5416667,12.041667 9.3125,12.5625 9.375,13.041667 9.4375,13.520833 9.5,14 10,14 10.5,14 11,14 10.608934,11.333333 10.217867,8.6666667 9.8268008,6 10.217867,6 10.608934,6 11,6 11,4.5933333 11,3.1866667 11,1.78 9.6666667,1.1866667 8.3333333,0.59333333 7,0 M 5.5810381,6 C 6.5467867,6 7.5125353,6 8.4782839,6 8.6001059,6.9270833 8.721928,7.8541667 8.84375,8.78125 8.2291667,9.1875 7.6145833,9.59375 7,10 6.3854167,9.59375 5.7708333,9.1875 5.15625,8.78125 5.297846,7.8541667 5.4394421,6.9270833 5.5810381,6 Z M 5.03125,9.6875 C 5.4375,9.9583333 5.84375,10.229167 6.25,10.5 5.7708333,10.822917 5.2916667,11.145833 4.8125,11.46875 4.8854167,10.875 4.9583333,10.28125 5.03125,9.6875 Z m 3.9375,0 C 9.0416667,10.28125 9.1145833,10.875 9.1875,11.46875 8.7083333,11.145833 8.2291667,10.822917 7.75,10.5 8.15625,10.229167 8.5625,9.9583333 8.96875,9.6875 Z" style="fill:#734a08;fill-opacity:1" transform="translate(1,1)"/>
</svg>
