<?xml version='1.0' encoding='utf-8'?>
<svg xmlns:dc="http://purl.org/dc/elements/1.1/" xmlns:cc="http://creativecommons.org/ns#" xmlns:rdf="http://www.w3.org/1999/02/22-rdf-syntax-ns#" xmlns="http://www.w3.org/2000/svg" id="svg2" viewBox="0 0 18 18" height="100%" width="100%" version="1.1">
  <metadata id="metadata8">
    <rdf:RDF>
      <cc:Work rdf:about="">
        <dc:format>image/svg+xml</dc:format>
        <dc:type rdf:resource="http://purl.org/dc/dcmitype/StillImage"/>
        <dc:title/>
      </cc:Work>
    </rdf:RDF>
  </metadata>
  <defs id="defs6"/>
  <rect style="fill:none;stroke:none;visibility:hidden" id="canvas" y="0" x="0" height="18" width="18"/>
  <path style="fill:#ff55ff;stroke:#ff55ff;stroke-width:2.0;opacity:1.0;" d="M 4,5 0,7 4,9 4,8 10,8 10,9 14,7 10,5 10,6 4,6 Z M 3.65,5.6 3.65,8.4 0.75,7 Z" id="halo" transform="translate(2.0,2.0)"/>
<path style="fill:#555555;fill-opacity:1" d="M 4,5 0,7 4,9 4,8 10,8 10,9 14,7 10,5 10,6 4,6 Z M 3.65,5.6 3.65,8.4 0.75,7 Z" id="opposite-lane" transform="translate(2.0,2.0)"/>
</svg>
