<?xml version='1.0' encoding='utf-8'?>
<svg xmlns:dc="http://purl.org/dc/elements/1.1/" xmlns:cc="http://creativecommons.org/ns#" xmlns:rdf="http://www.w3.org/1999/02/22-rdf-syntax-ns#" xmlns="http://www.w3.org/2000/svg" version="1.1" width="100%" height="100%" viewBox="0 0 18 18" id="svg2">
  <metadata id="metadata8">
    <rdf:RDF>
      <cc:Work rdf:about="">
        <dc:format>image/svg+xml</dc:format>
        <dc:type rdf:resource="http://purl.org/dc/dcmitype/StillImage"/>
        <dc:title/>
      </cc:Work>
    </rdf:RDF>
  </metadata>
  <defs id="defs6"/>
  <rect width="18" height="18" x="0" y="0" id="canvas" style="fill:none;stroke:none;visibility:hidden"/>
  <path id="halo" d="M 0 0 L 0 10 L 2 10 L 2 6.5 C 3.0724086 6.481067 4.1496424 6.54536 5.21875 6.453125 C 6.3915151 6.334712 7.5392901 5.5659065 7.8457031 4.3847656 C 8.2375277 2.9914985 7.9294383 1.2215508 6.5957031 0.43554688 C 5.6223348 -0.17338543 4.4523141 0.04022324 3.3671875 0 L 0 0 z M 3.421875 1.9980469 C 3.8957027 1.995923 4.3693039 1.9974825 4.8417969 2.0234375 C 5.6698487 2.0586265 6.2768509 2.9991439 5.8886719 3.7519531 C 5.5488294 4.4633657 4.6990496 4.5365486 4.0039062 4.5 L 2 4.5 L 2 2 C 2.4734098 2.0065325 2.9480473 2.0001708 3.421875 1.9980469 z M 9 7 C 9.0445975 7.2148373 8.9008434 7.5190227 9.0878906 7.6660156 C 9.2378484 7.8348303 9.5675592 7.9189949 9.5 8.1914062 C 9.443102 8.3717998 9.6396497 8.804702 9.3476562 8.75 L 6.5 8.75 C 6.3887669 8.4029308 6.7341953 8.5130002 6.9570312 8.5 C 7.6768249 8.4706977 7.1660032 7.828494 6.6953125 8 C 6.242638 8.0110114 5.7861589 7.9767349 5.3359375 8.0195312 C 4.7732973 8.3435136 5.5891731 8.5930144 5.9199219 8.5 C 6.1305634 8.5457916 5.9255315 8.9159374 5.8613281 9.0644531 L 5.4375 10.03125 C 4.3228771 9.7869132 3.0912805 10.615885 3.0117188 11.779297 C 2.8403843 12.926936 3.8475422 14.034146 5 14 C 6.1729823 14.024097 7.0805808 12.840948 6.9316406 11.712891 C 6.7965257 11.337101 7.3331312 11.559502 7.5546875 11.5 C 7.8295535 11.571829 7.9291437 11.247864 8.109375 11.105469 L 9.5722656 9.5 L 9.9375 10.28125 C 8.7381184 10.956003 8.6865258 12.88793 9.8398438 13.632812 C 10.72225 14.300496 12.118581 14.01763 12.646484 13.037109 C 13.241366 12.077939 12.917617 10.60301 11.820312 10.167969 C 11.430633 9.8006064 10.660694 10.28947 10.472656 9.8515625 C 10.325234 9.4566644 10.097355 9.0790139 10 8.6738281 C 9.9801054 8.3793775 10.040178 8.0459992 9.9707031 7.7753906 L 9 7 z M 6.40625 9.5 L 8.5996094 9.5 L 7.40625 10.75 L 6.5625 10.75 C 6.3242787 10.446076 5.8990716 10.289034 6.2324219 9.8964844 L 6.40625 9.5 z M 5 11 C 5.8300181 10.95557 6.3300882 12.085007 5.7382812 12.669922 C 5.2593813 13.265827 4.2001134 13.000952 4.0371094 12.259766 C 3.8511368 11.658355 4.3666015 10.975226 5 11 z M 11 11 C 11.830018 10.95557 12.330087 12.085007 11.738281 12.669922 C 11.25938 13.265827 10.202067 13.000952 10.039062 12.259766 C 9.8530896 11.658355 10.366602 10.975226 11 11 z " style="fill:#ffffff;stroke:#ffffff;stroke-width:2.0;opacity:1.0;" transform="translate(2.0,2.0)"/>
<path id="parking-bicycle" d="M 0 0 L 0 10 L 2 10 L 2 6.5 C 3.0724086 6.481067 4.1496424 6.54536 5.21875 6.453125 C 6.3915151 6.334712 7.5392901 5.5659065 7.8457031 4.3847656 C 8.2375277 2.9914985 7.9294383 1.2215508 6.5957031 0.43554688 C 5.6223348 -0.17338543 4.4523141 0.04022324 3.3671875 0 L 0 0 z M 3.421875 1.9980469 C 3.8957027 1.995923 4.3693039 1.9974825 4.8417969 2.0234375 C 5.6698487 2.0586265 6.2768509 2.9991439 5.8886719 3.7519531 C 5.5488294 4.4633657 4.6990496 4.5365486 4.0039062 4.5 L 2 4.5 L 2 2 C 2.4734098 2.0065325 2.9480473 2.0001708 3.421875 1.9980469 z M 9 7 C 9.0445975 7.2148373 8.9008434 7.5190227 9.0878906 7.6660156 C 9.2378484 7.8348303 9.5675592 7.9189949 9.5 8.1914062 C 9.443102 8.3717998 9.6396497 8.804702 9.3476562 8.75 L 6.5 8.75 C 6.3887669 8.4029308 6.7341953 8.5130002 6.9570312 8.5 C 7.6768249 8.4706977 7.1660032 7.828494 6.6953125 8 C 6.242638 8.0110114 5.7861589 7.9767349 5.3359375 8.0195312 C 4.7732973 8.3435136 5.5891731 8.5930144 5.9199219 8.5 C 6.1305634 8.5457916 5.9255315 8.9159374 5.8613281 9.0644531 L 5.4375 10.03125 C 4.3228771 9.7869132 3.0912805 10.615885 3.0117188 11.779297 C 2.8403843 12.926936 3.8475422 14.034146 5 14 C 6.1729823 14.024097 7.0805808 12.840948 6.9316406 11.712891 C 6.7965257 11.337101 7.3331312 11.559502 7.5546875 11.5 C 7.8295535 11.571829 7.9291437 11.247864 8.109375 11.105469 L 9.5722656 9.5 L 9.9375 10.28125 C 8.7381184 10.956003 8.6865258 12.88793 9.8398438 13.632812 C 10.72225 14.300496 12.118581 14.01763 12.646484 13.037109 C 13.241366 12.077939 12.917617 10.60301 11.820312 10.167969 C 11.430633 9.8006064 10.660694 10.28947 10.472656 9.8515625 C 10.325234 9.4566644 10.097355 9.0790139 10 8.6738281 C 9.9801054 8.3793775 10.040178 8.0459992 9.9707031 7.7753906 L 9 7 z M 6.40625 9.5 L 8.5996094 9.5 L 7.40625 10.75 L 6.5625 10.75 C 6.3242787 10.446076 5.8990716 10.289034 6.2324219 9.8964844 L 6.40625 9.5 z M 5 11 C 5.8300181 10.95557 6.3300882 12.085007 5.7382812 12.669922 C 5.2593813 13.265827 4.2001134 13.000952 4.0371094 12.259766 C 3.8511368 11.658355 4.3666015 10.975226 5 11 z M 11 11 C 11.830018 10.95557 12.330087 12.085007 11.738281 12.669922 C 11.25938 13.265827 10.202067 13.000952 10.039062 12.259766 C 9.8530896 11.658355 10.366602 10.975226 11 11 z " style="fill:#0092da;fill-rule:evenodd" transform="translate(2.0,2.0)"/>
</svg>
