<?xml version='1.0' encoding='utf-8'?>
<svg xmlns:dc="http://purl.org/dc/elements/1.1/" xmlns:cc="http://creativecommons.org/ns#" xmlns:rdf="http://www.w3.org/1999/02/22-rdf-syntax-ns#" xmlns="http://www.w3.org/2000/svg" id="svg2" viewBox="0 0 16 16" height="100%" width="100%" version="1.1">
  <metadata id="metadata8">
    <rdf:RDF>
      <cc:Work rdf:about="">
        <dc:format>image/svg+xml</dc:format>
        <dc:type rdf:resource="http://purl.org/dc/dcmitype/StillImage"/>
        <dc:title/>
      </cc:Work>
    </rdf:RDF>
  </metadata>
  <defs id="defs6"/>
  <rect style="fill:none;stroke:none;visibility:hidden" id="canvas" y="0" x="0" height="16" width="16"/>
  <path id="pharmacy" d="M 4,4 C 3.3333333,4.6666667 2.6666667,5.3333333 2,6 c 0,2.6666667 0,5.333333 0,8 3.3333333,0 6.6666667,0 10,0 0,-2.666667 0,-5.3333333 0,-8 -0.666667,-0.6666668 -1.333333,-1.3333335 -2,-2.0000003 -2,10e-8 -4,2e-7 -6,3e-7 z m 2,2 c 0.6666667,0 1.3333333,0 2,0 0,0.6666667 0,1.3333333 0,2 0.6666667,0 1.3333333,0 2,0 0,0.6666667 0,1.3333333 0,2 -0.6666667,0 -1.3333333,0 -2,0 0,0.666667 0,1.333333 0,2 C 7.3333333,12 6.6666667,12 6,12 6,11.333333 6,10.666667 6,10 5.3333333,10 4.6666667,10 4,10 4,9.3333333 4,8.6666667 4,8 4.6666667,8 5.3333333,8 6,8 6,7.3333333 6,6.6666667 6,6 Z M 4,0 C 4,1 4,2 4,3 6,3 8,3 10,3 10,2 10,1 10,0 8,0 6,0 4,0 Z" style="fill:#da0092;fill-opacity:1" transform="translate(1.0,1.0)"/>
</svg>
