<?xml version='1.0' encoding='utf-8'?>
<svg xmlns:dc="http://purl.org/dc/elements/1.1/" xmlns:cc="http://creativecommons.org/ns#" xmlns:rdf="http://www.w3.org/1999/02/22-rdf-syntax-ns#" xmlns="http://www.w3.org/2000/svg" version="1.1" width="100%" height="100%" viewBox="0 0 16 16" id="svg2">
  <metadata id="metadata8">
    <rdf:RDF>
      <cc:Work rdf:about="">
        <dc:format>image/svg+xml</dc:format>
        <dc:type rdf:resource="http://purl.org/dc/dcmitype/StillImage"/>
        <dc:title/>
      </cc:Work>
    </rdf:RDF>
  </metadata>
  <defs id="defs6"/>
  <rect width="16" height="16" x="0" y="0" id="canvas" style="fill:none;stroke:none;visibility:hidden"/>
  <path d="M 1.75,3 1,3.75 l 1,1 0,4.5 -1,1 0.75,0.75 1,-1 8.5,0 1,1 0.75,-0.75 -1,-1 0,-4.5 1,-1 -0.75,-0.75 -1,1 -8.5,0 z M 3,5 11,5 11,9 3,9 z" id="halo" style="fill:#ffffff;stroke:#ffffff;stroke-width:0.4;opacity:1.0;" transform="translate(1.2,1.2)"/>
<path d="M 1.75,3 1,3.75 l 1,1 0,4.5 -1,1 0.75,0.75 1,-1 8.5,0 1,1 0.75,-0.75 -1,-1 0,-4.5 1,-1 -0.75,-0.75 -1,1 -8.5,0 z M 3,5 11,5 11,9 3,9 z" id="pillbox" style="fill:#000000;fill-opacity:1" transform="translate(1.2,1.2)"/>
</svg>
