<?xml version='1.0' encoding='utf-8'?>
<svg xmlns:dc="http://purl.org/dc/elements/1.1/" xmlns:cc="http://creativecommons.org/ns#" xmlns:rdf="http://www.w3.org/1999/02/22-rdf-syntax-ns#" xmlns="http://www.w3.org/2000/svg" id="svg2" viewBox="0 0 16 16" height="100%" width="100%" version="1.1">
  <metadata id="metadata8">
    <rdf:RDF>
      <cc:Work rdf:about="">
        <dc:format>image/svg+xml</dc:format>
        <dc:type rdf:resource="http://purl.org/dc/dcmitype/StillImage"/>
        <dc:title/>
      </cc:Work>
    </rdf:RDF>
  </metadata>
  <defs id="defs6"/>
  <rect style="fill:none;stroke:none;visibility:hidden" id="canvas" y="0" x="0" height="16" width="16"/>
  <path style="fill:#734a08;fill-opacity:1" id="post-box" d="M 12,3 9.4872882,3 7,7 l 4,7 1,0 z M 7.4872882,3 2,3 2,14 9,14 5,7 Z M 1.0000005,0 C 0.4576275,0 5.0656509e-7,0.4576271 5.0656509e-7,0.99999998 l 0,2.00000002 C 5.0656509e-7,3.559322 0.4886175,4 1.0000005,4 l 0,-2 L 13,2 13,4 c 0.511382,0 1,-0.4857094 1,-1 L 14,0.99999998 C 14,0.4576271 13.508475,0 13,0 Z" transform="translate(1.0,1.0)"/>
</svg>
