<?xml version='1.0' encoding='utf-8'?>
<svg xmlns:dc="http://purl.org/dc/elements/1.1/" xmlns:cc="http://creativecommons.org/ns#" xmlns:rdf="http://www.w3.org/1999/02/22-rdf-syntax-ns#" xmlns="http://www.w3.org/2000/svg" version="1.1" width="100%" height="100%" viewBox="0 0 16 16" id="svg2">
  <metadata id="metadata8">
    <rdf:RDF>
      <cc:Work rdf:about="">
        <dc:format>image/svg+xml</dc:format>
        <dc:type rdf:resource="http://purl.org/dc/dcmitype/StillImage"/>
        <dc:title/>
      </cc:Work>
    </rdf:RDF>
  </metadata>
  <defs id="defs6"/>
  <rect width="16" height="16" x="0" y="0" id="canvas" style="fill:none;stroke:none;visibility:hidden"/>
  <path id="pub" d="m 2,1 c 0.6666667,4 1.3333333,8 2,12 2,0 4,0 6,0 C 10.666667,9 11.333333,5 12,1 8.6666667,1 5.3333333,1 2,1 Z m 1.25,1 c 2.5,0 5,0 7.5,0 C 10.639974,2.6666667 10.529948,3.3333333 10.419922,4 8.1334636,4 5.8470053,4 3.5605469,4 3.4570313,3.3333333 3.3535156,2.6666667 3.25,2 Z" style="fill:#734a08;fill-opacity:1" transform="translate(1,1)"/>
</svg>
