<?xml version='1.0' encoding='utf-8'?>
<svg xmlns:dc="http://purl.org/dc/elements/1.1/" xmlns:cc="http://creativecommons.org/ns#" xmlns:rdf="http://www.w3.org/1999/02/22-rdf-syntax-ns#" xmlns="http://www.w3.org/2000/svg" version="1.1" width="100%" height="100%" viewBox="0 0 16 16" id="svg2">
  <metadata id="metadata8">
    <rdf:RDF>
      <cc:Work rdf:about="">
        <dc:format>image/svg+xml</dc:format>
        <dc:type rdf:resource="http://purl.org/dc/dcmitype/StillImage"/>
        <dc:title/>
      </cc:Work>
    </rdf:RDF>
  </metadata>
  <defs id="defs6"/>
  <rect width="16" height="16" x="0" y="0" id="canvas" style="fill:none;stroke:none;visibility:hidden"/><rect x="1" y="1" width="14" height="14" rx="3" ry="3" id="shield" style="fill:#0051ff;fill-opacity:0.3;stroke:#000000;stroke-width:0.1;stroke-opacity:1;"/>
  <path id="sac-tvi" d="m 1,3 c 0,0.6666667 0,1.3333333 0,2 0.6666667,0 1.3333333,0 2,0 0,2.3333333 0,4.6666667 0,7 0.6666667,0 1.3333333,0 2,0 C 5,9.6666667 5,7.3333333 5,5 5.6666667,5 6.3333333,5 7,5 7,4.3333333 7,3.6666667 7,3 5,3 3,3 1,3 Z M 12.468657,3.1919466 C 11.273049,2.9382467 9.9696114,3.325802 9.1296129,4.2198301 7.5791641,5.7426684 7.1016082,8.1413884 7.6566264,10.20404 c 0.2248415,0.860545 0.9343463,1.590821 1.8318219,1.721845 1.0326587,0.170742 2.2973327,0.01282 2.9457827,-0.905243 C 12.909475,10.317087 13.01304,9.4094719 12.897977,8.5854153 12.698206,7.565261 11.726015,6.83989 10.710985,6.7872411 10.155531,6.7350302 9.595731,6.810171 9.0564942,6.9435058 9.2317279,5.7989683 10.099745,4.7562451 11.264945,4.541304 c 0.3591,-0.1749779 1.00476,0.057923 1.215823,-0.10601 -0.004,-0.4144491 -0.0081,-0.8288983 -0.01211,-1.2433474 z m -2.285851,4.8991017 c 0.664396,-0.046013 1.31331,0.4675204 1.351659,1.1452131 0.105329,0.7333321 -0.479972,1.5092526 -1.248663,1.4856036 C 9.4917457,10.785452 8.7880446,10.054181 8.8479688,9.2683475 8.8510072,8.5601707 9.496902,8.0508927 10.182806,8.0910483 Z" style="fill:#000000;fill-opacity:1" transform="translate(1,1)"/>
</svg>
