<?xml version='1.0' encoding='utf-8'?>
<svg xmlns:dc="http://purl.org/dc/elements/1.1/" xmlns:cc="http://creativecommons.org/ns#" xmlns:rdf="http://www.w3.org/1999/02/22-rdf-syntax-ns#" xmlns="http://www.w3.org/2000/svg" id="svg2" viewBox="0 0 16 16" height="100%" width="100%" version="1.1">
  <metadata id="metadata8">
    <rdf:RDF>
      <cc:Work rdf:about="">
        <dc:format>image/svg+xml</dc:format>
        <dc:type rdf:resource="http://purl.org/dc/dcmitype/StillImage"/>
        <dc:title/>
      </cc:Work>
    </rdf:RDF>
  </metadata>
  <defs id="defs6"/>
  <rect style="fill:none;stroke:none;visibility:hidden" id="canvas" y="0" x="0" height="16" width="16"/><rect x="1" y="1" width="14" height="14" rx="3" ry="3" id="shield" style="fill:#ffffff;fill-opacity:0.3;stroke:#000000;stroke-width:0.1;stroke-opacity:1;"/>
  <path id="sac-tiii" d="M 9.3737113,8 C 10.065501,8.0429631 10.907916,8.1298903 11.32253,8.7600344 11.642407,9.4087076 11.163025,10.258472 10.444324,10.331985 9.9517596,10.448861 9.3149836,10.32839 9.1219338,9.7986661 8.8936284,9.5504742 9.2137577,8.8934128 8.7586692,9 8.1724462,9 7.5862231,9 7,9 c 0.1089663,1.224507 0.8124018,2.524795 2.065746,2.875108 1.148125,0.296196 2.504954,0.105716 3.391771,-0.727625 C 13.085353,10.58643 13.2209,9.676723 13.006075,8.894448 12.850653,8.2116505 12.355782,7.5787463 11.665114,7.3870854 12.487612,7.0829218 13.123738,6.2424621 13.010837,5.3431898 12.987533,4.412405 12.349078,3.5604474 11.470659,3.2603611 10.244927,2.7968275 8.7150632,2.9203175 7.7565545,3.8825736 7.1952612,4.4248172 6.9337821,5.2292264 7,6 7.6666667,6 8.3333333,6 9,6 8.8764284,5.4478746 9.0391353,4.6951462 9.670718,4.5476551 c 0.604614,-0.1532725 1.456564,1.577e-4 1.6494,0.686817 0.176331,0.5244868 0.05033,1.1990983 -0.501219,1.4431917 C 10.380278,6.9106951 9.8750149,6.9873841 9.3835899,7 M 1,3 c 0,0.6666667 0,1.3333333 0,2 0.6666667,0 1.3333333,0 2,0 0,2.3333333 0,4.6666667 0,7 0.6666667,0 1.3333333,0 2,0 C 5,9.6666667 5,7.3333333 5,5 5.6666667,5 6.3333333,5 7,5 7,4.3333333 7,3.6666667 7,3 5,3 3,3 1,3 Z" style="fill:#ff0e00;fill-opacity:1" transform="translate(1,1)"/>
</svg>
