<?xml version='1.0' encoding='utf-8'?>
<svg xmlns:dc="http://purl.org/dc/elements/1.1/" xmlns:cc="http://creativecommons.org/ns#" xmlns:rdf="http://www.w3.org/1999/02/22-rdf-syntax-ns#" xmlns="http://www.w3.org/2000/svg" id="svg2" viewBox="0 0 16 16" height="100%" width="100%" version="1.1">
  <metadata id="metadata8">
    <rdf:RDF>
      <cc:Work rdf:about="">
        <dc:format>image/svg+xml</dc:format>
        <dc:type rdf:resource="http://purl.org/dc/dcmitype/StillImage"/>
        <dc:title/>
      </cc:Work>
    </rdf:RDF>
  </metadata>
  <defs id="defs6"/>
  <rect style="fill:none;stroke:none;visibility:hidden" id="canvas" y="0" x="0" height="16" width="16"/><rect x="1" y="1" width="14" height="14" rx="3" ry="3" id="shield" style="fill:#fd817a;fill-opacity:0.3;stroke:#000000;stroke-width:0.1;stroke-opacity:1;"/>
  <path id="sac-tii" d="m 13,12 c 0,-0.533333 0,-1.066667 0,-1.6 -1.190667,0 -2.381333,0 -3.572,0 C 10.674987,9.341219 11.91025,8.1911103 12.686208,6.7307684 13.150406,5.9056695 13.080528,4.8068341 12.43424,4.0972873 11.28925,2.7534573 8.9965688,2.6110425 7.7430668,3.8810144 7.1860237,4.4262758 6.934491,5.2313703 7,6 7.6666667,6 8.3333333,6 9,6 8.9150541,5.3852923 9.1948146,4.5993248 9.8933204,4.5142702 10.435878,4.4001466 11.165614,4.571558 11.297719,5.1908177 11.50528,5.9797635 11.038739,6.7310113 10.528459,7.2918781 9.4864996,8.4708468 8.2204723,9.4175266 7,10.4 6.9748367,10.932894 6.9745424,11.467116 7,12 M 1,3 c 0,0.6666667 0,1.3333333 0,2 0.6666667,0 1.3333333,0 2,0 0,2.3333333 0,4.6666667 0,7 0.6666667,0 1.3333333,0 2,0 C 5,9.6666667 5,7.3333333 5,5 5.6666667,5 6.3333333,5 7,5 7,4.3333333 7,3.6666667 7,3 5,3 3,3 1,3 Z" style="fill:#000000;fill-opacity:1" transform="translate(1,1)"/>
</svg>
