<?xml version='1.0' encoding='utf-8'?>
<svg xmlns:dc="http://purl.org/dc/elements/1.1/" xmlns:cc="http://creativecommons.org/ns#" xmlns:rdf="http://www.w3.org/1999/02/22-rdf-syntax-ns#" xmlns="http://www.w3.org/2000/svg" id="svg2" viewBox="0 0 16 16" height="100%" width="100%" version="1.1">
  <metadata id="metadata8">
    <rdf:RDF>
      <cc:Work rdf:about="">
        <dc:format>image/svg+xml</dc:format>
        <dc:type rdf:resource="http://purl.org/dc/dcmitype/StillImage"/>
        <dc:title/>
      </cc:Work>
    </rdf:RDF>
  </metadata>
  <defs id="defs6"/>
  <rect style="fill:none;stroke:none;visibility:hidden" id="canvas" y="0" x="0" height="16" width="16"/><rect x="1" y="1" width="14" height="14" rx="3" ry="3" id="shield" style="fill:#ffe700;fill-opacity:0.3;stroke:#000000;stroke-width:0.1;stroke-opacity:1;"/>
  <path id="sac-ti" d="m 1,3 c 0,0.6666667 0,1.3333333 0,2 0.6666667,0 1.3333333,0 2,0 0,2.3333333 0,4.6666667 0,7 0.6666667,0 1.3333333,0 2,0 C 5,9.6666667 5,7.3333333 5,5 5.6666667,5 6.3333333,5 7,5 7,4.3333333 7,3.6666667 7,3 5,3 3,3 1,3 Z M 11,3 C 10,3.5 9,4 8,4.5 8.21875,5 8.4375,5.5 8.65625,6 9.4375,5.6666667 10.21875,5.3333333 11,5 c 0,2.3333333 0,4.6666667 0,7 0.666667,0 1.333333,0 2,0 0,-3 0,-6 0,-9 -0.666667,0 -1.333333,0 -2,0 z" style="fill:#000000;fill-opacity:1" transform="translate(1.0,1.0)"/>
</svg>
