<?xml version='1.0' encoding='utf-8'?>
<svg xmlns:dc="http://purl.org/dc/elements/1.1/" xmlns:cc="http://creativecommons.org/ns#" xmlns:rdf="http://www.w3.org/1999/02/22-rdf-syntax-ns#" xmlns="http://www.w3.org/2000/svg" version="1.1" width="100%" height="100%" viewBox="0 0 18 18" id="svg2">
  <metadata id="metadata8">
    <rdf:RDF>
      <cc:Work rdf:about="">
        <dc:format>image/svg+xml</dc:format>
        <dc:type rdf:resource="http://purl.org/dc/dcmitype/StillImage"/>
        <dc:title/>
      </cc:Work>
    </rdf:RDF>
  </metadata>
  <defs id="defs6"/>
  <rect width="18" height="18" x="0" y="0" id="canvas" style="fill:none;stroke:none;visibility:hidden"/>
  <path d="M 10.90625,0.15625 C 10.857795,0.1531041 10.796181,0.17061278 10.75,0.21875 L 9.4375,1.53125 C 9.2875022,1.712513 9.579016,1.9596826 9.75,1.8125 L 11.0625,0.5 C 11.165454,0.36423433 11.051616,0.16568771 10.90625,0.15625 z M 1.75,0.1875 C 1.7015445,0.1843541 1.6399305,0.20186278 1.59375,0.25 l -1.3125,1.3125 c -0.14999777,0.181263 0.141516,0.4284326 0.3125,0.28125 l 1.3125,-1.3125 C 2.009204,0.39548432 1.8953664,0.19693771 1.75,0.1875 z M 4.40625,0.25 C 4.3577945,0.2468541 4.2961805,0.26436278 4.25,0.3125 L 2.9375,1.625 C 2.7875022,1.806263 3.079016,2.0534326 3.25,1.90625 L 4.5625,0.59375 C 4.665454,0.45798432 4.5516164,0.25943771 4.40625,0.25 z m 2.6875,0.03125 c -0.048456,-0.003146 -0.078819,0.0143628 -0.125,0.0625 l -1.3125,1.3125 C 5.5062522,1.837513 5.797766,2.0846826 5.96875,1.9375 L 7.28125,0.625 C 7.384204,0.48923432 7.2391164,0.29068771 7.09375,0.28125 z M 13,0.40625 c -0.04846,-0.003146 -0.07882,0.0143628 -0.125,0.0625 l -1.3125,1.3125 c -0.149998,0.181263 0.110266,0.4284326 0.28125,0.28125 L 13.15625,0.75 C 13.259204,0.61423432 13.145366,0.41568771 13,0.40625 z m -3.9375,0.0625 c -0.048455,-0.003146 -0.1100695,0.0143628 -0.15625,0.0625 l -1.3125,1.3125 c -0.1499978,0.181263 0.141516,0.4596826 0.3125,0.3125 L 9.21875,0.8125 C 9.321704,0.67673432 9.2078664,0.47818771 9.0625,0.46875 z m -6.59375,0.5625 c -0.048456,-0.00315 -0.078819,0.014363 -0.125,0.0625 l -1.3125,1.3125 c -0.14999776,0.181263 0.141516,0.4596826 0.3125,0.3125 L 2.65625,1.375 C 2.759204,1.2392343 2.6141164,1.0406877 2.46875,1.03125 z M 11.09375,1.5 c -0.04846,-0.00315 -0.110069,0.014363 -0.15625,0.0625 L 9.625,2.875 C 9.4750022,3.056263 9.766516,3.3034326 9.9375,3.15625 L 11.25,1.84375 C 11.352954,1.7079843 11.239116,1.5094377 11.09375,1.5 z M 4.75,1.625 c -0.048456,-0.00315 -0.078819,0.014363 -0.125,0.0625 L 3.3125,3 C 3.1625022,3.181263 3.454016,3.4596826 3.625,3.3125 L 4.9375,1.96875 C 5.040454,1.8329843 4.8953664,1.6344377 4.75,1.625 z M 7,2 0,6 0,7 2,6 l 0,8 2,0 0,-7 6,0 0,7 2,0 0,-8 2,1 0,-1 -7,-4 z m 5.75,0 c -0.04846,-0.00315 -0.110069,0.014363 -0.15625,0.0625 l -1.3125,1.3125 c -0.149998,0.181263 0.141516,0.4284326 0.3125,0.28125 l 1.3125,-1.3125 C 13.009204,2.2079843 12.895366,2.0094377 12.75,2 z m -11,1 c -0.048455,-0.00315 -0.07882,0.014363 -0.125,0.0625 L 0.3125,4.375 C 0.16250223,4.556263 0.454016,4.8346826 0.625,4.6875 L 1.9375,3.34375 C 2.040454,3.2079843 1.8953664,3.0094377 1.75,3 z m 11.96875,0.21875 c -0.04846,-0.00315 -0.110069,0.014363 -0.15625,0.0625 l -1.28125,1.3125 C 12.131252,4.775013 12.391516,5.0221826 12.5625,4.875 L 13.875,3.5625 C 13.977954,3.4267343 13.864116,3.2281877 13.71875,3.21875 z" id="halo" style="fill:#ffffff;stroke:#ffffff;stroke-width:2.0;opacity:1.0;" transform="translate(2.0,2.0)"/>
<path d="M 10.90625,0.15625 C 10.857795,0.1531041 10.796181,0.17061278 10.75,0.21875 L 9.4375,1.53125 C 9.2875022,1.712513 9.579016,1.9596826 9.75,1.8125 L 11.0625,0.5 C 11.165454,0.36423433 11.051616,0.16568771 10.90625,0.15625 z M 1.75,0.1875 C 1.7015445,0.1843541 1.6399305,0.20186278 1.59375,0.25 l -1.3125,1.3125 c -0.14999777,0.181263 0.141516,0.4284326 0.3125,0.28125 l 1.3125,-1.3125 C 2.009204,0.39548432 1.8953664,0.19693771 1.75,0.1875 z M 4.40625,0.25 C 4.3577945,0.2468541 4.2961805,0.26436278 4.25,0.3125 L 2.9375,1.625 C 2.7875022,1.806263 3.079016,2.0534326 3.25,1.90625 L 4.5625,0.59375 C 4.665454,0.45798432 4.5516164,0.25943771 4.40625,0.25 z m 2.6875,0.03125 c -0.048456,-0.003146 -0.078819,0.0143628 -0.125,0.0625 l -1.3125,1.3125 C 5.5062522,1.837513 5.797766,2.0846826 5.96875,1.9375 L 7.28125,0.625 C 7.384204,0.48923432 7.2391164,0.29068771 7.09375,0.28125 z M 13,0.40625 c -0.04846,-0.003146 -0.07882,0.0143628 -0.125,0.0625 l -1.3125,1.3125 c -0.149998,0.181263 0.110266,0.4284326 0.28125,0.28125 L 13.15625,0.75 C 13.259204,0.61423432 13.145366,0.41568771 13,0.40625 z m -3.9375,0.0625 c -0.048455,-0.003146 -0.1100695,0.0143628 -0.15625,0.0625 l -1.3125,1.3125 c -0.1499978,0.181263 0.141516,0.4596826 0.3125,0.3125 L 9.21875,0.8125 C 9.321704,0.67673432 9.2078664,0.47818771 9.0625,0.46875 z m -6.59375,0.5625 c -0.048456,-0.00315 -0.078819,0.014363 -0.125,0.0625 l -1.3125,1.3125 c -0.14999776,0.181263 0.141516,0.4596826 0.3125,0.3125 L 2.65625,1.375 C 2.759204,1.2392343 2.6141164,1.0406877 2.46875,1.03125 z M 11.09375,1.5 c -0.04846,-0.00315 -0.110069,0.014363 -0.15625,0.0625 L 9.625,2.875 C 9.4750022,3.056263 9.766516,3.3034326 9.9375,3.15625 L 11.25,1.84375 C 11.352954,1.7079843 11.239116,1.5094377 11.09375,1.5 z M 4.75,1.625 c -0.048456,-0.00315 -0.078819,0.014363 -0.125,0.0625 L 3.3125,3 C 3.1625022,3.181263 3.454016,3.4596826 3.625,3.3125 L 4.9375,1.96875 C 5.040454,1.8329843 4.8953664,1.6344377 4.75,1.625 z M 7,2 0,6 0,7 2,6 l 0,8 2,0 0,-7 6,0 0,7 2,0 0,-8 2,1 0,-1 -7,-4 z m 5.75,0 c -0.04846,-0.00315 -0.110069,0.014363 -0.15625,0.0625 l -1.3125,1.3125 c -0.149998,0.181263 0.141516,0.4284326 0.3125,0.28125 l 1.3125,-1.3125 C 13.009204,2.2079843 12.895366,2.0094377 12.75,2 z m -11,1 c -0.048455,-0.00315 -0.07882,0.014363 -0.125,0.0625 L 0.3125,4.375 C 0.16250223,4.556263 0.454016,4.8346826 0.625,4.6875 L 1.9375,3.34375 C 2.040454,3.2079843 1.8953664,3.0094377 1.75,3 z m 11.96875,0.21875 c -0.04846,-0.00315 -0.110069,0.014363 -0.15625,0.0625 l -1.28125,1.3125 C 12.131252,4.775013 12.391516,5.0221826 12.5625,4.875 L 13.875,3.5625 C 13.977954,3.4267343 13.864116,3.2281877 13.71875,3.21875 z" id="shelter" style="fill:#734a08;fill-opacity:1" transform="translate(2.0,2.0)"/>
</svg>
