<?xml version='1.0' encoding='utf-8'?>
<svg xmlns:dc="http://purl.org/dc/elements/1.1/" xmlns:cc="http://creativecommons.org/ns#" xmlns:rdf="http://www.w3.org/1999/02/22-rdf-syntax-ns#" xmlns="http://www.w3.org/2000/svg" version="1.1" width="100%" height="100%" viewBox="0 0 16 16" id="svg2">
  <metadata id="metadata8">
    <rdf:RDF>
      <cc:Work rdf:about="">
        <dc:format>image/svg+xml</dc:format>
        <dc:type rdf:resource="http://purl.org/dc/dcmitype/StillImage"/>
        <dc:title/>
      </cc:Work>
    </rdf:RDF>
  </metadata>
  <defs id="defs6"/>
  <rect width="16" height="16" x="0" y="0" id="canvas" style="fill:none;stroke:none;visibility:hidden"/>
  <path d="m 4.9733313,12.887779 c 0.00944,0.477235 0.5327768,1.01151 1.0100928,1.015034 0.480521,0.0035 1.026547,-0.526223 1.031854,-1.006729 0.0056,-0.503599 -0.55431,-1.086862 -1.057874,-1.078743 -0.484617,0.0078 -0.993662,0.585852 -0.9840728,1.070438 z M 4.942653,5.9793865 C 4.3063877,6.649054 3.9980841,6.9725045 3.408584,7.6217745 2.819083,8.2710435 3.5645027,8.9393905 4.1181269,8.2887105 4.671751,7.6380305 5.1676788,7.2264565 5.6852431,6.6109554 6.2028073,5.9954543 5.5789183,5.309719 4.942653,5.9793865 z M 8.9241919,1.152393 C 8.9336357,1.6296278 9.456969,2.163903 9.9342842,2.1674268 10.414806,2.1709744 10.960832,1.6412044 10.966139,1.1606985 10.971702,0.65709961 10.411829,0.07383613 9.9082646,0.08195562 9.4236473,0.08976962 8.9146027,0.66780755 8.9241919,1.152393 z M 6.3347458,7.220339 C 5.6984805,7.8900065 2.2231775,12.387184 1.6336769,13.036454 1.0441762,13.685723 1.7895961,14.35407 2.3432203,13.70339 2.8968445,13.05271 6.5597716,8.467409 7.0773359,7.8519079 7.5949001,7.2364068 6.9710111,6.5506715 6.3347458,7.220339 z M 2.3791003,5.2383303 6.9513247,3.6232655 C 8.1605722,3.1961183 5.4598408,5.1117249 5.7860074,5.4135304 6.3737549,5.9573795 7.0013255,6.3720854 7.718934,7.0787429 7.9922008,7.3478395 10.043358,4.0990867 10.281855,4.100505 10.782514,4.103485 11.627523,5.2876894 11.627523,5.2876894 10.851504,6.0075169 10.327688,6.2069663 9.3296364,6.7483179 8.9156666,6.9728586 9.2317604,7.6083016 9.77008,7.3147075 11.848497,6.3482644 12.48239,6.1052922 12.608232,5.3288478 12.608232,4.7655593 11.495026,3.473897 10.64345,2.8539741 10.19266,2.5258118 9.0771658,2.2667159 9.0771658,2.2667159 c 0,0 -1.0712357,-0.076812 -1.5662847,0.1048675 L 2.0997164,4.3574431 C 1.1609392,4.7019677 1.4361967,5.5713959 2.3791003,5.2383303 z" id="soccer" style="fill:#734a08;fill-opacity:1" transform="translate(1,1)"/>
</svg>
