<?xml version='1.0' encoding='utf-8'?>
<svg xmlns:dc="http://purl.org/dc/elements/1.1/" xmlns:cc="http://creativecommons.org/ns#" xmlns:rdf="http://www.w3.org/1999/02/22-rdf-syntax-ns#" xmlns="http://www.w3.org/2000/svg" id="svg2" viewBox="0 0 18 18" height="100%" width="100%" version="1.1">
  <metadata id="metadata8">
    <rdf:RDF>
      <cc:Work rdf:about="">
        <dc:format>image/svg+xml</dc:format>
        <dc:type rdf:resource="http://purl.org/dc/dcmitype/StillImage"/>
        <dc:title/>
      </cc:Work>
    </rdf:RDF>
  </metadata>
  <defs id="defs6"/>
  <rect style="fill:none;stroke:none;visibility:hidden" id="canvas" y="0" x="0" height="18" width="18"/>
  <path style="fill:#ffffff;stroke:#ffffff;stroke-width:2.0;opacity:1.0;" id="halo" d="M 2.715479,6.2508841 C 2.1838878,6.8953293 2.4991569,8.0842063 3.0182827,8.7387346 5.0974944,11.360262 8.4639884,8.8962436 11.500526,9.6284542 12.498057,9.8689924 13.585952,7.8725754 13.137908,6.9163046 12.298476,5.124683 9.139677,6.7307593 7.191289,6.4574648 5.696285,6.247765 3.6761059,5.0863212 2.715479,6.2508841 Z M 3,10 C 2.3083134,9.7222856 2,12 2,12 l 10,0 c 0,0 0.81342,-1.737322 -1,-2 -1.8995562,-0.2751546 -5.3652427,1.057863 -8,0 z" transform="translate(2.0,2.0)"/>
<path style="fill:#555555;fill-opacity:1" id="stone" d="M 2.715479,6.2508841 C 2.1838878,6.8953293 2.4991569,8.0842063 3.0182827,8.7387346 5.0974944,11.360262 8.4639884,8.8962436 11.500526,9.6284542 12.498057,9.8689924 13.585952,7.8725754 13.137908,6.9163046 12.298476,5.124683 9.139677,6.7307593 7.191289,6.4574648 5.696285,6.247765 3.6761059,5.0863212 2.715479,6.2508841 Z M 3,10 C 2.3083134,9.7222856 2,12 2,12 l 10,0 c 0,0 0.81342,-1.737322 -1,-2 -1.8995562,-0.2751546 -5.3652427,1.057863 -8,0 z" transform="translate(2.0,2.0)"/>
</svg>
