<?xml version='1.0' encoding='utf-8'?>
<svg xmlns:dc="http://purl.org/dc/elements/1.1/" xmlns:cc="http://creativecommons.org/ns#" xmlns:rdf="http://www.w3.org/1999/02/22-rdf-syntax-ns#" xmlns="http://www.w3.org/2000/svg" version="1.1" width="100%" height="100%" viewBox="0 0 16 16" id="svg2">
  <metadata id="metadata8">
    <rdf:RDF>
      <cc:Work rdf:about="">
        <dc:format>image/svg+xml</dc:format>
        <dc:type rdf:resource="http://purl.org/dc/dcmitype/StillImage"/>
        <dc:title/>
      </cc:Work>
    </rdf:RDF>
  </metadata>
  <defs id="defs6"/>
  <rect width="16" height="16" x="0" y="0" id="canvas" style="fill:none;stroke:none;visibility:hidden"/>
  <path d="M 9.90625,0.09375 C 9.4216327,0.101564 8.9279108,0.67166455 8.9375,1.15625 c 0.00944,0.4772348 0.5226848,0.9964762 1,1 0.480522,0.00355 1.025943,-0.5194941 1.03125,-1 0.0056,-0.50359889 -0.558936,-1.07061949 -1.0625,-1.0625 z M 0.62575392,0.54129117 C 0.05511332,0.7729918 0.01519435,1.764127 0.22192797,2.3442797 0.38598654,2.8046741 1.1483408,3.121352 1.375,3.25 1.5371485,3.3420328 1.7439749,4.0728304 2,4.40625 1.202508,4.7764039 1.4732372,5.5685333 2.375,5.25 L 6.9375,3.625 C 8.1467475,3.1978528 5.4550834,5.1044445 5.78125,5.40625 c 0.5877475,0.5438491 1.2198915,0.9808425 1.9375,1.6875 0.2732668,0.2690966 2.324003,-3.0014183 2.5625,-3 0.500659,0.00298 1.34375,1.1875 1.34375,1.1875 C 10.848981,6.0010775 10.341802,6.2086484 9.34375,6.75 8.9297802,6.9745407 9.2429304,7.6060941 9.78125,7.3125 c 2.078417,-0.9664431 2.686658,-1.1923056 2.8125,-1.96875 0,-0.5632885 -1.085924,-1.8800771 -1.9375,-2.5 C 10.20546,2.5155877 9.0625,2.28125 9.0625,2.28125 c 0,0 -1.067451,-0.087929 -1.5625,0.09375 L 2.4375,4.21875 C 2.3505345,3.8239843 1.8957225,3.1825282 1.970339,3.0105932 2.0746978,2.7701246 2.4022294,2.0191445 2.2070975,1.5752119 1.9536754,0.99866708 1.2092703,0.30436249 0.62575392,0.54129117 z M 2.0233051,1.6520127 C 2.1647166,2.0678586 2.021721,2.7402829 1.6144068,2.904661 1.1895329,3.0761255 0.59370159,2.6754688 0.40042373,2.2600636 0.18503597,1.7971383 0.24807189,0.95176349 0.72228649,0.76252232 1.2102104,0.5678103 1.8541709,1.1546435 2.0233051,1.6520127 z M 5.40625,5.71875 C 5.2663725,5.7390171 5.0965663,5.8013331 4.9375,5.96875 4.3012347,6.6384175 3.9957501,6.97573 3.40625,7.625 2.816749,8.274269 3.5713758,8.93193 4.125,8.28125 4.6786241,7.63057 5.1699357,7.2405011 5.6875,6.625 6.0756732,6.1633742 5.8258824,5.6579487 5.40625,5.71875 z m 1.375,1.21875 C 6.6413725,6.9577671 6.5028163,7.0513331 6.34375,7.21875 5.7074847,7.8884175 2.2145006,12.38198 1.625,13.03125 1.0354993,13.680519 1.7901258,14.36943 2.34375,13.71875 2.8973742,13.06807 6.5449357,8.4592511 7.0625,7.84375 7.4506732,7.3821242 7.2008824,6.8766987 6.78125,6.9375 z" id="tennis" style="fill:#734a08;fill-opacity:1" transform="translate(1,1)"/>
</svg>
