<?xml version='1.0' encoding='utf-8'?>
<svg xmlns:dc="http://purl.org/dc/elements/1.1/" xmlns:cc="http://creativecommons.org/ns#" xmlns:rdf="http://www.w3.org/1999/02/22-rdf-syntax-ns#" xmlns="http://www.w3.org/2000/svg" id="svg2" viewBox="0 0 16 16" height="100%" width="100%" version="1.1">
  <metadata id="metadata8">
    <rdf:RDF>
      <cc:Work rdf:about="">
        <dc:format>image/svg+xml</dc:format>
        <dc:type rdf:resource="http://purl.org/dc/dcmitype/StillImage"/>
        <dc:title/>
      </cc:Work>
    </rdf:RDF>
  </metadata>
  <defs id="defs6"/>
  <rect style="fill:none;stroke:none;visibility:hidden" id="canvas" y="0" x="0" height="16" width="16"/>
  <path style="fill:#000000;fill-opacity:1" id="traffic-signal" d="m 4,2 0,10 c 0,0 0.037318,2 3,2 2.9626816,0 3,-2 3,-2 L 10,2 C 10,2 9.9836551,0.02097351 7,0 4.0163449,-0.02097351 4,2 4,2 Z M 7,5 C 7.942809,5 9,6.057191 9,7 9,7.942809 7.942809,9 7,9 6.057191,9 5,7.942809 5,7 5,6.057191 6.057191,5 7,5 Z m 0,4.5 c 0.942809,0 2,1.057191 2,2 0,0.942809 -1.057191,2 -2,2 -0.942809,0 -2,-1.057191 -2,-2 0,-0.942809 1.057191,-2 2,-2 z m 0,-9 c 0.942809,0 2,1.057191 2,2 0,0.942809 -1.057191,2 -2,2 -0.942809,0 -2,-1.057191 -2,-2 0,-0.942809 1.057191,-2 2,-2 z" transform="translate(1.0,1.0)"/>
</svg>
