<?xml version='1.0' encoding='utf-8'?>
<svg xmlns:dc="http://purl.org/dc/elements/1.1/" xmlns:cc="http://creativecommons.org/ns#" xmlns:rdf="http://www.w3.org/1999/02/22-rdf-syntax-ns#" xmlns="http://www.w3.org/2000/svg" id="svg2" viewBox="0 0 18 18" height="100%" width="100%" version="1.1">
  <metadata id="metadata8">
    <rdf:RDF>
      <cc:Work rdf:about="">
        <dc:format>image/svg+xml</dc:format>
        <dc:type rdf:resource="http://purl.org/dc/dcmitype/StillImage"/>
        <dc:title/>
      </cc:Work>
    </rdf:RDF>
  </metadata>
  <defs id="defs6"/>
  <rect style="fill:none;stroke:none;visibility:hidden" id="canvas" y="0" x="0" height="18" width="18"/>
  <path style="fill:#ffffff;stroke:#ffffff;stroke-width:2.0;opacity:0.6;" d="M 6.9678217,1.0329599 C 5.8762286,2.4741093 4.8405683,3.9987734 4.2236,5.7102876 3.9467917,6.4574484 3.8776287,7.2878532 4.1291147,8.0522274 4.6363135,9.700172 5.6041427,11.158117 6.5999628,12.548022 6.7945389,12.826869 7.0040066,13.233759 7.2032267,12.726257 8.2308629,11.319097 9.2220105,9.8404353 9.7709833,8.1728343 10.034632,7.4166079 10.020686,6.5851522 9.7520691,5.8323894 9.174709,4.1349503 8.1568474,2.6290276 7.0967279,1.1990587 7.0541221,1.1434128 7.0113386,1.0878981 6.9678217,1.0329599 Z m 2,6 C 8.9184715,7.9719954 8.1307433,8.7920558 7.2350373,9.0060501 6.319643,9.158792 5.4711204,8.4461673 5.1073229,7.6558349 4.7083806,6.833673 5.2402925,5.8997465 5.9206888,5.4171802 6.4367451,5.004898 7.1909196,4.8968402 7.7643958,5.2577719 c 0.6327254,0.361816 1.180728,1.0199272 1.2034259,1.775188 z" id="halo" transform="translate(2.0,2.0)"/>
<path style="fill:#774422;fill-opacity:0.6" d="M 6.9678217,1.0329599 C 5.8762286,2.4741093 4.8405683,3.9987734 4.2236,5.7102876 3.9467917,6.4574484 3.8776287,7.2878532 4.1291147,8.0522274 4.6363135,9.700172 5.6041427,11.158117 6.5999628,12.548022 6.7945389,12.826869 7.0040066,13.233759 7.2032267,12.726257 8.2308629,11.319097 9.2220105,9.8404353 9.7709833,8.1728343 10.034632,7.4166079 10.020686,6.5851522 9.7520691,5.8323894 9.174709,4.1349503 8.1568474,2.6290276 7.0967279,1.1990587 7.0541221,1.1434128 7.0113386,1.0878981 6.9678217,1.0329599 Z m 2,6 C 8.9184715,7.9719954 8.1307433,8.7920558 7.2350373,9.0060501 6.319643,9.158792 5.4711204,8.4461673 5.1073229,7.6558349 4.7083806,6.833673 5.2402925,5.8997465 5.9206888,5.4171802 6.4367451,5.004898 7.1909196,4.8968402 7.7643958,5.2577719 c 0.6327254,0.361816 1.180728,1.0199272 1.2034259,1.775188 z" id="trail-visibility-bad" transform="translate(2.0,2.0)"/>
</svg>
