<?xml version='1.0' encoding='utf-8'?>
<svg xmlns:dc="http://purl.org/dc/elements/1.1/" xmlns:cc="http://creativecommons.org/ns#" xmlns:rdf="http://www.w3.org/1999/02/22-rdf-syntax-ns#" xmlns="http://www.w3.org/2000/svg" version="1.1" width="100%" height="100%" viewBox="0 0 16 16" id="svg2">
  <metadata id="metadata8">
    <rdf:RDF>
      <cc:Work rdf:about="">
        <dc:format>image/svg+xml</dc:format>
        <dc:type rdf:resource="http://purl.org/dc/dcmitype/StillImage"/>
        <dc:title/>
      </cc:Work>
    </rdf:RDF>
  </metadata>
  <defs id="defs6"/>
  <rect width="16" height="16" x="0" y="0" id="canvas" style="fill:none;stroke:none;visibility:hidden"/>
  <path d="M 12,3.5 12,13 8.000002,13 8.000001,8 11,8 11,6 8.000001,6 l 0,-2 c 0,0 0,-1 -1.000001,-1 C 5.999999,3 6.000001,4 6.000001,4 L 6,6 3,6 3,8 6,8 6,13 2,13 2,3.5 7,1 M 7,0 1,3 1,14 13,14 13,3" id="wayside-shrine" style="fill:#734a08;fill-opacity:1" transform="translate(1.0,1.0)"/>
</svg>
