<?xml version='1.0' encoding='utf-8'?>
<svg xmlns:dc="http://purl.org/dc/elements/1.1/" xmlns:cc="http://creativecommons.org/ns#" xmlns:rdf="http://www.w3.org/1999/02/22-rdf-syntax-ns#" xmlns="http://www.w3.org/2000/svg" version="1.1" width="100%" height="100%" viewBox="0 0 16 16" id="svg2">
  <metadata id="metadata8">
    <rdf:RDF>
      <cc:Work rdf:about="">
        <dc:format>image/svg+xml</dc:format>
        <dc:type rdf:resource="http://purl.org/dc/dcmitype/StillImage"/>
        <dc:title/>
      </cc:Work>
    </rdf:RDF>
  </metadata>
  <defs id="defs6"/>
  <rect width="16" height="16" x="0" y="0" id="canvas" style="fill:none;stroke:none;visibility:hidden"/>
  <path style="fill:#734a08;fill-opacity:1" d="M 1.3713172,4.5704379 C 0.72499245,5.1830079 1.0408941,6.1938025 1.5805187,6.7611179 2.1290442,7.4411735 3.1180434,7.9400958 3.9595478,7.4871318 4.6810175,7.0977893 4.574275,6.0963307 4.2076611,5.4945998 3.724323,4.7014025 2.7465556,4.0493282 1.7931734,4.3082292 1.6345013,4.3606696 1.4877497,4.4502022 1.3713172,4.5704379 Z M 4.1411754,1.728104 C 3.5273002,2.4124856 3.9387875,3.4338947 4.4874119,4.0237628 5.0339452,4.6400143 5.9996009,5.0429715 6.7762141,4.6310275 7.5348044,4.0798222 7.3514615,2.9101406 6.7618606,2.299552 6.2215233,1.6583285 5.2695849,1.0451923 4.4328773,1.4982959 4.3253422,1.5605209 4.2277501,1.6391865 4.1411754,1.728104 Z M 0.75059794,9.6402324 C 0.85318135,10.536234 1.7548105,11.17152 2.6033603,11.275553 3.387839,11.455902 4.0712893,10.650439 3.8636376,9.8995334 3.6588062,8.8685505 2.4794059,7.990825 1.4487733,8.4627294 0.95927673,8.631494 0.71562154,9.1460393 0.75059794,9.6402324 Z M 8.0328242,1.9883561 C 7.9777047,2.7045939 8.501894,3.3479747 9.0578976,3.741863 9.6831979,4.1961139 10.75629,4.0136775 10.987756,3.2098351 11.171224,2.1867991 10.413133,1.0386557 9.3766873,0.86944938 8.730336,0.85934498 8.1679102,1.3700045 8.0328242,1.9883561 Z M 5.9429436,6.1478445 C 5.3041158,6.805108 5.6527682,7.7761643 5.7822831,8.5594411 6.0174729,9.4606489 5.7296212,10.360002 5.622214,11.253212 c -0.106752,0.655529 0.267313,1.269813 0.8137453,1.607944 0.6455279,0.533173 1.5963672,0.562875 2.2947999,0.115403 C 9.9013819,12.265156 10.778937,11.182778 11.733604,10.220545 12.407826,9.4602057 13.233767,8.5736514 13.117719,7.4759309 13.005485,6.8104289 12.567508,6.1816858 11.981619,5.8521017 10.861465,5.5031262 9.7857258,6.3881249 8.6527877,6.158764 7.8820891,6.091004 7.113537,5.5746588 6.3378937,5.8652265 6.1883856,5.9307494 6.0562832,6.0312396 5.9429436,6.1478445 Z" id="zoo" transform="translate(1,1)"/>
</svg>
