<?xml version='1.0' encoding='utf-8'?>
<svg xmlns:dc="http://purl.org/dc/elements/1.1/" xmlns:cc="http://creativecommons.org/ns#" xmlns:rdf="http://www.w3.org/1999/02/22-rdf-syntax-ns#" xmlns="http://www.w3.org/2000/svg" id="svg2" viewBox="0 0 34 34" height="100%" width="100%" version="1.1">
  <metadata id="metadata8">
    <rdf:RDF>
      <cc:Work rdf:about="">
        <dc:format>image/svg+xml</dc:format>
        <dc:type rdf:resource="http://purl.org/dc/dcmitype/StillImage"/>
        <dc:title/>
      </cc:Work>
    </rdf:RDF>
  </metadata>
  <defs id="defs6"/>
  <rect style="fill:none;stroke:none;visibility:hidden" id="canvas" y="0" x="0" height="34" width="34"/><rect x="1" y="1" width="32" height="32" id="shield" style="fill:#c2b48c;fill-opacity:0.5;stroke:none;"/>
  <path style="fill:#25281e;fill-opacity:0.5" id="bare-rock" d="m 15.327801,30.399864 c -0.503088,0.697988 4.284853,0.423847 5.338983,0.423847 1.05413,0 0.282749,-2.30213 -0.220339,-3.000118 -0.503088,-0.697988 -4.615556,1.878283 -5.118644,2.576271 z m 5.773894,-7.283533 c -0.643409,0.851361 5.641205,0.633758 6.694915,0.464966 0.987412,-0.158171 0.692387,-2.278473 0,-3 -0.230991,-0.240713 -6.493768,2.268876 -6.694915,2.535034 z M 2.3050847,24.920283 c -0.8209579,0.570989 5.6550552,1.22505 6.6440678,1.372881 1.1337015,0.169458 1.5349235,-1.775098 1,-2.628866 -0.1887754,-0.301296 -7.3521764,1.05297 -7.6440678,1.255985 z M 19.538879,12.368028 c -0.71803,0.996203 4.548269,1.000999 5.775117,1.054286 1.268275,0.05509 2.209908,-2.43388 1.513018,-3.4949638 -0.490033,-0.746124 -6.766187,1.7165208 -7.288135,2.4406778 z m 3.143107,-6.725085 c -0.839837,0.9245091 5.381831,0.4465261 6.60615,0.1993709 0.980226,-0.1978798 0.592499,-2.1944289 0,-3 -0.300741,-0.4088917 -6.264854,2.4249237 -6.60615,2.8006291 z M 2.8474576,7.7236698 C 2.4232797,8.6292486 8.391037,6.9356109 9.3559322,7.1982461 10.12137,7.4065909 8.4041034,4.8414879 8.257033,4.0619539 8.1622089,3.559347 3.7142962,5.8730536 2.8474576,7.7236698 Z M 10.46182,14.609527 c -0.4989409,0.733093 3.519217,0.390917 4.38983,0.55944 1.195587,0.231428 0.965936,-1.966495 0.322034,-3.000118 -0.477406,-0.766356 -4.203852,1.694258 -4.711864,2.440678 z m 8.022367,4.22651 c -0.366831,0.854331 3.925048,0.459311 4.837847,0.282548 0.981761,-0.190118 0.827107,-2.437955 0,-3 -0.308764,-0.209815 -4.69056,2.374425 -4.837847,2.717452 z M 2.5762712,18.152471 c -0.7071067,0.707106 3.4895281,0.25145 4.4745763,0.423729 1.0472107,0.18315 0.608711,-2.130004 -0.00227,-3 -0.2073712,-0.295283 -4.217163,2.321129 -4.4723063,2.576271 z" transform="translate(1,1)"/>
</svg>
