<?xml version='1.0' encoding='utf-8'?>
<svg xmlns:dc="http://purl.org/dc/elements/1.1/" xmlns:cc="http://creativecommons.org/ns#" xmlns:rdf="http://www.w3.org/1999/02/22-rdf-syntax-ns#" xmlns="http://www.w3.org/2000/svg" id="svg2" viewBox="0 0 34 34" height="100%" width="100%" version="1.1">
  <metadata id="metadata8">
    <rdf:RDF>
      <cc:Work rdf:about="">
        <dc:format>image/svg+xml</dc:format>
        <dc:type rdf:resource="http://purl.org/dc/dcmitype/StillImage"/>
        <dc:title/>
      </cc:Work>
    </rdf:RDF>
  </metadata>
  <defs id="defs6"/>
  <rect style="fill:none;stroke:none;visibility:hidden" id="canvas" y="0" x="0" height="34" width="34"/><rect x="1" y="1" width="32" height="32" id="shield" style="fill:#bde3cb;fill-opacity:1;stroke:none;"/>
  <path id="cemetery" d="M 5,1 C 3.7418923,1.0295764 2.8174152,2.3085712 3,3.5147738 3,6.0098492 3,8.5049246 3,11 c 2.6666667,0 5.3333333,0 8,0 -0.0076,-2.7289705 0.0152,-5.45887 -0.01148,-8.1872559 C 10.829873,1.595242 9.5783993,0.82567003 8.4116871,1 7.2744581,1 6.137229,1 5,1 Z M 6,3 C 6.6666667,3 7.3333333,3 8,3 7.9104457,3.3663442 8.2624113,4.1742083 7.6323045,4 7.088203,4 6.5441015,4 6,4 6,3.6666667 6,3.3333333 6,3 Z M 4,5 C 6,5 8,5 10,5 9.9104457,5.3663442 10.262411,6.1742083 9.6323045,6 7.7548696,6 5.8774348,6 4,6 4,5.6666667 4,5.3333333 4,5 Z M 5,7 C 6.3333333,7 7.6666667,7 9,7 8.9104457,7.3663442 9.2624113,8.1742083 8.6323045,8 7.4215363,8 6.2107682,8 5,8 5,7.6666667 5,7.3333333 5,7 Z M 2,12 C 1.6868785,12.366218 1.2253276,12.670955 1,13.073539 1.051878,13.47756 0.77701378,14.208322 1.4412347,14 5.2941564,14 9.1470782,14 13,14 12.951681,13.539603 13.177286,12.965743 12.688,12.688 12.335436,12.401093 12.09394,11.846044 11.558765,12 8.3725102,12 5.1862551,12 2,12 Z m 17,2 c -1.25841,0.02924 -2.182695,1.308473 -2,2.514774 0,2.495075 0,4.990151 0,7.485226 2.698127,0.03146 5.396254,0.06292 8.094381,0.09438 -0.03969,-2.761144 -0.04941,-5.523526 -0.107838,-8.283895 C 24.825457,14.593969 23.578443,13.824935 22.411688,14 21.274459,14 20.137229,14 19,14 Z m 1.000001,2 c 0.666667,0 1.333333,0 2,0 -0.08955,0.366344 0.262411,1.174208 -0.367696,1 -0.544101,0 -1.088203,0 -1.632304,0 0,-0.333333 0,-0.666667 0,-1 z M 18,18 c 2,0 4.000001,0 6.000001,0 -0.08955,0.366344 0.262411,1.174208 -0.367696,1 -1.877435,0 -3.75487,0 -5.632305,0 0,-0.333333 0,-0.666667 0,-1 z m 1,2 c 1.333334,0 2.666667,0 4.000001,0 -0.08955,0.366344 0.262411,1.174208 -0.367696,1 -1.210768,0 -2.421537,0 -3.632305,0 0,-0.333333 0,-0.666667 0,-1 z m -3,5 c -0.313121,0.366218 -0.774672,0.670955 -1,1.073539 C 15.051878,26.47756 14.777014,27.208322 15.441235,27 19.294156,27 23.147078,27 27,27 26.951681,26.539603 27.177286,25.965743 26.688,25.688 26.335436,25.401093 26.09394,24.846044 25.558765,25 22.37251,25 19.186255,25 16,25 Z" style="fill:#999999;fill-opacity:1" transform="translate(1,1)"/>
</svg>
