<?xml version='1.0' encoding='utf-8'?>
<svg xmlns:dc="http://purl.org/dc/elements/1.1/" xmlns:cc="http://creativecommons.org/ns#" xmlns:rdf="http://www.w3.org/1999/02/22-rdf-syntax-ns#" xmlns="http://www.w3.org/2000/svg" version="1.1" width="100%" height="100%" viewBox="0 0 34 34" id="svg2">
  <metadata id="metadata8">
    <rdf:RDF>
      <cc:Work rdf:about="">
        <dc:format>image/svg+xml</dc:format>
        <dc:type rdf:resource="http://purl.org/dc/dcmitype/StillImage"/>
        <dc:title/>
      </cc:Work>
    </rdf:RDF>
  </metadata>
  <defs id="defs6"/>
  <rect width="34" height="34" x="0" y="0" id="canvas" style="fill:none;stroke:none;visibility:hidden"/><rect x="1" y="1" width="32" height="32" id="shield" style="fill:#bde3cb;fill-opacity:1;stroke:none;"/>
  <path d="M 7.03125,0 5,3.46875 l -4,0 2,3.5 -2,3.5 4,0 L 7.03125,14 l 2,-3.53125 3.96875,0 -1.96875,-3.5 1.96875,-3.5 -3.96875,0 -2,-3.46875 z m 0,2.4375 0.59375,1.03125 -1.1875,0 L 7.03125,2.4375 z M 3.125,4.625 l 1.21875,0 -0.625,1.0625 L 3.125,4.625 z m 2.65625,0 2.5,0 1.3125,2.34375 -1.3125,2.34375 -2.5,0 L 4.46875,6.96875 5.78125,4.625 z m 3.90625,0 1.25,0 -0.625,1.09375 L 9.6875,4.625 z m 0.625,3.59375 0.625,1.09375 -1.25,0 0.625,-1.09375 z M 3.71875,8.25 4.34375,9.3125 3.125,9.3125 3.71875,8.25 z m 2.71875,2.21875 1.1875,0 L 7.03125,11.5 6.4375,10.46875 z m 17,6.0625 L 21.40625,20 l -4,0 2,3.5 -2,3.5 4,0 2.03125,3.53125 2,-3.53125 3.96875,0 -1.96875,-3.5 1.96875,-3.5 -3.96875,0 -2,-3.46875 z m 0,2.4375 0.59375,1.03125 -1.1875,0 0.59375,-1.03125 z m -3.90625,2.1875 1.21875,0 -0.625,1.0625 -0.59375,-1.0625 z m 2.65625,0 2.5,0 L 26,23.5 l -1.3125,2.34375 -2.5,0 L 20.875,23.5 22.1875,21.15625 z m 3.90625,0 1.25,0 -0.625,1.09375 -0.625,-1.09375 z m 0.625,3.59375 0.625,1.09375 -1.25,0 0.625,-1.09375 z m -6.59375,0.03125 0.625,1.0625 -1.21875,0 0.59375,-1.0625 z M 22.84375,27 24.03125,27 23.4375,28.03125 22.84375,27 z" id="cemetery-jewish" style="fill:#999999;fill-opacity:1" transform="translate(1.0,1.0)"/>
</svg>
