<?xml version='1.0' encoding='utf-8'?>
<svg xmlns:dc="http://purl.org/dc/elements/1.1/" xmlns:cc="http://creativecommons.org/ns#" xmlns:rdf="http://www.w3.org/1999/02/22-rdf-syntax-ns#" xmlns="http://www.w3.org/2000/svg" id="svg2" viewBox="0 0 22 22" height="100%" width="100%" version="1.1">
  <metadata id="metadata8">
    <rdf:RDF>
      <cc:Work rdf:about="">
        <dc:format>image/svg+xml</dc:format>
        <dc:type rdf:resource="http://purl.org/dc/dcmitype/StillImage"/>
        <dc:title/>
      </cc:Work>
    </rdf:RDF>
  </metadata>
  <defs id="defs6"/>
  <rect style="fill:none;stroke:none;visibility:hidden" id="canvas" y="0" x="0" height="22" width="22"/><rect x="1" y="1" width="20" height="20" id="shield" style="fill:#fff5ed;fill-opacity:1;stroke:none;"/>
  <path id="hops" d="M 6.5,13.765368 C 7.440668,13.591106 8.4368772,13.406734 9.2227972,12.825519 9.7183087,12.344313 9.8457269,11.598497 9.8954304,10.935871 9.9097184,10.06979 9.7176322,9.1841121 9.3046165,8.4211167 8.9023672,7.8190075 8.3282681,7.3547205 7.7330508,6.9533895 L 7.6885588,1.3305082 c 0.8423221,-0.056525 1.61066,0.355564 2.3892152,0.6096502 L 10.213272,0.75017974 C 9.7129486,0.61340398 8.8267122,0.40933701 7.6274375,0.34835694 l -0.02431,-0.23900025 -1.1253841,-0.00432 -0.00219,0.31174479 C 5.0989981,0.4897876 3.7355859,0.99339515 3.2119904,2.5318759 c -0.2004439,0.8447894 -0.2755553,1.781294 0.066417,2.5992132 0.3357809,1.1143187 2.3687939,2.1749719 3.2160127,2.5421 0,0 0.00558,4.1383029 0.00558,6.0921789 z m 1.25,-0.98147 v -4.625 C 8.8591006,8.7024458 9.3315246,10.063614 9.1011612,11.230116 8.762942,12.169079 8.5517769,12.521396 7.75,12.783898 Z M 4.3389831,5.004237 C 3.6698091,4.0111334 3.8366438,2.5382511 4.7818685,1.7790563 5.237812,1.412885 5.8467429,1.262188 6.4237288,1.3241523 L 6.4533898,6.34322 C 5.6940636,6.0162491 4.8511028,5.6842519 4.3389831,5.004237 Z" style="fill:#00bb54;fill-opacity:1" transform="translate(4.0,4.0)"/>
</svg>
