<?xml version='1.0' encoding='utf-8'?>
<svg xmlns:dc="http://purl.org/dc/elements/1.1/" xmlns:cc="http://creativecommons.org/ns#" xmlns:rdf="http://www.w3.org/1999/02/22-rdf-syntax-ns#" xmlns="http://www.w3.org/2000/svg" id="svg2" viewBox="0 0 34 34" height="100%" width="100%" version="1.1">
  <metadata id="metadata8">
    <rdf:RDF>
      <cc:Work rdf:about="">
        <dc:format>image/svg+xml</dc:format>
        <dc:type rdf:resource="http://purl.org/dc/dcmitype/StillImage"/>
        <dc:title/>
      </cc:Work>
    </rdf:RDF>
  </metadata>
  <defs id="defs6"/>
  <rect style="fill:none;stroke:none;visibility:hidden" id="canvas" y="0" x="0" height="34" width="34"/>
  <path style="fill:#0092da;fill-opacity:1" id="marsh" d="m 6.2960474,-0.04373016 0,7.99999996 -3.7714844,-3.7988281 -0.7285156,0.7988281 4,4.0000004 -4,0 0,1 10.0000006,0 0,-1 -4.0000006,0 4.0000006,-4.0000004 -0.761719,-0.7988281 -3.7382816,3.7988281 0,-7.99999996 z m 13.8523906,4.56521456 0,1 10,0 0,-1 z m -4.382813,4.0019531 0,1 5.876953,0 0,-1 z m 10.447133,2.0147975 0,1 5.787242,0 0,-1 z m -11.091664,2.721531 0,1 10,0 0,-1 z m -12.3281252,4.371093 0,1 10.0000002,0 0,-1 z m 22.2781052,1.474378 0,1 5.876953,0 0,-1 z m -7.840375,-1.26301 0,8 -3.771484,-3.800781 -0.728516,0.800781 4,4 -4,0 0,1 10,0 0,-1 -4,0 4,-4 -0.761718,-0.800781 -3.738282,3.800781 0,-8 z m -17.23612803,5.02218 0,1 5.87890633,0 0,-1 z m 2.95477993,6.323523 0,1 2.425782,0 0,-1 z M 17.112552,31 l 0,1 10,0 0,-1 z" transform="translate(1.0,1.0)"/>
</svg>
