<?xml version='1.0' encoding='utf-8'?>
<svg xmlns:dc="http://purl.org/dc/elements/1.1/" xmlns:cc="http://creativecommons.org/ns#" xmlns:rdf="http://www.w3.org/1999/02/22-rdf-syntax-ns#" xmlns="http://www.w3.org/2000/svg" version="1.1" width="100%" height="100%" viewBox="0 0 20 20" id="svg2">
  <metadata id="metadata8">
    <rdf:RDF>
      <cc:Work rdf:about="">
        <dc:format>image/svg+xml</dc:format>
        <dc:type rdf:resource="http://purl.org/dc/dcmitype/StillImage"/>
        <dc:title/>
      </cc:Work>
    </rdf:RDF>
  </metadata>
  <defs id="defs6"/>
  <rect width="20" height="20" x="0" y="0" id="canvas" style="fill:none;stroke:none;visibility:hidden"/><rect x="1" y="1" width="18" height="18" id="shield" style="fill:#ffe649;fill-opacity:0.25;stroke:none;"/>
  <path style="fill:#555555;fill-opacity:0.25" d="m 11.679196,3.6841023 0.661456,0.6551549 0.285434,1.5166797 -1.20228,0.050844 0.0021,0.5186458 2.33962,0 0.05704,0.9983132 -0.04278,1.4689413 L 12.42277,9.8359828 1.8671709,9.8685806 0.56121857,9.4183231 0.05391429,8.2101644 0.69568981,6.796228 2.2909484,6.4254271 l 4.6940942,0 0,-0.5653223 -1.2673828,0.00175 0.2242507,-0.4795623 -5.21566008,0 0,-0.5215659 5.39068528,0 0.3062939,-0.5578903 0.561813,-0.6406105 z m 0.468595,3.4034691 -10.2235087,0.063159 c 0,0 -1.04313197,3e-7 -1.04313197,1.0431314 0,1.043132 1.04313197,1.043132 1.04313197,1.043132 L 12.147791,9.1758766 c 0,0 1.043132,-0.00208 1.043132,-1.0451694 0.01212,-0.7945641 -0.545291,-1.0198914 -1.043132,-1.0431362 z m -0.134466,0.079457 c 0.530945,0 0.961637,0.4306929 0.961637,0.9616367 0,0.5309458 -0.430692,0.9616384 -0.961637,0.9616384 -0.530945,0 -0.961638,-0.4306905 -0.961638,-0.9616384 0,-0.5309438 0.430693,-0.9616367 0.961638,-0.9616367 z m -2.0271809,0.00815 c 0.5309459,0 0.9616379,0.430694 0.9616379,0.9616377 0,0.5309459 -0.430692,0.9616374 -0.9616379,0.9616374 -0.5309452,0 -0.9616375,-0.4306904 -0.9616375,-0.9616374 0,-0.5309437 0.4306923,-0.9616377 0.9616375,-0.9616377 z M 7.9202537,7.201661 c 0.530945,0 0.9616373,0.4306941 0.9616373,0.9616378 0,0.5309459 -0.4306923,0.9595991 -0.9616373,0.9596001 -0.530945,0 -0.9616374,-0.4286532 -0.9616374,-0.9596001 0,-0.5309437 0.4306924,-0.9616378 0.9616374,-0.9616378 z m -2.0129189,0 c 0.530945,0 0.9616373,0.4306941 0.9616373,0.9616378 0,0.5309459 -0.4306923,0.9595991 -0.9616373,0.9596001 -0.530945,0 -0.9616373,-0.4286532 -0.9616373,-0.9596001 0,-0.5309437 0.4306923,-0.9616378 0.9616373,-0.9616378 z m -1.9905078,0 c 0.5309451,0 0.9616375,0.4306941 0.9616375,0.9616378 0,0.5309459 -0.4306925,0.9595991 -0.9616375,0.9596001 -0.5309446,0 -0.9616372,-0.4286532 -0.9616372,-0.9596001 0,-0.5309437 0.4306926,-0.9616378 0.9616372,-0.9616378 z M 1.9487303,7.222035 c 0.5309457,0 0.9596,0.4306942 0.9596,0.9616378 0,0.530946 -0.4286543,0.9616373 -0.9596,0.9616373 -0.530945,0 -0.96163738,-0.4306904 -0.96163738,-0.9616373 0,-0.5309436 0.43069238,-0.9616378 0.96163738,-0.9616378 z" id="military" transform="translate(3,3)"/>
</svg>
