<?xml version='1.0' encoding='utf-8'?>
<svg xmlns:dc="http://purl.org/dc/elements/1.1/" xmlns:cc="http://creativecommons.org/ns#" xmlns:rdf="http://www.w3.org/1999/02/22-rdf-syntax-ns#" xmlns="http://www.w3.org/2000/svg" id="svg2" viewBox="0 0 34 34" height="100%" width="100%" version="1.1">
  <metadata id="metadata8">
    <rdf:RDF>
      <cc:Work rdf:about="">
        <dc:format>image/svg+xml</dc:format>
        <dc:type rdf:resource="http://purl.org/dc/dcmitype/StillImage"/>
        <dc:title/>
      </cc:Work>
    </rdf:RDF>
  </metadata>
  <defs id="defs6"/>
  <rect style="fill:none;stroke:none;visibility:hidden" id="canvas" y="0" x="0" height="34" width="34"/><rect x="1" y="1" width="32" height="32" id="shield" style="fill:#2222a2;fill-opacity:0.25;stroke:none;"/>
  <path style="fill:#ffffff;fill-opacity:1" id="photovoltaic" d="M 9.5,-2.0000002e-8 9.5,32 10,32 10,-2.0000002e-8 Z M 15.5,14 14,15.5 l -14,0 0,1 14,0 1.5,1.5 0,14 1,0 0,-14 1.5,-1.5 14,0 0,-1 -14,0 -1.5,-1.5 0,-14 -1,0 z M 22,0 l 0,32 0.5,0 0,-32 z" transform="translate(1.0,1.0)"/>
</svg>
