<?xml version='1.0' encoding='utf-8'?>
<svg xmlns:dc="http://purl.org/dc/elements/1.1/" xmlns:cc="http://creativecommons.org/ns#" xmlns:rdf="http://www.w3.org/1999/02/22-rdf-syntax-ns#" xmlns="http://www.w3.org/2000/svg" version="1.1" width="100%" height="100%" viewBox="0 0 34 34" id="svg2">
  <metadata id="metadata8">
    <rdf:RDF>
      <cc:Work rdf:about="">
        <dc:format>image/svg+xml</dc:format>
        <dc:type rdf:resource="http://purl.org/dc/dcmitype/StillImage"/>
        <dc:title/>
      </cc:Work>
    </rdf:RDF>
  </metadata>
  <defs id="defs6"/>
  <rect width="34" height="34" x="0" y="0" id="canvas" style="fill:none;stroke:none;visibility:hidden"/><rect x="1" y="1" width="32" height="32" id="shield" style="fill:#aadca2;fill-opacity:1;stroke:none;"/>
  <path d="M 15,-2.0000002e-8 15,1 17,1 17,-2.0000002e-8 Z M 7.119,7.3728814 l 0,2 2,0 0,-2 z M 31,15 l 0,2 1,0 0,-2 z M 2e-8,15 2e-8,17 1,17 1,15 Z M 22.322,23.389831 l 0,2 2,0 0,-2 z M 15,31 l 0,1 2,0 0,-1 z" id="plant-nursery" style="fill:#000000;fill-opacity:1" transform="translate(1,1)"/>
</svg>
