<?xml version='1.0' encoding='utf-8'?>
<svg xmlns:dc="http://purl.org/dc/elements/1.1/" xmlns:cc="http://creativecommons.org/ns#" xmlns:rdf="http://www.w3.org/1999/02/22-rdf-syntax-ns#" xmlns="http://www.w3.org/2000/svg" id="svg2" viewBox="0 0 34 34" height="100%" width="100%" version="1.1">
  <metadata id="metadata8">
    <rdf:RDF>
      <cc:Work rdf:about="">
        <dc:format>image/svg+xml</dc:format>
        <dc:type rdf:resource="http://purl.org/dc/dcmitype/StillImage"/>
        <dc:title/>
      </cc:Work>
    </rdf:RDF>
  </metadata>
  <defs id="defs6"/>
  <rect style="fill:none;stroke:none;visibility:hidden" id="canvas" y="0" x="0" height="34" width="34"/><rect x="1" y="1" width="32" height="32" id="shield" style="fill:#d2b48c;fill-opacity:1;stroke:none;"/>
  <path style="fill:#35281e;fill-opacity:1" id="scree" d="m 19.802377,28.365966 c -0.503088,0.697988 -0.189723,2.457745 0.864407,2.457745 1.05413,0 2.85902,-1.217384 2.355932,-1.915372 -0.503088,-0.697988 -2.717251,-1.240361 -3.220339,-0.542373 z m 8.350165,-5.114042 c -0.643409,0.851361 -0.05371,3.210029 1,3.041237 0.987412,-0.158171 0.692387,-2.278473 0,-3 -0.230991,-0.240713 -0.798853,-0.307395 -1,-0.04124 z M 2.3050847,24.920283 c -0.8209579,0.570989 -0.9835298,2.819254 0,3 0.9221047,0.169458 1.3873937,-1.775098 1,-2.628866 -0.146913,-0.323778 -0.7081086,-0.574149 -1,-0.371134 z M 13.843963,4.7748078 c -0.71803,0.9962024 -0.0619,3.4416762 1.164948,3.4949634 1.268275,0.055087 2.209908,-2.4338795 1.513018,-3.4949634 -0.490033,-0.746124 -2.156018,-0.724157 -2.677966,0 z M 27.970121,4.422604 c -0.839837,0.9245091 0.229289,3.7007634 1.453608,3.4536082 0.980226,-0.1978798 0.592499,-2.1944289 0,-3 C 29.122988,4.4673205 28.311417,4.0468986 27.970121,4.422604 Z M 5.2881356,2.9779071 c -0.8994771,0.4369678 -0.9648952,2.7373648 0,3 C 6.0535736,6.1862519 6.6413916,4.7058947 6.4943212,3.9263607 6.3994971,3.4237538 5.7481945,2.7544095 5.2881356,2.9779071 Z M 11.004193,13.389188 c -0.498941,0.733093 -0.277393,2.424815 0.59322,2.593338 1.195587,0.231428 2.728648,-1.966495 2.084746,-3.000118 -0.477406,-0.766356 -2.169954,-0.33964 -2.677966,0.40678 z m 11.276604,2.463798 c -0.366831,0.854331 0.128438,2.764396 1.041237,2.587633 0.981761,-0.190118 0.827107,-2.437955 0,-3 -0.308764,-0.209815 -0.89395,0.06934 -1.041237,0.412367 z M 5.9661017,15.576213 c -0.7071067,0.707106 -0.9850482,2.827721 0,3 1.0472107,0.18315 1.6934568,-2.130004 1.0824741,-3 -0.2073712,-0.295283 -0.8273325,-0.255142 -1.0824741,0 z" transform="translate(1,1)"/>
</svg>
