<?xml version='1.0' encoding='utf-8'?>
<svg xmlns:dc="http://purl.org/dc/elements/1.1/" xmlns:cc="http://creativecommons.org/ns#" xmlns:rdf="http://www.w3.org/1999/02/22-rdf-syntax-ns#" xmlns="http://www.w3.org/2000/svg" id="svg2" viewBox="0 0 34 34" height="100%" width="100%" version="1.1">
  <metadata id="metadata8">
    <rdf:RDF>
      <cc:Work rdf:about="">
        <dc:format>image/svg+xml</dc:format>
        <dc:type rdf:resource="http://purl.org/dc/dcmitype/StillImage"/>
        <dc:title/>
      </cc:Work>
    </rdf:RDF>
  </metadata>
  <defs id="defs6"/>
  <rect style="fill:none;stroke:none;visibility:hidden" id="canvas" y="0" x="0" height="34" width="34"/><rect x="1" y="1" width="32" height="32" id="shield" style="fill:#aadca2;stroke:none;"/>
  <path d="M 15,23.699882 16,26.7 17,23.699882 Z m 16,5.9e-5 1,3 0,-3 z m -31,0 0,3 0.99999997,-3 z M 15,2.299882 16,5.3 17,2.299882 Z m 16,5.9e-5 1,3 0,-3 z m -31,0 0,3 1,-3 z M 15,12.999882 16,16 17,12.999882 Z m 16,5.9e-5 1,3 0,-3 z M 2e-8,12.999941 l 0,3 0.99999998,-3 z" style="fill:#000000;fill-opacity:1" id="vineyard" transform="translate(1,1)"/>
</svg>
