<?xml version='1.0' encoding='utf-8'?>
<svg xmlns:dc="http://purl.org/dc/elements/1.1/" xmlns:cc="http://creativecommons.org/ns#" xmlns:rdf="http://www.w3.org/1999/02/22-rdf-syntax-ns#" xmlns="http://www.w3.org/2000/svg" version="1.1" width="100%" height="100%" viewBox="0 0 34 34" id="svg2">
  <metadata id="metadata8">
    <rdf:RDF>
      <cc:Work rdf:about="">
        <dc:format>image/svg+xml</dc:format>
        <dc:type rdf:resource="http://purl.org/dc/dcmitype/StillImage"/>
        <dc:title/>
      </cc:Work>
    </rdf:RDF>
  </metadata>
  <defs id="defs6"/>
  <rect width="34" height="34" x="0" y="0" id="canvas" style="fill:none;stroke:none;visibility:hidden"/><rect x="1" y="1" width="32" height="32" id="shield" style="fill:#aadca2;fill-opacity:1;stroke:none;"/>
  <path id="vineyard" d="m 15,23.699882 c 0.333333,1.000039 0.666667,2.000079 1,3.000118 0.333333,-1.000039 0.666667,-2.000079 1,-3.000118 -0.666667,0 -1.333333,0 -2,0 z m 16,5.9e-5 c 0.333333,1 0.666667,2 1,3 0,-1 0,-2 0,-3 -0.333333,0 -0.666667,0 -1,0 z m -31,0 c 0,1 0,2 0,3 0.33333332,-1 0.66666665,-2 0.99999997,-3 -0.33333332,0 -0.66666665,0 -0.99999997,0 z M 15,2.299882 c 0.333333,1.0000393 0.666667,2.0000787 1,3.000118 0.333333,-1.0000393 0.666667,-2.0000787 1,-3.000118 -0.666667,0 -1.333333,0 -2,0 z m 16,5.9e-5 c 0.333333,1 0.666667,2 1,3 0,-1 0,-2 0,-3 -0.333333,0 -0.666667,0 -1,0 z m -31,0 c 0,1 0,2 0,3 0.33333333,-1 0.66666667,-2 1,-3 -0.33333333,0 -0.66666667,0 -1,0 z m 15,10.699941 c 0.333333,1.000039 0.666667,2.000079 1,3.000118 0.333333,-1.000039 0.666667,-2.000079 1,-3.000118 -0.666667,0 -1.333333,0 -2,0 z m 16,5.9e-5 c 0.333333,1 0.666667,2 1,3 0,-1 0,-2 0,-3 -0.333333,0 -0.666667,0 -1,0 z M 2e-8,12.999941 c 0,1 0,2 0,3 0.33333333,-1 0.66666665,-2 0.99999998,-3 -0.33333333,0 -0.66666665,0 -0.99999998,0 z" style="fill:#000000;fill-opacity:1" transform="translate(1.0,1.0)"/>
</svg>
