<?xml version='1.0' encoding='utf-8'?>
<svg xmlns:dc="http://purl.org/dc/elements/1.1/" xmlns:cc="http://creativecommons.org/ns#" xmlns:rdf="http://www.w3.org/1999/02/22-rdf-syntax-ns#" xmlns="http://www.w3.org/2000/svg" version="1.1" width="100%" height="100%" viewBox="0 0 34 34" id="svg2">
  <metadata id="metadata8">
    <rdf:RDF>
      <cc:Work rdf:about="">
        <dc:format>image/svg+xml</dc:format>
        <dc:type rdf:resource="http://purl.org/dc/dcmitype/StillImage"/>
        <dc:title/>
      </cc:Work>
    </rdf:RDF>
  </metadata>
  <defs id="defs6"/>
  <rect width="34" height="34" x="0" y="0" id="canvas" style="fill:none;stroke:none;visibility:hidden"/><rect x="1" y="1" width="32" height="32" id="shield" style="fill:#a6c993;stroke:none;"/>
  <path d="m 7.75,14 0,-3 3.75,0 -3,-3.25 3,0 -3.1822034,-3 L 11,4.75 7,1 3,4.75 l 3,0 -3.5,3 3,0 -3,3.25 3.75,0 0,3 z m 14.5,12 0,-3 3.75,0 -3,-3.25 3,0 -3.25,-3 2.5,0 -4,-3.75 -4,3.75 3,0 L 17,19.75 l 3,0 -3,3.25 3.75,0 0,3 z" id="wood-coniferous" style="fill:#96b983;fill-opacity:1" transform="translate(1,1)"/>
</svg>
