<?xml version='1.0' encoding='utf-8'?>
<svg xmlns:dc="http://purl.org/dc/elements/1.1/" xmlns:cc="http://creativecommons.org/ns#" xmlns:rdf="http://www.w3.org/1999/02/22-rdf-syntax-ns#" xmlns="http://www.w3.org/2000/svg" id="svg2" viewBox="0 0 34 34" height="100%" width="100%" version="1.1">
  <metadata id="metadata8">
    <rdf:RDF>
      <cc:Work rdf:about="">
        <dc:format>image/svg+xml</dc:format>
        <dc:type rdf:resource="http://purl.org/dc/dcmitype/StillImage"/>
        <dc:title/>
      </cc:Work>
    </rdf:RDF>
  </metadata>
  <defs id="defs6"/>
  <rect style="fill:none;stroke:none;visibility:hidden" id="canvas" y="0" x="0" height="34" width="34"/><rect x="1" y="1" width="32" height="32" id="shield" style="fill:#a6c993;fill-opacity:1;stroke:none;"/>
  <path id="wood-mixed" d="M 3.375,2 C 2.3958333,3 1.4166667,4 0.4375,5 1.1354167,5 1.8333333,5 2.53125,5 1.6875,5.8333333 0.84375,6.6666667 0,7.5 c 0.70833333,0 1.4166667,0 2.125,0 C 1.4166667,8.3333333 0.70833333,9.1666667 0,10 c 0.91666667,0 1.8333333,0 2.75,0 0,0.666667 0,1.333333 0,2 0.3979168,-0.05391 1.0088485,0.105185 1.28125,-0.07424 0,-0.641918 0,-1.283837 0,-1.925755 0.9166667,0 1.8333333,0 2.75,0 -0.7083333,-0.8333333 -1.4166667,-1.6666667 -2.125,-2.5 0.7083333,0 1.4166667,0 2.125,0 C 6.0208333,6.6666667 5.2604167,5.8333333 4.5,5 5.1145833,5 5.7291667,5 6.34375,5 5.3541667,4 4.3645833,3 3.375,2 Z m 7,0 C 9.2419739,1.9913606 9.1565789,3.3060398 8.0648952,3.4390024 6.9386754,4.1221455 7.8647859,5.6940892 8.0600421,6.0859211 6.4171035,6.8399792 6.8728667,9.4972613 8.5329925,9.9213421 8.995193,10.153521 9.9795454,9.6691419 9.71875,10.519716 c 0,0.493428 0,0.986856 0,1.480284 C 10.116667,11.946085 10.727599,12.105185 11,11.925755 11,11.283837 11,10.641918 11,10 11.973373,10.102716 13.068351,9.781331 13.480493,8.8046569 14.032789,7.8021596 13.601625,6.3655831 12.46875,6 13.985804,5.0651954 12.856166,3.0915984 11.595295,2.84375 11.469543,2.293199 10.915095,1.9728625 10.375,2 Z m 14.280335,14.338982 c 0.979167,1 1.958333,2 2.9375,3 -0.697917,0 -1.395833,0 -2.09375,0 0.84375,0.833333 1.6875,1.666667 2.53125,2.5 -0.708333,0 -1.416667,0 -2.125,0 0.708333,0.833333 1.416667,1.666667 2.125,2.5 -0.916667,0 -1.833333,0 -2.75,0 0,0.666667 0,1.333333 0,2 -0.397917,-0.05391 -1.008849,0.105185 -1.28125,-0.07425 0,-0.641918 0,-1.283837 0,-1.925755 -0.916667,0 -1.833333,0 -2.75,0 0.708333,-0.833333 1.416667,-1.666667 2.125,-2.5 -0.708333,0 -1.416667,0 -2.125,0 0.760417,-0.833333 1.520833,-1.666667 2.28125,-2.5 -0.614583,0 -1.229167,0 -1.84375,0 0.989583,-1 1.979167,-2 2.96875,-3 z m -7,0 c 1.133026,-0.0086 1.218421,1.30604 2.310104,1.439003 1.12622,0.683143 0.20011,2.255086 0.0049,2.646918 1.642938,0.754058 1.187175,3.41134 -0.47295,3.835421 -0.462201,0.232179 -1.446553,-0.2522 -1.185758,0.598374 0,0.493428 0,0.986856 0,1.480284 -0.397917,-0.05391 -1.008849,0.105185 -1.28125,-0.07425 0,-0.641918 0,-1.283837 0,-1.925755 -0.973373,0.102716 -2.068351,-0.218669 -2.480493,-1.195343 -0.552296,-1.002498 -0.121133,-2.439074 1.011743,-2.804657 -1.517054,-0.934805 -0.387416,-2.908401 0.873455,-3.15625 0.125752,-0.550551 0.6802,-0.870887 1.220295,-0.84375 z" style="fill:#96b983;fill-opacity:1" transform="translate(1,1)"/>
</svg>
